<svg width="131" height="137" viewBox="0 0 131 137" fill="none" xmlns="http://www.w3.org/2000/svg">
<g filter="url(#filter0_d_1_855)">
<path d="M10.7274 4.37185C9.82812 1.76097 6.98256 0.373457 4.37167 1.27276C1.76079 2.17206 0.373274 5.01763 1.27258 7.62851L10.7274 4.37185ZM121.536 95.0357C123.488 93.0831 123.488 89.9173 121.536 87.9646L89.7157 56.1448C87.7631 54.1922 84.5973 54.1922 82.6447 56.1448C80.6921 58.0975 80.6921 61.2633 82.6447 63.2159L110.929 91.5002L82.6447 119.784C80.6921 121.737 80.6921 124.903 82.6447 126.856C84.5973 128.808 87.7631 128.808 89.7157 126.856L121.536 95.0357ZM1.27258 7.62851C9.12479 30.4254 19.8402 52.7336 38.0036 69.3176C56.3116 86.0336 81.7007 96.5002 118 96.5002V86.5002C83.7993 86.5002 60.9384 76.7168 44.7463 61.9328C28.4097 47.0167 18.3751 26.575 10.7274 4.37185L1.27258 7.62851Z" fill="#130D08"/>
</g>
<defs>
<filter id="filter0_d_1_855" x="0.998627" y="0.99881" width="130.001" height="135.321" filterUnits="userSpaceOnUse" color-interpolation-filters="sRGB">
<feFlood flood-opacity="0" result="BackgroundImageFix"/>
<feColorMatrix in="SourceAlpha" type="matrix" values="0 0 0 0 0 0 0 0 0 0 0 0 0 0 0 0 0 0 127 0" result="hardAlpha"/>
<feOffset dx="8" dy="8"/>
<feComposite in2="hardAlpha" operator="out"/>
<feColorMatrix type="matrix" values="0 0 0 0 0.0705882 0 0 0 0 0.184314 0 0 0 0 0.298039 0 0 0 0.25 0"/>
<feBlend mode="normal" in2="BackgroundImageFix" result="effect1_dropShadow_1_855"/>
<feBlend mode="normal" in="SourceGraphic" in2="effect1_dropShadow_1_855" result="shape"/>
</filter>
</defs>
</svg>
