<svg width="128" height="128" viewBox="0 0 128 128" fill="none" xmlns="http://www.w3.org/2000/svg">
<path d="M5.5 5.5H0.5V0.5H5.5V5.5ZM6.5 5.5V0.5H39.5V5.5H6.5ZM0.5 6.5H5.5V39.5H0.5V6.5Z" fill="black" stroke="black"/>
<path d="M5.5 122.5L5.5 127.5L0.5 127.5L0.5 122.5L5.5 122.5ZM5.5 121.5L0.5 121.5L0.499998 88.5L5.5 88.5L5.5 121.5ZM6.5 127.5L6.5 122.5L39.5 122.5L39.5 127.5L6.5 127.5Z" fill="black" stroke="black"/>
<path d="M122.5 122.5L127.5 122.5L127.5 127.5L122.5 127.5L122.5 122.5ZM121.5 122.5L121.5 127.5L88.5 127.5L88.5 122.5L121.5 122.5ZM127.5 121.5L122.5 121.5L122.5 88.5L127.5 88.5L127.5 121.5Z" fill="black" stroke="black"/>
<path d="M23.5727 61L22.8727 58.8H17.6727L16.9727 61H13.4727L18.2327 47H22.3127L27.0727 61H23.5727ZM18.6327 55.8H21.9127L20.2727 50.66L18.6327 55.8ZM33.5664 47C34.9397 47 36.0997 47.4667 37.0464 48.4C37.9931 49.3333 38.4664 50.4667 38.4664 51.8C38.4664 53.1333 37.9931 54.2667 37.0464 55.2C36.0997 56.1333 34.9397 56.6 33.5664 56.6H31.4664V61H28.2664V47H33.5664ZM33.5664 53.6C34.0597 53.6 34.4664 53.4267 34.7864 53.08C35.1064 52.7333 35.2664 52.3067 35.2664 51.8C35.2664 51.2933 35.1064 50.8667 34.7864 50.52C34.4664 50.1733 34.0597 50 33.5664 50H31.4664V53.6H33.5664ZM45.3633 47C46.7366 47 47.8966 47.4667 48.8433 48.4C49.7899 49.3333 50.2633 50.4667 50.2633 51.8C50.2633 53.1333 49.7899 54.2667 48.8433 55.2C47.8966 56.1333 46.7366 56.6 45.3633 56.6H43.2633V61H40.0633V47H45.3633ZM45.3633 53.6C45.8566 53.6 46.2633 53.4267 46.5833 53.08C46.9033 52.7333 47.0633 52.3067 47.0633 51.8C47.0633 51.2933 46.9033 50.8667 46.5833 50.52C46.2633 50.1733 45.8566 50 45.3633 50H43.2633V53.6H45.3633ZM55.0602 57.92H60.0602V61H51.8602V47H55.0602V57.92ZM71.0727 47L66.3727 55.62V61H63.1727V55.62L58.4727 47H62.1127L64.7727 52.4L67.4327 47H71.0727ZM85.7703 50.08H80.4703V52.78H85.6703V55.86H80.4703V61H77.2703V47H85.7703V50.08ZM99.5009 59.18C98.0876 60.58 96.3676 61.28 94.3409 61.28C92.3143 61.28 90.5943 60.58 89.1809 59.18C87.7676 57.78 87.0609 56.0533 87.0609 54C87.0609 51.9467 87.7676 50.22 89.1809 48.82C90.5943 47.42 92.3143 46.72 94.3409 46.72C96.3676 46.72 98.0876 47.42 99.5009 48.82C100.914 50.22 101.621 51.9467 101.621 54C101.621 56.0533 100.914 57.78 99.5009 59.18ZM91.4209 57C92.2076 57.7733 93.1809 58.16 94.3409 58.16C95.5009 58.16 96.4676 57.7733 97.2409 57C98.0276 56.2267 98.4209 55.2267 98.4209 54C98.4209 52.7733 98.0276 51.7733 97.2409 51C96.4676 50.2267 95.5009 49.84 94.3409 49.84C93.1809 49.84 92.2076 50.2267 91.4209 51C90.6476 51.7733 90.2609 52.7733 90.2609 54C90.2609 55.2267 90.6476 56.2267 91.4209 57ZM110.783 61L108.143 56.4H106.623V61H103.423V47H109.023C110.356 47 111.489 47.4667 112.423 48.4C113.356 49.3333 113.823 50.4667 113.823 51.8C113.823 52.6533 113.583 53.4467 113.103 54.18C112.636 54.9 112.016 55.46 111.243 55.86L114.223 61H110.783ZM106.623 50V53.6H109.023C109.463 53.6 109.836 53.4267 110.143 53.08C110.463 52.7333 110.623 52.3067 110.623 51.8C110.623 51.2933 110.463 50.8667 110.143 50.52C109.836 50.1733 109.463 50 109.023 50H106.623ZM35.3026 75C35.3026 76.7333 34.7692 78.26 33.7026 79.58L35.1026 81.06L32.8026 83.1L31.3026 81.52C30.2626 82.0267 29.1692 82.28 28.0226 82.28C25.9959 82.28 24.2759 81.58 22.8626 80.18C21.4492 78.78 20.7426 77.0533 20.7426 75C20.7426 72.9467 21.4492 71.22 22.8626 69.82C24.2759 68.42 25.9959 67.72 28.0226 67.72C30.0492 67.72 31.7692 68.42 33.1826 69.82C34.5959 71.22 35.3026 72.9467 35.3026 75ZM28.0226 79.16C28.3159 79.16 28.6426 79.1267 29.0026 79.06L26.9826 76.92L29.2826 74.88L31.5226 77.26C31.9092 76.5667 32.1026 75.8133 32.1026 75C32.1026 73.7733 31.7092 72.7733 30.9226 72C30.1492 71.2267 29.1826 70.84 28.0226 70.84C26.8626 70.84 25.8892 71.2267 25.1026 72C24.3292 72.7733 23.9426 73.7733 23.9426 75C23.9426 76.2267 24.3292 77.2267 25.1026 78C25.8892 78.7733 26.8626 79.16 28.0226 79.16ZM44.562 82L41.922 77.4H40.402V82H37.202V68H42.802C44.1353 68 45.2686 68.4667 46.202 69.4C47.1353 70.3333 47.602 71.4667 47.602 72.8C47.602 73.6533 47.362 74.4467 46.882 75.18C46.4153 75.9 45.7953 76.46 45.022 76.86L48.002 82H44.562ZM40.402 71V74.6H42.802C43.242 74.6 43.6153 74.4267 43.922 74.08C44.242 73.7333 44.402 73.3067 44.402 72.8C44.402 72.2933 44.242 71.8667 43.922 71.52C43.6153 71.1733 43.242 71 42.802 71H40.402ZM61.1866 82.28C59.0933 82.28 57.3533 81.5867 55.9666 80.2C54.5933 78.8 53.9066 77.0667 53.9066 75C53.9066 72.9333 54.5933 71.2067 55.9666 69.82C57.3533 68.42 59.0933 67.72 61.1866 67.72C62.44 67.72 63.6 68.0133 64.6666 68.6C65.7333 69.1733 66.5733 69.96 67.1866 70.96L64.4266 72.56C64.12 72.0133 63.68 71.5933 63.1066 71.3C62.5333 70.9933 61.8933 70.84 61.1866 70.84C59.9466 70.84 58.9533 71.22 58.2066 71.98C57.4733 72.74 57.1066 73.7467 57.1066 75C57.1066 76.2533 57.4733 77.26 58.2066 78.02C58.9533 78.78 59.9466 79.16 61.1866 79.16C61.8933 79.16 62.5333 79.0067 63.1066 78.7C63.6933 78.3933 64.1333 77.9733 64.4266 77.44L67.1866 79.04C66.5866 80.04 65.7533 80.8333 64.6866 81.42C63.62 81.9933 62.4533 82.28 61.1866 82.28ZM80.331 80.18C78.9177 81.58 77.1977 82.28 75.171 82.28C73.1443 82.28 71.4243 81.58 70.011 80.18C68.5977 78.78 67.891 77.0533 67.891 75C67.891 72.9467 68.5977 71.22 70.011 69.82C71.4243 68.42 73.1443 67.72 75.171 67.72C77.1977 67.72 78.9177 68.42 80.331 69.82C81.7443 71.22 82.451 72.9467 82.451 75C82.451 77.0533 81.7443 78.78 80.331 80.18ZM72.251 78C73.0377 78.7733 74.011 79.16 75.171 79.16C76.331 79.16 77.2977 78.7733 78.071 78C78.8577 77.2267 79.251 76.2267 79.251 75C79.251 73.7733 78.8577 72.7733 78.071 72C77.2977 71.2267 76.331 70.84 75.171 70.84C74.011 70.84 73.0377 71.2267 72.251 72C71.4777 72.7733 71.091 73.7733 71.091 75C71.091 76.2267 71.4777 77.2267 72.251 78ZM89.8527 68C91.7861 68 93.3994 68.6733 94.6927 70.02C95.9994 71.3533 96.6527 73.0133 96.6527 75C96.6527 76.9867 95.9994 78.6533 94.6927 80C93.3994 81.3333 91.7861 82 89.8527 82H84.2527V68H89.8527ZM89.8527 78.92C90.9594 78.92 91.8527 78.5667 92.5327 77.86C93.2261 77.14 93.5727 76.1867 93.5727 75C93.5727 73.8133 93.2261 72.8667 92.5327 72.16C91.8527 71.44 90.9594 71.08 89.8527 71.08H87.4527V78.92H89.8527ZM101.652 78.92H107.252V82H98.452V68H107.152V71.08H101.652V73.4H106.652V76.44H101.652V78.92Z" fill="black"/>
<path d="M122.5 5.5L122.5 0.5L127.5 0.5L127.5 5.5L122.5 5.5ZM122.5 6.5L127.5 6.5L127.5 39.5L122.5 39.5L122.5 6.5ZM121.5 0.5L121.5 5.5L88.5 5.5L88.5 0.499998L121.5 0.5Z" fill="black" stroke="black"/>
</svg>
