<?xml version="1.0" encoding="UTF-8"?>
<svg id="Layer_1" data-name="Layer 1" xmlns="http://www.w3.org/2000/svg" viewBox="0 0 1080 1080">
  <defs>
    <style>
      .cls-1 {
        fill: #221f20;
      }

      .cls-2 {
        fill: none;
        stroke: #221f20;
        stroke-miterlimit: 10;
        stroke-width: .89px;
      }
    </style>
  </defs>
  <g>
    <path class="cls-1" d="M561.79,535.17c23.25,121.49,12.14,245.9-35.58,364.57-12.31,29.08-24.77,54.03-39.82,81.5-6.82,12.86-11.69,26.14-17.74,40.19-11.9,27.12-19.47,53.11-27.25,80.09-23.46,91.11-25.6,187.78-6.31,279.8-34.24-7.28-69.45-14.76-103.68-22.04-2.38-46.51-.85-92.19,5.78-137.81,4.28-29.76,10.31-58.13,18.5-87.06,11.25-38.5,25.02-74.42,42.91-110.49,9.05-18.52,18.87-35.86,29.67-52.99,17.41-29.01,38.11-54.26,54.55-83.48,21.24-37.4,37.59-75.84,51.42-116.86,.62-2.93,1.46-6.85,2.08-9.78,23.83-73.65,29.85-150.07,25.47-225.64h0Z"/>
    <path class="cls-2" d="M561.79,535.17c23.25,121.49,12.14,245.9-35.58,364.57-12.31,29.08-24.77,54.03-39.82,81.5-6.82,12.86-11.69,26.14-17.74,40.19-11.9,27.12-19.47,53.11-27.25,80.09-23.46,91.11-25.6,187.78-6.31,279.8-34.24-7.28-69.45-14.76-103.68-22.04-2.38-46.51-.85-92.19,5.78-137.81,4.28-29.76,10.31-58.13,18.5-87.06,11.25-38.5,25.02-74.42,42.91-110.49,9.05-18.52,18.87-35.86,29.67-52.99,17.41-29.01,38.11-54.26,54.55-83.48,21.24-37.4,37.59-75.84,51.42-116.86,.62-2.93,1.46-6.85,2.08-9.78,23.83-73.65,29.85-150.07,25.47-225.64h0Z"/>
  </g>
  <g>
    <path class="cls-1" d="M560.91,537.77c-2.52,123.67-39.25,243.05-110.6,349.21-18.09,25.88-35.47,47.7-55.89,71.44-9.35,11.16-16.87,23.14-25.71,35.62-17.28,24.05-30.09,47.9-43.3,72.67-41.89,84.25-64.08,178.35-64.35,272.38-31.97-14.24-64.86-28.88-96.84-43.11,7.34-45.99,18.34-90.35,34.3-133.6,10.38-28.22,22.17-54.71,36.2-81.31,19.01-35.32,39.95-67.6,64.95-99.16,12.7-16.24,25.91-31.15,40.03-45.66,23.06-24.76,48.56-45.15,70.71-70.32,28.55-32.17,52.54-66.37,74.59-103.62,1.22-2.74,2.85-6.39,4.07-9.14,38.63-67.09,60.4-140.59,71.82-215.41h0Z"/>
    <path class="cls-2" d="M560.91,537.77c-2.52,123.67-39.25,243.05-110.6,349.21-18.09,25.88-35.47,47.7-55.89,71.44-9.35,11.16-16.87,23.14-25.71,35.62-17.28,24.05-30.09,47.9-43.3,72.67-41.89,84.25-64.08,178.35-64.35,272.38-31.97-14.24-64.86-28.88-96.84-43.11,7.34-45.99,18.34-90.35,34.3-133.6,10.38-28.22,22.17-54.71,36.2-81.31,19.01-35.32,39.95-67.6,64.95-99.16,12.7-16.24,25.91-31.15,40.03-45.66,23.06-24.76,48.56-45.15,70.71-70.32,28.55-32.17,52.54-66.37,74.59-103.62,1.22-2.74,2.85-6.39,4.07-9.14,38.63-67.09,60.4-140.59,71.82-215.41h0Z"/>
  </g>
  <g>
    <path class="cls-1" d="M559.5,540.13c-28.17,120.44-88.92,229.58-180.78,318.58-23.08,21.55-44.61,39.28-69.52,58.26-11.47,8.98-21.31,19.13-32.56,29.5-21.9,19.93-39.39,40.6-57.46,62.08-58.49,73.7-99.77,161.13-119.57,253.04-28.32-20.57-57.44-41.73-85.76-62.31,16.74-43.46,36.72-84.57,61.33-123.55,16.02-25.45,33.06-48.91,52.31-72,25.94-30.6,53.13-57.81,84.14-83.49,15.8-13.24,31.82-25.09,48.65-36.34,27.71-19.42,56.89-34.07,83.79-54.08,34.62-25.53,65.19-54,94.51-85.84,1.76-2.43,4.11-5.66,5.88-8.09,51.73-57.59,88.31-124.96,115.04-195.77h0Z"/>
    <path class="cls-2" d="M559.5,540.13c-28.17,120.44-88.92,229.58-180.78,318.58-23.08,21.55-44.61,39.28-69.52,58.26-11.47,8.98-21.31,19.13-32.56,29.5-21.9,19.93-39.39,40.6-57.46,62.08-58.49,73.7-99.77,161.13-119.57,253.04-28.32-20.57-57.44-41.73-85.76-62.31,16.74-43.46,36.72-84.57,61.33-123.55,16.02-25.45,33.06-48.91,52.31-72,25.94-30.6,53.13-57.81,84.14-83.49,15.8-13.24,31.82-25.09,48.65-36.34,27.71-19.42,56.89-34.07,83.79-54.08,34.62-25.53,65.19-54,94.51-85.84,1.76-2.43,4.11-5.66,5.88-8.09,51.73-57.59,88.31-124.96,115.04-195.77h0Z"/>
  </g>
  <g>
    <path class="cls-1" d="M557.64,542.14c-52.6,111.95-134.71,206.07-243.07,274.03-27.05,16.28-51.8,29.15-80.12,42.53-13.08,6.4-24.82,14.28-37.98,22.08-25.57,14.95-46.97,31.53-69.12,48.78-72.53,59.93-131.09,136.87-169.57,222.65-23.42-26.01-47.51-52.76-70.93-78.77,25.41-39.03,53.5-75.08,85.68-108.09,20.96-21.56,42.51-40.96,66.14-59.55,31.73-24.54,63.99-45.5,99.66-64.17,18.21-9.67,36.34-17.92,55.15-25.43,31.14-13.24,62.73-21.5,93.2-35.48,39.17-17.77,74.99-39.26,110.29-64.32,2.23-2.01,5.2-4.68,7.43-6.69,62.58-45.58,112.36-103.86,153.23-167.57h0Z"/>
    <path class="cls-2" d="M557.64,542.14c-52.6,111.95-134.71,206.07-243.07,274.03-27.05,16.28-51.8,29.15-80.12,42.53-13.08,6.4-24.82,14.28-37.98,22.08-25.57,14.95-46.97,31.53-69.12,48.78-72.53,59.93-131.09,136.87-169.57,222.65-23.42-26.01-47.51-52.76-70.93-78.77,25.41-39.03,53.5-75.08,85.68-108.09,20.96-21.56,42.51-40.96,66.14-59.55,31.73-24.54,63.99-45.5,99.66-64.17,18.21-9.67,36.34-17.92,55.15-25.43,31.14-13.24,62.73-21.5,93.2-35.48,39.17-17.77,74.99-39.26,110.29-64.32,2.23-2.01,5.2-4.68,7.43-6.69,62.58-45.58,112.36-103.86,153.23-167.57h0Z"/>
  </g>
  <g>
    <path class="cls-1" d="M555.4,543.73c-74.73,98.57-174.61,173.56-294.73,217.51-29.85,10.3-56.73,17.74-87.21,24.95-14.12,3.54-27.25,8.8-41.74,13.71-28.11,9.3-52.5,21.07-77.75,33.34-83.41,43.54-156.68,106.62-212.16,182.53-17.5-30.31-35.5-61.49-53-91.8,32.97-32.89,67.94-62.32,106.28-87.92,24.98-16.73,50.1-31.23,77.08-44.5,36.14-17.4,72.05-31.21,110.82-42.05,19.82-5.67,39.27-9.97,59.23-13.41,33.21-6.47,65.83-7.98,98.54-15.32,42.01-9.24,81.51-22.81,121.25-39.98,2.6-1.5,6.06-3.5,8.66-5,70.68-31.57,131.5-78.23,184.72-132.05h0Z"/>
    <path class="cls-2" d="M555.4,543.73c-74.73,98.57-174.61,173.56-294.73,217.51-29.85,10.3-56.73,17.74-87.21,24.95-14.12,3.54-27.25,8.8-41.74,13.71-28.11,9.3-52.5,21.07-77.75,33.34-83.41,43.54-156.68,106.62-212.16,182.53-17.5-30.31-35.5-61.49-53-91.8,32.97-32.89,67.94-62.32,106.28-87.92,24.98-16.73,50.1-31.23,77.08-44.5,36.14-17.4,72.05-31.21,110.82-42.05,19.82-5.67,39.27-9.97,59.23-13.41,33.21-6.47,65.83-7.98,98.54-15.32,42.01-9.24,81.51-22.81,121.25-39.98,2.6-1.5,6.06-3.5,8.66-5,70.68-31.57,131.5-78.23,184.72-132.05h0Z"/>
  </g>
  <g>
    <path class="cls-1" d="M552.87,544.81c-93.59,80.88-206.88,133.46-333.51,151.48-31.34,3.87-59.18,5.56-90.49,6.27-14.55,.52-28.48,2.95-43.68,4.73-29.43,3.26-55.73,9.7-82.98,16.45-90.64,25.24-175.42,71.72-245.47,134.43-10.82-33.29-21.94-67.53-32.76-100.81,39.09-25.32,79.41-46.83,122.24-63.9,27.91-11.17,55.49-20.13,84.64-27.5,38.97-9.51,76.96-15.54,117.14-18.08,20.57-1.43,40.49-1.59,60.72-.8,33.83,.57,66.05,5.88,99.57,5.5,43.01-.31,84.48-5.37,126.92-13.9,2.85-.93,6.66-2.16,9.51-3.09,75.7-16.19,144.89-49.18,208.14-90.76h0Z"/>
    <path class="cls-2" d="M552.87,544.81c-93.59,80.88-206.88,133.46-333.51,151.48-31.34,3.87-59.18,5.56-90.49,6.27-14.55,.52-28.48,2.95-43.68,4.73-29.43,3.26-55.73,9.7-82.98,16.45-90.64,25.24-175.42,71.72-245.47,134.43-10.82-33.29-21.94-67.53-32.76-100.81,39.09-25.32,79.41-46.83,122.24-63.9,27.91-11.17,55.49-20.13,84.64-27.5,38.97-9.51,76.96-15.54,117.14-18.08,20.57-1.43,40.49-1.59,60.72-.8,33.83,.57,66.05,5.88,99.57,5.5,43.01-.31,84.48-5.37,126.92-13.9,2.85-.93,6.66-2.16,9.51-3.09,75.7-16.19,144.89-49.18,208.14-90.76h0Z"/>
  </g>
  <g>
    <path class="cls-1" d="M550.18,545.35c-108.36,59.65-230.11,87.53-357.72,78.82-31.46-2.73-59.04-6.87-89.82-12.68-14.34-2.51-28.47-3.04-43.71-4.46-29.47-2.94-56.53-2.1-84.59-1.16-93.9,5.85-186.5,33.68-268.06,80.46-3.66-34.81-7.42-70.61-11.08-105.42,43.5-16.64,87.42-29.3,132.85-37.09,29.63-5.12,58.47-8.16,88.51-9.3,40.09-1.2,78.51,.8,118.35,6.67,20.41,2.88,39.94,6.86,59.56,11.84,32.97,7.59,63.38,19.48,96.25,26.08,42.13,8.64,83.75,12.31,127.03,12.79,2.98-.31,6.96-.73,9.95-1.05,77.41-.09,151.95-17.98,222.46-45.5h0Z"/>
    <path class="cls-2" d="M550.18,545.35c-108.36,59.65-230.11,87.53-357.72,78.82-31.46-2.73-59.04-6.87-89.82-12.68-14.34-2.51-28.47-3.04-43.71-4.46-29.47-2.94-56.53-2.1-84.59-1.16-93.9,5.85-186.5,33.68-268.06,80.46-3.66-34.81-7.42-70.61-11.08-105.42,43.5-16.64,87.42-29.3,132.85-37.09,29.63-5.12,58.47-8.16,88.51-9.3,40.09-1.2,78.51,.8,118.35,6.67,20.41,2.88,39.94,6.86,59.56,11.84,32.97,7.59,63.38,19.48,96.25,26.08,42.13,8.64,83.75,12.31,127.03,12.79,2.98-.31,6.96-.73,9.95-1.05,77.41-.09,151.95-17.98,222.46-45.5h0Z"/>
  </g>
  <g>
    <path class="cls-1" d="M547.44,545.31c-118.39,35.82-243.28,37.78-366.29,2.73-30.2-9.21-56.32-18.99-85.22-31.08-13.51-5.44-27.22-8.89-41.82-13.45-28.21-9-54.86-13.81-82.49-18.73-93.07-13.8-189.43-5.83-278.93,22.97,3.66-34.81,7.42-70.61,11.08-105.42,46.01-7.23,91.6-10.48,137.66-8.66,30.04,1.15,58.89,4.18,88.51,9.3,39.47,7.16,76.63,17.1,114.37,31.13,19.37,7.06,37.64,15.02,55.8,23.96,30.67,14.28,57.95,32.23,88.73,45.52,39.42,17.21,79.36,29.46,121.6,38.92,2.98,.31,6.96,.73,9.95,1.05,75.74,16,152.37,14,227.06,1.74h0Z"/>
    <path class="cls-2" d="M547.44,545.31c-118.39,35.82-243.28,37.78-366.29,2.73-30.2-9.21-56.32-18.99-85.22-31.08-13.51-5.44-27.22-8.89-41.82-13.45-28.21-9-54.86-13.81-82.49-18.73-93.07-13.8-189.43-5.83-278.93,22.97,3.66-34.81,7.42-70.61,11.08-105.42,46.01-7.23,91.6-10.48,137.66-8.66,30.04,1.15,58.89,4.18,88.51,9.3,39.47,7.16,76.63,17.1,114.37,31.13,19.37,7.06,37.64,15.02,55.8,23.96,30.67,14.28,57.95,32.23,88.73,45.52,39.42,17.21,79.36,29.46,121.6,38.92,2.98,.31,6.96,.73,9.95,1.05,75.74,16,152.37,14,227.06,1.74h0Z"/>
  </g>
  <g>
    <path class="cls-1" d="M544.76,544.71c-123.25,10.42-245.82-13.63-358.85-73.49-27.63-15.29-51.14-30.29-76.89-48.12-12.08-8.13-24.78-14.36-38.11-21.85-25.73-14.67-50.79-24.91-76.8-35.47-88.16-32.85-184.08-45.09-277.61-35.52,10.82-33.29,21.94-67.53,32.76-100.81,46.51,2.49,91.78,8.79,136.45,20.15,29.15,7.37,56.73,16.33,84.64,27.5,37.12,15.21,71.4,32.66,105.4,54.23,17.48,10.94,33.69,22.51,49.6,35.04,27.03,20.35,49.98,43.58,77.32,62.98,34.98,25.03,71.5,45.31,110.85,63.35,2.85,.93,6.66,2.16,9.51,3.09,70.76,31.4,146.13,45.38,221.74,48.91h0Z"/>
    <path class="cls-2" d="M544.76,544.71c-123.25,10.42-245.82-13.63-358.85-73.49-27.63-15.29-51.14-30.29-76.89-48.12-12.08-8.13-24.78-14.36-38.11-21.85-25.73-14.67-50.79-24.91-76.8-35.47-88.16-32.85-184.08-45.09-277.61-35.52,10.82-33.29,21.94-67.53,32.76-100.81,46.51,2.49,91.78,8.79,136.45,20.15,29.15,7.37,56.73,16.33,84.64,27.5,37.12,15.21,71.4,32.66,105.4,54.23,17.48,10.94,33.69,22.51,49.6,35.04,27.03,20.35,49.98,43.58,77.32,62.98,34.98,25.03,71.5,45.31,110.85,63.35,2.85,.93,6.66,2.16,9.51,3.09,70.76,31.4,146.13,45.38,221.74,48.91h0Z"/>
  </g>
  <g>
    <path class="cls-1" d="M542.27,543.56c-122.73-15.43-237.61-64.44-335.73-146.49-23.85-20.7-43.73-40.26-65.21-63.05-10.12-10.46-21.25-19.2-32.74-29.29-22.11-19.7-44.5-34.93-67.75-50.66-79.41-50.46-170.68-82.38-264.16-92.47,17.5-30.31,35.5-61.49,53-91.8,44.97,12.11,87.94,27.68,129.28,48.08,26.98,13.27,52.1,27.77,77.08,44.5,33.14,22.6,63.05,46.79,91.82,74.95,14.82,14.33,28.27,29.03,41.23,44.59,22.21,25.53,39.83,53.02,62.54,77.68,29.01,31.76,60.51,59.19,95.25,85.02,2.6,1.5,6.06,3.5,8.66,5,62.68,45.43,133.5,74.77,206.72,93.95h0Z"/>
    <path class="cls-2" d="M542.27,543.56c-122.73-15.43-237.61-64.44-335.73-146.49-23.85-20.7-43.73-40.26-65.21-63.05-10.12-10.46-21.25-19.2-32.74-29.29-22.11-19.7-44.5-34.93-67.75-50.66-79.41-50.46-170.68-82.38-264.16-92.47,17.5-30.31,35.5-61.49,53-91.8,44.97,12.11,87.94,27.68,129.28,48.08,26.98,13.27,52.1,27.77,77.08,44.5,33.14,22.6,63.05,46.79,91.82,74.95,14.82,14.33,28.27,29.03,41.23,44.59,22.21,25.53,39.83,53.02,62.54,77.68,29.01,31.76,60.51,59.19,95.25,85.02,2.6,1.5,6.06,3.5,8.66,5,62.68,45.43,133.5,74.77,206.72,93.95h0Z"/>
  </g>
  <g>
    <path class="cls-1" d="M540.07,541.91c-116.84-40.61-219.02-112.43-297.94-213.09-19.02-25.2-34.4-48.47-50.68-75.23-7.73-12.34-16.79-23.19-25.93-35.46-17.54-23.86-36.26-43.42-55.73-63.64C42.61,88.62-40.04,38.42-129.37,9.12c23.42-26.01,47.51-52.76,70.93-78.77C-16.98-48.46,21.82-24.3,58.01,4.25c23.63,18.59,45.18,37.99,66.14,59.55,27.72,28.99,51.94,58.88,74.23,92.41,11.52,17.1,21.62,34.27,31.06,52.19,16.42,29.59,27.93,60.14,45.02,88.98,21.77,37.1,46.89,70.47,75.5,102.96,2.23,2.01,5.2,4.68,7.43,6.69,51.87,57.47,115.04,100.89,182.67,134.87h0Z"/>
    <path class="cls-2" d="M540.07,541.91c-116.84-40.61-219.02-112.43-297.94-213.09-19.02-25.2-34.4-48.47-50.68-75.23-7.73-12.34-16.79-23.19-25.93-35.46-17.54-23.86-36.26-43.42-55.73-63.64C42.61,88.62-40.04,38.42-129.37,9.12c23.42-26.01,47.51-52.76,70.93-78.77C-16.98-48.46,21.82-24.3,58.01,4.25c23.63,18.59,45.18,37.99,66.14,59.55,27.72,28.99,51.94,58.88,74.23,92.41,11.52,17.1,21.62,34.27,31.06,52.19,16.42,29.59,27.93,60.14,45.02,88.98,21.77,37.1,46.89,70.47,75.5,102.96,2.23,2.01,5.2,4.68,7.43,6.69,51.87,57.47,115.04,100.89,182.67,134.87h0Z"/>
  </g>
  <g>
    <path class="cls-1" d="M538.26,539.85c-105.84-64.01-190.86-155.52-247.12-270.38-13.37-28.61-23.57-54.56-33.93-84.12-4.99-13.68-11.6-26.18-17.99-40.08-12.19-26.99-26.44-50.01-41.28-73.84C145.91-6.97,75.51-73.25-5.78-120.49c28.32-20.57,57.44-41.73,85.76-62.31,36.16,29.35,69.08,61.06,98.55,96.51,19.25,23.09,36.3,46.56,52.31,72,21.08,34.12,38.57,68.39,53.4,105.82,7.71,19.12,14.02,38.02,19.53,57.5,9.91,32.35,14.82,64.63,25.54,96.4,13.58,40.81,31.21,78.68,52.44,116.41,1.76,2.43,4.11,5.66,5.88,8.09,38.79,67,91.55,122.6,150.64,169.91h0Z"/>
    <path class="cls-2" d="M538.26,539.85c-105.84-64.01-190.86-155.52-247.12-270.38-13.37-28.61-23.57-54.56-33.93-84.12-4.99-13.68-11.6-26.18-17.99-40.08-12.19-26.99-26.44-50.01-41.28-73.84C145.91-6.97,75.51-73.25-5.78-120.49c28.32-20.57,57.44-41.73,85.76-62.31,36.16,29.35,69.08,61.06,98.55,96.51,19.25,23.09,36.3,46.56,52.31,72,21.08,34.12,38.57,68.39,53.4,105.82,7.71,19.12,14.02,38.02,19.53,57.5,9.91,32.35,14.82,64.63,25.54,96.4,13.58,40.81,31.21,78.68,52.44,116.41,1.76,2.43,4.11,5.66,5.88,8.09,38.79,67,91.55,122.6,150.64,169.91h0Z"/>
  </g>
  <g>
    <path class="cls-1" d="M536.92,537.45c-90.22-84.62-154.36-191.8-185.51-315.85-7.13-30.76-11.71-58.27-15.69-89.34-2.04-14.42-5.91-28.02-9.27-42.94-6.31-28.93-15.47-54.41-25.03-80.81-34.58-87.5-89.66-166.97-159.36-230.07,31.97-14.24,64.86-28.88,96.84-43.11,29.27,36.23,54.88,74.08,76.33,114.89,14.03,26.59,25.82,53.09,36.2,81.31,13.53,37.76,23.5,74.92,30.23,114.61,3.57,20.3,5.81,40.1,7.15,60.31,2.97,33.71,1.06,66.3,4.94,99.6,4.8,42.74,14.17,83.45,27.09,124.77,1.22,2.74,2.85,6.39,4.07,9.14,24.01,73.6,64.06,138.96,112.02,197.51h0Z"/>
    <path class="cls-2" d="M536.92,537.45c-90.22-84.62-154.36-191.8-185.51-315.85-7.13-30.76-11.71-58.27-15.69-89.34-2.04-14.42-5.91-28.02-9.27-42.94-6.31-28.93-15.47-54.41-25.03-80.81-34.58-87.5-89.66-166.97-159.36-230.07,31.97-14.24,64.86-28.88,96.84-43.11,29.27,36.23,54.88,74.08,76.33,114.89,14.03,26.59,25.82,53.09,36.2,81.31,13.53,37.76,23.5,74.92,30.23,114.61,3.57,20.3,5.81,40.1,7.15,60.31,2.97,33.71,1.06,66.3,4.94,99.6,4.8,42.74,14.17,83.45,27.09,124.77,1.22,2.74,2.85,6.39,4.07,9.14,24.01,73.6,64.06,138.96,112.02,197.51h0Z"/>
  </g>
  <g>
    <path class="cls-1" d="M536.1,534.83c-70.65-101.53-111.11-219.7-115.78-347.52-.58-31.57,.66-59.44,3.22-90.65,1-14.53,.05-28.64-.14-43.93-.16-29.61-3.82-56.44-7.68-84.24-15.63-92.78-52.99-181.96-108.04-258.18,34.24-7.28,69.45-14.76,103.68-22.04,21.09,41.52,38.28,83.88,50.77,128.25,8.19,28.93,14.22,57.29,18.5,87.06,5.38,39.75,7.41,78.17,5.74,118.39-.73,20.6-2.65,40.43-5.55,60.47-4.11,33.59-12.75,65.07-15.88,98.45-4.19,42.81-3.49,84.57,.56,127.67,.62,2.93,1.46,6.85,2.08,9.78,8.18,76.98,33.77,149.24,68.51,216.49h0Z"/>
    <path class="cls-2" d="M536.1,534.83c-70.65-101.53-111.11-219.7-115.78-347.52-.58-31.57,.66-59.44,3.22-90.65,1-14.53,.05-28.64-.14-43.93-.16-29.61-3.82-56.44-7.68-84.24-15.63-92.78-52.99-181.96-108.04-258.18,34.24-7.28,69.45-14.76,103.68-22.04,21.09,41.52,38.28,83.88,50.77,128.25,8.19,28.93,14.22,57.29,18.5,87.06,5.38,39.75,7.41,78.17,5.74,118.39-.73,20.6-2.65,40.43-5.55,60.47-4.11,33.59-12.75,65.07-15.88,98.45-4.19,42.81-3.49,84.57,.56,127.67,.62,2.93,1.46,6.85,2.08,9.78,8.18,76.98,33.77,149.24,68.51,216.49h0Z"/>
  </g>
  <g>
    <path class="cls-1" d="M535.85,532.1c-48-114-63-238-41-364,6-31,13-58,22-88,4-14,6-28,9-43,6-29,8-56,10-84,4-94-14-189-52-275,35,0,71,0,106,0,12,45,20,90,23,136,2,30,2,59,0,89-3,40-9,78-19,117-5,20-11,39-18,58-11,32-26,61-36,93-13,41-21,82-26,125,0,3,0,7,0,10-8,77,2,153,22,226h0Z"/>
    <path class="cls-2" d="M535.85,532.1c-48-114-63-238-41-364,6-31,13-58,22-88,4-14,6-28,9-43,6-29,8-56,10-84,4-94-14-189-52-275,35,0,71,0,106,0,12,45,20,90,23,136,2,30,2,59,0,89-3,40-9,78-19,117-5,20-11,39-18,58-11,32-26,61-36,93-13,41-21,82-26,125,0,3,0,7,0,10-8,77,2,153,22,226h0Z"/>
  </g>
  <g>
    <path class="cls-1" d="M536.17,529.37c-23.25-121.49-12.14-245.9,35.58-364.57,12.31-29.08,24.77-54.03,39.82-81.5,6.82-12.86,11.69-26.14,17.74-40.19,11.9-27.12,19.47-53.11,27.25-80.09,23.46-91.11,25.6-187.78,6.31-279.8,34.24,7.28,69.45,14.76,103.68,22.04,2.38,46.51,.85,92.19-5.78,137.81-4.28,29.76-10.31,58.13-18.5,87.06-11.25,38.5-25.02,74.42-42.91,110.49-9.05,18.52-18.87,35.86-29.67,52.99-17.41,29.01-38.11,54.26-54.55,83.48-21.24,37.4-37.59,75.84-51.42,116.86-.62,2.93-1.46,6.85-2.08,9.78-23.83,73.65-29.85,150.07-25.47,225.64h0Z"/>
    <path class="cls-2" d="M536.17,529.37c-23.25-121.49-12.14-245.9,35.58-364.57,12.31-29.08,24.77-54.03,39.82-81.5,6.82-12.86,11.69-26.14,17.74-40.19,11.9-27.12,19.47-53.11,27.25-80.09,23.46-91.11,25.6-187.78,6.31-279.8,34.24,7.28,69.45,14.76,103.68,22.04,2.38,46.51,.85,92.19-5.78,137.81-4.28,29.76-10.31,58.13-18.5,87.06-11.25,38.5-25.02,74.42-42.91,110.49-9.05,18.52-18.87,35.86-29.67,52.99-17.41,29.01-38.11,54.26-54.55,83.48-21.24,37.4-37.59,75.84-51.42,116.86-.62,2.93-1.46,6.85-2.08,9.78-23.83,73.65-29.85,150.07-25.47,225.64h0Z"/>
  </g>
  <g>
    <path class="cls-1" d="M537.06,526.77c2.52-123.67,39.25-243.05,110.6-349.21,18.09-25.88,35.47-47.7,55.89-71.44,9.35-11.16,16.87-23.14,25.71-35.62,17.28-24.05,30.09-47.9,43.3-72.67,41.89-84.25,64.08-178.35,64.35-272.38,31.97,14.24,64.86,28.88,96.84,43.11-7.34,45.99-18.34,90.35-34.3,133.6-10.38,28.22-22.17,54.71-36.2,81.31-19.01,35.32-39.95,67.6-64.95,99.16-12.7,16.24-25.91,31.15-40.03,45.66-23.06,24.76-48.56,45.15-70.71,70.32-28.55,32.17-52.54,66.37-74.59,103.62-1.22,2.74-2.85,6.39-4.07,9.14-38.63,67.09-60.4,140.59-71.82,215.41h0Z"/>
    <path class="cls-2" d="M537.06,526.77c2.52-123.67,39.25-243.05,110.6-349.21,18.09-25.88,35.47-47.7,55.89-71.44,9.35-11.16,16.87-23.14,25.71-35.62,17.28-24.05,30.09-47.9,43.3-72.67,41.89-84.25,64.08-178.35,64.35-272.38,31.97,14.24,64.86,28.88,96.84,43.11-7.34,45.99-18.34,90.35-34.3,133.6-10.38,28.22-22.17,54.71-36.2,81.31-19.01,35.32-39.95,67.6-64.95,99.16-12.7,16.24-25.91,31.15-40.03,45.66-23.06,24.76-48.56,45.15-70.71,70.32-28.55,32.17-52.54,66.37-74.59,103.62-1.22,2.74-2.85,6.39-4.07,9.14-38.63,67.09-60.4,140.59-71.82,215.41h0Z"/>
  </g>
  <g>
    <path class="cls-1" d="M538.46,524.41c28.17-120.44,88.92-229.58,180.78-318.58,23.08-21.55,44.61-39.28,69.52-58.26,11.47-8.98,21.31-19.13,32.56-29.5,21.9-19.93,39.39-40.6,57.46-62.08,58.49-73.7,99.77-161.13,119.57-253.04,28.32,20.57,57.44,41.73,85.76,62.31-16.74,43.46-36.72,84.57-61.33,123.55-16.02,25.45-33.06,48.91-52.31,72-25.94,30.6-53.13,57.81-84.14,83.49-15.8,13.24-31.82,25.09-48.65,36.34-27.71,19.42-56.89,34.07-83.79,54.08-34.62,25.53-65.19,54-94.51,85.84-1.76,2.43-4.11,5.66-5.88,8.09-51.73,57.59-88.31,124.96-115.04,195.77h0Z"/>
    <path class="cls-2" d="M538.46,524.41c28.17-120.44,88.92-229.58,180.78-318.58,23.08-21.55,44.61-39.28,69.52-58.26,11.47-8.98,21.31-19.13,32.56-29.5,21.9-19.93,39.39-40.6,57.46-62.08,58.49-73.7,99.77-161.13,119.57-253.04,28.32,20.57,57.44,41.73,85.76,62.31-16.74,43.46-36.72,84.57-61.33,123.55-16.02,25.45-33.06,48.91-52.31,72-25.94,30.6-53.13,57.81-84.14,83.49-15.8,13.24-31.82,25.09-48.65,36.34-27.71,19.42-56.89,34.07-83.79,54.08-34.62,25.53-65.19,54-94.51,85.84-1.76,2.43-4.11,5.66-5.88,8.09-51.73,57.59-88.31,124.96-115.04,195.77h0Z"/>
  </g>
  <g>
    <path class="cls-1" d="M540.32,522.4c52.6-111.95,134.71-206.07,243.07-274.03,27.05-16.28,51.8-29.15,80.12-42.53,13.08-6.4,24.82-14.28,37.98-22.08,25.57-14.95,46.97-31.53,69.12-48.78,72.53-59.93,131.09-136.87,169.57-222.65,23.42,26.01,47.51,52.76,70.93,78.77-25.41,39.03-53.5,75.08-85.68,108.09-20.96,21.56-42.51,40.96-66.14,59.55-31.73,24.54-63.99,45.5-99.66,64.17-18.21,9.67-36.34,17.92-55.15,25.43-31.14,13.24-62.73,21.5-93.2,35.48-39.17,17.77-74.99,39.26-110.29,64.32l-7.43,6.69c-62.58,45.58-112.36,103.86-153.23,167.57h0Z"/>
    <path class="cls-2" d="M540.32,522.4c52.6-111.95,134.71-206.07,243.07-274.03,27.05-16.28,51.8-29.15,80.12-42.53,13.08-6.4,24.82-14.28,37.98-22.08,25.57-14.95,46.97-31.53,69.12-48.78,72.53-59.93,131.09-136.87,169.57-222.65,23.42,26.01,47.51,52.76,70.93,78.77-25.41,39.03-53.5,75.08-85.68,108.09-20.96,21.56-42.51,40.96-66.14,59.55-31.73,24.54-63.99,45.5-99.66,64.17-18.21,9.67-36.34,17.92-55.15,25.43-31.14,13.24-62.73,21.5-93.2,35.48-39.17,17.77-74.99,39.26-110.29,64.32l-7.43,6.69c-62.58,45.58-112.36,103.86-153.23,167.57h0Z"/>
  </g>
  <g>
    <path class="cls-1" d="M542.57,520.81c74.73-98.57,174.61-173.56,294.73-217.51,29.85-10.3,56.73-17.74,87.21-24.95,14.12-3.54,27.25-8.8,41.74-13.71,28.11-9.3,52.5-21.07,77.75-33.34,83.41-43.54,156.68-106.62,212.16-182.53,17.5,30.31,35.5,61.49,53,91.8-32.97,32.89-67.94,62.32-106.28,87.92-24.98,16.73-50.1,31.23-77.08,44.5-36.14,17.4-72.05,31.21-110.82,42.05-19.82,5.67-39.27,9.97-59.23,13.41-33.21,6.47-65.83,7.98-98.54,15.32-42.01,9.24-81.51,22.81-121.25,39.98-2.6,1.5-6.06,3.5-8.66,5-70.68,31.57-131.5,78.23-184.72,132.05h0Z"/>
    <path class="cls-2" d="M542.57,520.81c74.73-98.57,174.61-173.56,294.73-217.51,29.85-10.3,56.73-17.74,87.21-24.95,14.12-3.54,27.25-8.8,41.74-13.71,28.11-9.3,52.5-21.07,77.75-33.34,83.41-43.54,156.68-106.62,212.16-182.53,17.5,30.31,35.5,61.49,53,91.8-32.97,32.89-67.94,62.32-106.28,87.92-24.98,16.73-50.1,31.23-77.08,44.5-36.14,17.4-72.05,31.21-110.82,42.05-19.82,5.67-39.27,9.97-59.23,13.41-33.21,6.47-65.83,7.98-98.54,15.32-42.01,9.24-81.51,22.81-121.25,39.98-2.6,1.5-6.06,3.5-8.66,5-70.68,31.57-131.5,78.23-184.72,132.05h0Z"/>
  </g>
  <g>
    <path class="cls-1" d="M545.09,519.73c93.59-80.88,206.88-133.46,333.51-151.48,31.34-3.87,59.18-5.56,90.49-6.27,14.55-.52,28.48-2.95,43.68-4.73,29.43-3.26,55.73-9.7,82.98-16.45,90.64-25.24,175.42-71.72,245.47-134.43,10.82,33.29,21.94,67.53,32.76,100.81-39.09,25.32-79.41,46.83-122.24,63.9-27.91,11.17-55.49,20.13-84.64,27.5-38.97,9.51-76.96,15.54-117.14,18.08-20.57,1.43-40.49,1.59-60.72,.8-33.83-.57-66.05-5.88-99.57-5.5-43.01,.31-84.48,5.37-126.92,13.9-2.85,.93-6.66,2.16-9.51,3.09-75.7,16.19-144.89,49.18-208.14,90.76h0Z"/>
    <path class="cls-2" d="M545.09,519.73c93.59-80.88,206.88-133.46,333.51-151.48,31.34-3.87,59.18-5.56,90.49-6.27,14.55-.52,28.48-2.95,43.68-4.73,29.43-3.26,55.73-9.7,82.98-16.45,90.64-25.24,175.42-71.72,245.47-134.43,10.82,33.29,21.94,67.53,32.76,100.81-39.09,25.32-79.41,46.83-122.24,63.9-27.91,11.17-55.49,20.13-84.64,27.5-38.97,9.51-76.96,15.54-117.14,18.08-20.57,1.43-40.49,1.59-60.72,.8-33.83-.57-66.05-5.88-99.57-5.5-43.01,.31-84.48,5.37-126.92,13.9-2.85,.93-6.66,2.16-9.51,3.09-75.7,16.19-144.89,49.18-208.14,90.76h0Z"/>
  </g>
  <g>
    <path class="cls-1" d="M547.78,519.19c108.36-59.65,230.11-87.53,357.72-78.82,31.46,2.73,59.04,6.87,89.82,12.68,14.34,2.51,28.47,3.04,43.71,4.46,29.47,2.94,56.53,2.1,84.59,1.16,93.9-5.85,186.5-33.68,268.06-80.46,3.66,34.81,7.42,70.61,11.08,105.42-43.5,16.64-87.42,29.3-132.85,37.09-29.63,5.12-58.47,8.16-88.51,9.3-40.09,1.2-78.51-.8-118.35-6.67-20.41-2.88-39.94-6.86-59.56-11.84-32.97-7.59-63.38-19.48-96.25-26.08-42.13-8.64-83.75-12.31-127.03-12.79-2.98,.31-6.96,.73-9.95,1.05-77.41,.09-151.95,17.98-222.46,45.5h0Z"/>
    <path class="cls-2" d="M547.78,519.19c108.36-59.65,230.11-87.53,357.72-78.82,31.46,2.73,59.04,6.87,89.82,12.68,14.34,2.51,28.47,3.04,43.71,4.46,29.47,2.94,56.53,2.1,84.59,1.16,93.9-5.85,186.5-33.68,268.06-80.46,3.66,34.81,7.42,70.61,11.08,105.42-43.5,16.64-87.42,29.3-132.85,37.09-29.63,5.12-58.47,8.16-88.51,9.3-40.09,1.2-78.51-.8-118.35-6.67-20.41-2.88-39.94-6.86-59.56-11.84-32.97-7.59-63.38-19.48-96.25-26.08-42.13-8.64-83.75-12.31-127.03-12.79-2.98,.31-6.96,.73-9.95,1.05-77.41,.09-151.95,17.98-222.46,45.5h0Z"/>
  </g>
  <g>
    <path class="cls-1" d="M550.53,519.23c118.39-35.82,243.28-37.78,366.29-2.73,30.2,9.21,56.32,18.99,85.22,31.08,13.51,5.44,27.22,8.89,41.82,13.45,28.21,9,54.86,13.81,82.49,18.73,93.07,13.8,189.43,5.83,278.93-22.97-3.66,34.81-7.42,70.61-11.08,105.42-46.01,7.23-91.6,10.48-137.66,8.66-30.04-1.15-58.89-4.18-88.51-9.3-39.47-7.16-76.63-17.1-114.37-31.13-19.37-7.06-37.64-15.02-55.8-23.96-30.67-14.28-57.95-32.23-88.73-45.52-39.42-17.21-79.36-29.46-121.6-38.92-2.98-.31-6.96-.73-9.95-1.05-75.74-16-152.37-14-227.06-1.74h0Z"/>
    <path class="cls-2" d="M550.53,519.23c118.39-35.82,243.28-37.78,366.29-2.73,30.2,9.21,56.32,18.99,85.22,31.08,13.51,5.44,27.22,8.89,41.82,13.45,28.21,9,54.86,13.81,82.49,18.73,93.07,13.8,189.43,5.83,278.93-22.97-3.66,34.81-7.42,70.61-11.08,105.42-46.01,7.23-91.6,10.48-137.66,8.66-30.04-1.15-58.89-4.18-88.51-9.3-39.47-7.16-76.63-17.1-114.37-31.13-19.37-7.06-37.64-15.02-55.8-23.96-30.67-14.28-57.95-32.23-88.73-45.52-39.42-17.21-79.36-29.46-121.6-38.92-2.98-.31-6.96-.73-9.95-1.05-75.74-16-152.37-14-227.06-1.74h0Z"/>
  </g>
  <g>
    <path class="cls-1" d="M553.2,519.84c123.25-10.42,245.82,13.63,358.85,73.49,27.63,15.29,51.14,30.29,76.89,48.12,12.08,8.13,24.78,14.36,38.11,21.85,25.73,14.67,50.79,24.91,76.8,35.47,88.16,32.85,184.08,45.09,277.61,35.52-10.82,33.29-21.94,67.53-32.76,100.81-46.51-2.49-91.78-8.79-136.45-20.15-29.15-7.37-56.73-16.33-84.64-27.5-37.12-15.21-71.4-32.66-105.4-54.23-17.48-10.94-33.69-22.51-49.6-35.04-27.03-20.35-49.98-43.58-77.32-62.98-34.98-25.03-71.5-45.31-110.85-63.35-2.85-.93-6.66-2.16-9.51-3.09-70.76-31.4-146.13-45.38-221.74-48.91h0Z"/>
    <path class="cls-2" d="M553.2,519.84c123.25-10.42,245.82,13.63,358.85,73.49,27.63,15.29,51.14,30.29,76.89,48.12,12.08,8.13,24.78,14.36,38.11,21.85,25.73,14.67,50.79,24.91,76.8,35.47,88.16,32.85,184.08,45.09,277.61,35.52-10.82,33.29-21.94,67.53-32.76,100.81-46.51-2.49-91.78-8.79-136.45-20.15-29.15-7.37-56.73-16.33-84.64-27.5-37.12-15.21-71.4-32.66-105.4-54.23-17.48-10.94-33.69-22.51-49.6-35.04-27.03-20.35-49.98-43.58-77.32-62.98-34.98-25.03-71.5-45.31-110.85-63.35-2.85-.93-6.66-2.16-9.51-3.09-70.76-31.4-146.13-45.38-221.74-48.91h0Z"/>
  </g>
  <g>
    <path class="cls-1" d="M555.7,520.99c122.73,15.43,237.61,64.44,335.73,146.49,23.85,20.7,43.73,40.26,65.21,63.05,10.12,10.46,21.25,19.2,32.74,29.29,22.11,19.7,44.5,34.93,67.75,50.66,79.41,50.46,170.68,82.38,264.16,92.47-17.5,30.31-35.5,61.49-53,91.8-44.97-12.11-87.94-27.68-129.28-48.08-26.98-13.27-52.1-27.77-77.08-44.5-33.14-22.6-63.05-46.79-91.82-74.95-14.82-14.33-28.27-29.03-41.23-44.59-22.21-25.53-39.83-53.02-62.54-77.68-29.01-31.76-60.51-59.19-95.25-85.02l-8.66-5c-62.68-45.43-133.5-74.77-206.72-93.95h0Z"/>
    <path class="cls-2" d="M555.7,520.99c122.73,15.43,237.61,64.44,335.73,146.49,23.85,20.7,43.73,40.26,65.21,63.05,10.12,10.46,21.25,19.2,32.74,29.29,22.11,19.7,44.5,34.93,67.75,50.66,79.41,50.46,170.68,82.38,264.16,92.47-17.5,30.31-35.5,61.49-53,91.8-44.97-12.11-87.94-27.68-129.28-48.08-26.98-13.27-52.1-27.77-77.08-44.5-33.14-22.6-63.05-46.79-91.82-74.95-14.82-14.33-28.27-29.03-41.23-44.59-22.21-25.53-39.83-53.02-62.54-77.68-29.01-31.76-60.51-59.19-95.25-85.02l-8.66-5c-62.68-45.43-133.5-74.77-206.72-93.95h0Z"/>
  </g>
  <g>
    <path class="cls-1" d="M557.9,522.63c116.84,40.61,219.02,112.43,297.94,213.09,19.02,25.2,34.4,48.47,50.68,75.23,7.73,12.34,16.79,23.19,25.93,35.46,17.54,23.86,36.26,43.42,55.73,63.64,67.18,65.87,149.82,116.06,239.16,145.37-23.42,26.01-47.51,52.76-70.93,78.77-41.47-21.19-80.27-45.36-116.46-73.91-23.63-18.59-45.18-37.99-66.14-59.55-27.72-28.99-51.94-58.88-74.23-92.41-11.52-17.1-21.62-34.27-31.06-52.19-16.42-29.59-27.93-60.14-45.02-88.98-21.77-37.1-46.89-70.47-75.5-102.96-2.23-2.01-5.2-4.68-7.43-6.69-51.87-57.47-115.04-100.89-182.67-134.87h0Z"/>
    <path class="cls-2" d="M557.9,522.63c116.84,40.61,219.02,112.43,297.94,213.09,19.02,25.2,34.4,48.47,50.68,75.23,7.73,12.34,16.79,23.19,25.93,35.46,17.54,23.86,36.26,43.42,55.73,63.64,67.18,65.87,149.82,116.06,239.16,145.37-23.42,26.01-47.51,52.76-70.93,78.77-41.47-21.19-80.27-45.36-116.46-73.91-23.63-18.59-45.18-37.99-66.14-59.55-27.72-28.99-51.94-58.88-74.23-92.41-11.52-17.1-21.62-34.27-31.06-52.19-16.42-29.59-27.93-60.14-45.02-88.98-21.77-37.1-46.89-70.47-75.5-102.96-2.23-2.01-5.2-4.68-7.43-6.69-51.87-57.47-115.04-100.89-182.67-134.87h0Z"/>
  </g>
  <g>
    <path class="cls-1" d="M559.71,524.69c105.84,64.01,190.86,155.52,247.12,270.38,13.37,28.61,23.57,54.56,33.93,84.12,4.99,13.68,11.6,26.18,17.99,40.08,12.19,26.99,26.44,50.01,41.28,73.84,52.02,78.4,122.42,144.68,203.71,191.91-28.32,20.57-57.44,41.73-85.76,62.31-36.16-29.35-69.08-61.06-98.55-96.51-19.25-23.09-36.3-46.56-52.31-72-21.08-34.12-38.57-68.39-53.4-105.82-7.71-19.12-14.02-38.02-19.53-57.5-9.91-32.35-14.82-64.63-25.54-96.4-13.58-40.81-31.21-78.68-52.44-116.41l-5.88-8.09c-38.79-67-91.55-122.6-150.64-169.91h0Z"/>
    <path class="cls-2" d="M559.71,524.69c105.84,64.01,190.86,155.52,247.12,270.38,13.37,28.61,23.57,54.56,33.93,84.12,4.99,13.68,11.6,26.18,17.99,40.08,12.19,26.99,26.44,50.01,41.28,73.84,52.02,78.4,122.42,144.68,203.71,191.91-28.32,20.57-57.44,41.73-85.76,62.31-36.16-29.35-69.08-61.06-98.55-96.51-19.25-23.09-36.3-46.56-52.31-72-21.08-34.12-38.57-68.39-53.4-105.82-7.71-19.12-14.02-38.02-19.53-57.5-9.91-32.35-14.82-64.63-25.54-96.4-13.58-40.81-31.21-78.68-52.44-116.41l-5.88-8.09c-38.79-67-91.55-122.6-150.64-169.91h0Z"/>
  </g>
  <g>
    <path class="cls-1" d="M561.05,527.09c90.22,84.62,154.36,191.8,185.51,315.85,7.13,30.76,11.71,58.27,15.69,89.34,2.04,14.42,5.91,28.02,9.27,42.94,6.31,28.93,15.47,54.41,25.03,80.81,34.58,87.5,89.66,166.97,159.36,230.07-31.97,14.24-64.86,28.88-96.84,43.11-29.27-36.23-54.88-74.08-76.33-114.89-14.03-26.59-25.82-53.09-36.2-81.31-13.53-37.76-23.5-74.92-30.23-114.61-3.57-20.3-5.81-40.1-7.15-60.31-2.97-33.71-1.06-66.3-4.94-99.6-4.8-42.74-14.17-83.45-27.09-124.77l-4.07-9.14c-24.01-73.6-64.06-138.96-112.02-197.51h0Z"/>
    <path class="cls-2" d="M561.05,527.09c90.22,84.62,154.36,191.8,185.51,315.85,7.13,30.76,11.71,58.27,15.69,89.34,2.04,14.42,5.91,28.02,9.27,42.94,6.31,28.93,15.47,54.41,25.03,80.81,34.58,87.5,89.66,166.97,159.36,230.07-31.97,14.24-64.86,28.88-96.84,43.11-29.27-36.23-54.88-74.08-76.33-114.89-14.03-26.59-25.82-53.09-36.2-81.31-13.53-37.76-23.5-74.92-30.23-114.61-3.57-20.3-5.81-40.1-7.15-60.31-2.97-33.71-1.06-66.3-4.94-99.6-4.8-42.74-14.17-83.45-27.09-124.77l-4.07-9.14c-24.01-73.6-64.06-138.96-112.02-197.51h0Z"/>
  </g>
  <g>
    <path class="cls-1" d="M561.86,529.71c70.65,101.53,111.11,219.7,115.78,347.52,.58,31.57-.66,59.44-3.22,90.65-1,14.53-.05,28.64,.14,43.93,.16,29.61,3.82,56.44,7.68,84.24,15.63,92.78,52.99,181.96,108.04,258.18-34.24,7.28-69.45,14.76-103.68,22.04-21.09-41.52-38.28-83.88-50.77-128.25-8.19-28.93-14.22-57.29-18.5-87.06-5.38-39.75-7.41-78.17-5.74-118.39,.73-20.6,2.65-40.43,5.55-60.47,4.11-33.59,12.75-65.07,15.88-98.45,4.19-42.81,3.49-84.57-.56-127.67l-2.08-9.78c-8.18-76.98-33.77-149.24-68.51-216.49h0Z"/>
    <path class="cls-2" d="M561.86,529.71c70.65,101.53,111.11,219.7,115.78,347.52,.58,31.57-.66,59.44-3.22,90.65-1,14.53-.05,28.64,.14,43.93,.16,29.61,3.82,56.44,7.68,84.24,15.63,92.78,52.99,181.96,108.04,258.18-34.24,7.28-69.45,14.76-103.68,22.04-21.09-41.52-38.28-83.88-50.77-128.25-8.19-28.93-14.22-57.29-18.5-87.06-5.38-39.75-7.41-78.17-5.74-118.39,.73-20.6,2.65-40.43,5.55-60.47,4.11-33.59,12.75-65.07,15.88-98.45,4.19-42.81,3.49-84.57-.56-127.67l-2.08-9.78c-8.18-76.98-33.77-149.24-68.51-216.49h0Z"/>
  </g>
  <g>
    <path class="cls-1" d="M562.11,532.44c48,114,63,238,41,364-6,31-13,58-22,88-4,14-6,28-9,43-6,29-8,56-10,84-4,94,14,189,52,275h-106c-12-45-20-90-23-136-2-30-2-59,0-89,3-40,9-78,19-117,5-20,11-39,18-58,11-32,26-61,36-93,13-41,21-82,26-125v-10c8-77-2-153-22-226h0Z"/>
    <path class="cls-2" d="M562.11,532.44c48,114,63,238,41,364-6,31-13,58-22,88-4,14-6,28-9,43-6,29-8,56-10,84-4,94,14,189,52,275h-106c-12-45-20-90-23-136-2-30-2-59,0-89,3-40,9-78,19-117,5-20,11-39,18-58,11-32,26-61,36-93,13-41,21-82,26-125v-10c8-77-2-153-22-226h0Z"/>
  </g>
</svg>