<?xml version="1.0" encoding="utf-8"?>
<!-- Generator: Adobe Illustrator 27.8.1, SVG Export Plug-In . SVG Version: 6.00 Build 0)  -->
<svg version="1.1" id="Layer_1" xmlns="http://www.w3.org/2000/svg" xmlns:xlink="http://www.w3.org/1999/xlink" x="0px" y="0px"
	 viewBox="0 0 1000 450" style="enable-background:new 0 0 1000 450;" xml:space="preserve">
<style type="text/css">
	.st0{fill:#FFFFFF;}
</style>
<path class="st0" d="M947.1,0c0,0-34.6,0-50,0v0c0,0-38.7,0-46.7,0H402.8H304h-17.6h-68.5c-2.8,0-5.6,0-8.4,0
	c-25.8,0-72.1,0-106.5,0c-9.2,0-17.5,0-24.4,0C62.7,0,52.9,0,52.9,0C53.6,28.8,29.3,55.8,0,55.3v24.2h0v5.1
	c28.2,0.6,28.2,44.3,0,44.8v12.8c28.2,0.3,28.1,44.6,0,44.8v12.8c28.2,0.6,28.2,44.3,0,44.8v12.8c28.2,0.6,28.2,44.3,0,44.8v12.8
	c13.1,0.3,20.1,9.8,21.1,20l-0.2,6.3c-1.5,9.6-8.4,18.3-20.9,18.6v5.7v7.1v21.7c29.3-0.5,53.6,26.5,52.9,55.3c0,0,20.5,0,50,0
	c13.9,0,29.9,0,46.7,0c75.3,0,167,0,167,0h142.9c35.8,0,85,0,137.6,0c38.4,0,78.5,0,116.5,0c24,0,47.2,0,68.5,0c2.8,0,5.6,0,8.4,0
	c62.2,0,106.5,0,106.5,0c9.2,0,17.5,0,24.4,0c15.8,0,25.6,0,25.6,0c-0.7-28.8,23.7-55.8,52.9-55.3v-24.2h0v-5.1
	c-28.2-0.6-28.2-44.3,0-44.8v-12.8c-28.2-0.3-28.1-44.6,0-44.8v-12.8c-28.2-0.6-28.2-44.3,0-44.8v-12.8c-28.2-0.6-28.2-44.3,0-44.8
	v-12.8c-13.1-0.3-20.1-9.8-21.1-20l0.2-6.3c1.5-9.6,8.4-18.3,20.9-18.6v-5.7v-7.1V55.3C970.7,55.8,946.4,28.8,947.1,0z"/>
</svg>
