<svg version="1.1" id="Layer_1"
  xmlns="http://www.w3.org/2000/svg"
  xmlns:xlink="http://www.w3.org/1999/xlink" x="0px" y="0px" viewBox="0 0 1000 450" style="enable-background:new 0 0 1000 450;" xml:space="preserve" fill="none">
  <g clip-path="url(#clip0_234_451)">
    <path d="M947.2 0C947.2 0 912.6 0 897.2 0C897.2 0 858.5 0 850.5 0H402.9H304.1H286.5H218C215.2 0 212.4 0 209.6 0C183.8 0 137.5 0 103.1 0C93.9 0 85.6 0 78.7 0C62.8 0 53 0 53 0C53.7 28.8 29.4 55.5 0.0999756 55V81.5V87C28.3 87.6 28.3 130.5 0.0999756 131V144C28.3 144.3 28.2 188.8 0.0999756 189V202C28.3 202.6 28.3 246.5 0.0999756 247V260C28.3 260.6 28.3 303.5 0.0999756 304V317C13.2 317.3 20.2 326.8 21.2 337L21 343.3C19.5 352.9 12.6 361.7 0.0999756 362V367.6V374.7V394C29.4 393.5 53.7 420.9 53 449.7C53 449.7 73.5 449.7 103 449.7C116.9 449.7 132.9 449.7 149.7 449.7C225 449.7 316.7 449.7 316.7 449.7H459.6C495.4 449.7 544.6 449.7 597.2 449.7C635.6 449.7 675.7 449.7 713.7 449.7C737.7 449.7 760.9 449.7 782.2 449.7C785 449.7 787.8 449.7 790.6 449.7C852.8 449.7 897.1 449.7 897.1 449.7C906.3 449.7 914.6 449.7 921.5 449.7C937.3 449.7 947.1 449.7 947.1 449.7C946.4 420.9 970.8 393.5 1000 394V367.2V362C971.8 361.4 971.8 317.5 1000 317V304C971.8 303.7 971.9 260.2 1000 260V247C971.8 246.4 971.8 202.5 1000 202V189C971.8 188.4 971.8 144.5 1000 144V131C986.9 130.7 979.9 121.9 978.9 111.7L979.1 105.4C980.6 95.8 987.5 87.3 1000 87C1000 87 1000 83.326 1000 81.1C1000 78.3273 1000 74 1000 74V55C970.8 55.5 946.5 28.8 947.2 0Z" fill="#4491DA"/>
    <rect x="79" y="42" width="841" height="366" rx="56" fill="#FFFFFF" stroke="#023AD3" stroke-opacity="0.4" stroke-width="16"/>
    <line x1="279" y1="50" x2="279" y2="400" stroke="#023AD3" stroke-opacity="0.4" stroke-width="16"/>
    <line x1="719" y1="50" x2="719" y2="400" stroke="#023AD3" stroke-opacity="0.4" stroke-width="16"/>
  </g>
  <defs>
    <clipPath id="clip0_234_451">
      <rect width="1000" height="450" fill="white"/>
    </clipPath>
  </defs>
</svg>
