<svg xmlns="http://www.w3.org/2000/svg" version="1.1" xmlns:xlink="http://www.w3.org/1999/xlink" xmlns:svgjs="http://svgjs.com/svgjs" width="325" height="325"><svg width="325" height="325" viewBox="0 0 325 325" fill="none" xmlns="http://www.w3.org/2000/svg">
<circle cx="162.5" cy="161.5" r="147.5" fill="#9CC4B9"></circle>
<circle cx="162.5" cy="162.5" r="160.5" stroke="#9CC4B9" stroke-width="4"></circle>
<path d="M141.08 243.36C141.08 244.064 140.888 244.064 140.888 244.704C140.888 245.408 140.824 245.408 140.824 246.112C140.824 246.816 141.08 246.816 141.08 247.52V248.928C141.08 249.632 141.08 249.632 141.08 250.336C141.08 251.04 141.016 251.04 141.016 251.744C141.016 252.384 141.08 252.384 141.08 253.088C141.08 253.792 140.952 253.792 140.952 254.496C140.952 255.2 140.888 255.2 140.888 255.904V257.312C140.888 258.016 141.016 258.016 141.016 258.72C141.016 259.424 140.952 259.424 140.952 260.064C140.952 260.576 141.08 261.024 141.016 261.472C141.016 261.92 140.952 262.432 140.824 262.816C140.76 263.264 140.376 263.648 140.184 264.032C140.056 264.48 139.864 264.928 139.608 265.248C139.416 265.696 139.224 266.144 138.904 266.464C138.584 266.784 138.136 266.976 137.816 267.232C137.432 267.488 137.048 267.808 136.664 268C136.216 268.192 135.768 268.256 135.32 268.384C134.872 268.512 134.424 268.384 133.976 268.448C133.528 268.512 133.08 268.64 132.632 268.64C132.184 268.64 131.672 268.704 131.224 268.64C130.776 268.64 130.392 268.32 129.944 268.192C129.496 268.064 128.984 268.192 128.6 268C128.216 267.808 127.896 267.36 127.512 267.104C127.192 266.848 126.744 266.656 126.424 266.336C126.104 266.016 125.976 265.632 125.72 265.184C125.464 264.864 125.08 264.544 124.888 264.096C124.696 263.712 124.632 263.264 124.504 262.816C124.44 262.368 124.44 261.92 124.376 261.472C124.312 261.024 124.44 260.576 124.44 260.064C124.44 259.424 124.12 259.424 124.12 258.72C124.12 258.016 124.184 258.016 124.184 257.312C124.184 256.608 124.312 256.608 124.312 255.904C124.312 255.2 124.376 255.2 124.376 254.496C124.376 253.792 124.248 253.792 124.248 253.088C124.248 252.384 124.12 252.384 124.12 251.68C124.12 250.976 124.376 250.976 124.376 250.272C124.376 249.568 124.312 249.568 124.312 248.928C124.312 248.224 124.248 248.224 124.248 247.52C124.248 246.816 124.184 246.816 124.184 246.112C124.184 245.408 124.248 245.408 124.248 244.704C124.248 244 124.376 244 124.376 243.296C124.376 242.592 124.312 242.592 124.312 241.888V240.48C124.312 239.84 124.184 239.84 124.184 239.136V237.728C124.184 237.024 124.12 237.024 124.12 236.32C124.12 235.616 124.248 235.616 124.248 234.912V233.504C124.248 232.8 124.184 232.8 124.184 232.16C124.184 231.456 124.248 231.456 124.248 230.752C124.248 230.048 124.376 230.048 124.376 229.344C124.376 228.64 124.184 228.64 124.184 227.936C124.184 227.232 124.312 227.232 124.312 226.528C124.312 225.824 124.12 225.824 124.12 225.12C124.12 224.416 124.184 224.416 124.184 223.776C124.184 223.2 124.824 223.136 124.952 223.136C125.656 223.136 125.656 223.008 126.296 223.008C127 223.008 127 223.136 127.704 223.136C128.344 223.136 128.344 223.2 129.048 223.2C129.432 223.2 129.688 223.392 129.688 223.776C129.688 224.416 129.88 224.416 129.88 225.12C129.88 225.824 129.688 225.824 129.688 226.528C129.688 227.232 129.624 227.232 129.624 227.936C129.624 228.64 129.688 228.64 129.688 229.344C129.688 230.048 129.752 230.048 129.752 230.688V232.096C129.752 232.8 129.624 232.8 129.624 233.504C129.624 234.208 129.688 234.208 129.688 234.912C129.688 235.616 129.624 235.616 129.624 236.256C129.624 236.96 129.688 236.96 129.688 237.664C129.688 238.368 129.624 238.368 129.624 239.072V240.48C129.624 241.12 129.688 241.12 129.688 241.824C129.688 242.528 129.624 242.528 129.624 243.232V244.64C129.624 245.344 129.816 245.344 129.816 245.984C129.816 246.688 129.752 246.688 129.752 247.392C129.752 248.096 129.688 248.096 129.688 248.8C129.688 249.504 129.624 249.504 129.624 250.208C129.624 250.848 129.752 250.848 129.752 251.552C129.752 252.256 129.816 252.256 129.816 252.96C129.816 253.664 129.624 253.664 129.624 254.368C129.624 255.008 129.944 255.008 129.944 255.712C129.944 256.416 129.816 256.416 129.816 257.12C129.816 257.824 129.624 257.824 129.624 258.528C129.624 259.232 129.688 259.232 129.688 259.872C129.688 260.448 129.752 261.024 129.944 261.536C130.136 261.984 130.52 262.368 131.032 262.624C131.416 262.88 131.928 262.816 132.632 262.816C133.272 262.816 133.72 262.752 134.104 262.56C134.68 262.24 135.128 261.984 135.32 261.536C135.512 261.024 135.576 260.448 135.576 259.872V258.528C135.576 257.824 135.448 257.824 135.448 257.12C135.448 256.416 135.512 256.416 135.512 255.712C135.512 255.008 135.32 255.008 135.32 254.304C135.32 253.6 135.512 253.6 135.512 252.96C135.512 252.256 135.32 252.256 135.32 251.552C135.32 250.848 135.576 250.848 135.576 250.144V248.736C135.576 248.096 135.512 248.096 135.512 247.392C135.512 246.688 135.448 246.688 135.448 245.984C135.448 245.28 135.576 245.28 135.576 244.576C135.576 243.872 135.448 243.872 135.448 243.232V241.824C135.448 241.12 135.384 241.12 135.384 240.416C135.384 239.712 135.32 239.712 135.32 239.008C135.32 238.304 135.384 238.304 135.384 237.664C135.384 236.96 135.512 236.96 135.512 236.256C135.512 235.552 135.576 235.552 135.576 234.848C135.576 234.144 135.384 234.144 135.384 233.504C135.384 232.8 135.448 232.8 135.448 232.096C135.448 231.392 135.384 231.392 135.384 230.688C135.384 229.984 135.448 229.984 135.448 229.28V227.936C135.448 227.232 135.448 227.232 135.448 226.528C135.448 225.824 135.384 225.824 135.384 225.12C135.384 224.416 135.448 224.416 135.448 223.776C135.448 223.2 136.088 223.136 136.216 223.136C136.856 223.136 136.856 223.2 137.56 223.2C138.2 223.2 138.2 223.072 138.904 223.072C139.608 223.072 139.608 223.008 140.248 223.008C140.632 223.008 140.888 223.392 140.888 223.776C140.888 224.48 141.08 224.48 141.08 225.12C141.08 225.824 140.888 225.824 140.888 226.528C140.888 227.232 140.952 227.232 140.952 227.936C140.952 228.64 141.144 228.64 141.144 229.344C141.144 230.048 140.952 230.048 140.952 230.752C140.952 231.456 140.888 231.456 140.888 232.16C140.888 232.864 141.016 232.864 141.016 233.568C141.016 234.272 140.888 234.272 140.888 234.976C140.888 235.616 141.016 235.616 141.016 236.32C141.016 237.024 140.824 237.024 140.824 237.728V239.136C140.824 239.84 140.888 239.84 140.888 240.544V241.952C140.888 242.656 141.08 242.656 141.08 243.36ZM128.152 226.592C128.216 226.464 128.28 226.4 128.216 226.208C128.216 226.272 128.088 226.272 128.024 226.272C128.024 226.4 128.088 226.464 128.152 226.592ZM138.264 226.4C138.2 226.464 138.264 226.528 138.264 226.592V226.72C138.264 226.976 138.264 227.04 138.456 227.04C138.648 227.104 138.712 227.168 138.84 227.296C138.776 227.36 138.712 227.36 138.712 227.36C138.712 227.424 138.776 227.424 138.84 227.424L138.776 227.36L138.84 227.296L138.904 227.36C138.968 227.488 139.096 227.488 139.224 227.424C139.288 227.232 139.288 227.04 139.352 226.848C139.416 226.656 139.416 226.656 139.288 226.592C139.224 226.528 139.224 226.464 139.16 226.464L138.712 226.4C138.52 226.4 138.392 226.464 138.264 226.4ZM137.176 226.784C137.368 226.784 137.56 226.784 137.816 226.72C137.816 226.656 137.816 226.592 137.752 226.592C137.56 226.592 137.368 226.464 137.176 226.464V226.592C137.176 226.72 137.048 226.72 137.176 226.784ZM126.488 227.04L126.424 226.976L126.488 227.04ZM138.52 228C138.584 228 138.52 228 138.584 227.936C138.648 227.872 138.712 227.808 138.712 227.68C138.712 227.616 138.776 227.552 138.776 227.552C138.712 227.424 138.584 227.296 138.456 227.36C138.328 227.424 138.392 227.68 138.392 227.872C138.392 227.936 138.456 227.936 138.52 228ZM126.04 228.064C125.976 228.128 125.912 228.128 125.976 228.256C126.104 228.384 126.168 228.512 126.296 228.576C126.36 228.64 126.424 228.64 126.488 228.64C126.616 228.64 126.552 228.576 126.488 228.448C126.424 228.32 126.552 228.128 126.616 228.064L126.872 227.872C126.808 227.744 126.616 227.552 126.552 227.68C126.36 227.808 126.296 227.936 126.104 227.936C126.04 227.936 126.104 228.064 126.04 228.064ZM139.096 228.064C138.84 228.256 138.712 228.512 138.712 228.768C138.712 228.832 138.968 228.896 138.968 228.832C139.032 228.704 139.032 228.576 139.096 228.448V228.064ZM139.48 228.32C139.48 228.384 139.416 228.448 139.352 228.448V228.512C139.416 228.448 139.544 228.448 139.48 228.32ZM137.752 228.704C137.752 228.64 137.816 228.64 137.816 228.512C137.624 228.576 137.432 228.64 137.304 228.64C137.24 228.64 137.24 228.704 137.24 228.704C137.176 229.216 137.176 229.216 137.176 229.664H137.24C137.24 229.664 137.368 229.6 137.368 229.536C137.432 229.344 137.432 229.152 137.56 229.024C137.624 228.96 137.688 228.832 137.752 228.704ZM128.088 228.896C128.024 228.832 128.024 228.704 127.96 228.768C127.96 228.896 127.96 229.024 128.088 229.088L128.152 228.96C128.152 228.896 128.088 228.896 128.088 228.896ZM128.088 230.24C128.152 230.24 128.216 230.24 128.216 230.112C128.216 230.048 128.152 229.92 128.088 229.792C128.024 229.92 127.96 230.048 127.96 230.112C127.96 230.176 128.024 230.176 128.088 230.24ZM125.976 230.112C125.976 230.24 125.912 230.176 125.976 230.304C126.04 230.304 126.104 230.304 126.168 230.24C126.168 230.176 126.04 230.112 125.976 230.112ZM126.104 231.008C126.104 230.944 126.168 231.008 126.232 230.944L126.168 230.688C126.104 230.752 126.104 230.88 126.04 230.944C126.04 231.008 126.104 230.944 126.104 231.008ZM138.648 231.584C138.584 231.84 138.776 231.904 138.84 232.032L138.904 232.096C138.904 232.032 139.032 231.968 138.968 231.904C138.968 231.776 138.776 231.648 138.648 231.584ZM137.24 233.376C137.304 233.44 137.24 233.44 137.24 233.44C137.304 233.44 137.432 233.376 137.432 233.312C137.432 233.312 137.304 233.248 137.304 233.312C137.24 233.312 137.304 233.376 137.24 233.376ZM139.096 234.464C139.096 234.528 139.224 234.528 139.288 234.528C139.352 234.592 139.288 234.528 139.352 234.528C139.416 234.4 139.48 234.4 139.416 234.336H139.288C139.224 234.336 139.096 234.4 139.096 234.464ZM126.36 234.784C126.424 234.464 126.488 234.464 126.296 234.4C126.296 234.592 126.232 234.656 126.36 234.784ZM125.976 234.912C126.04 234.912 126.168 234.848 126.168 234.784C126.168 234.656 126.04 234.592 125.976 234.528C125.976 234.72 125.912 234.72 125.976 234.912ZM137.624 234.976C137.752 234.976 137.688 234.912 137.752 234.848C137.752 234.72 137.752 234.784 137.624 234.784H137.496L137.432 234.848V235.04C137.496 235.04 137.624 234.976 137.624 234.976ZM138.072 234.848C138.008 234.848 138.072 234.912 138.008 234.912C138.008 234.912 138.072 234.976 138.072 235.04V234.848ZM127.96 235.488C128.024 235.488 128.024 235.488 127.96 235.36C127.896 235.36 127.896 235.296 127.896 235.232C127.768 235.168 127.64 235.104 127.512 234.976C127.32 235.104 127 235.168 126.936 235.552C127.064 235.68 127.32 235.808 127.512 235.744L127.96 235.488ZM126.104 235.36C126.104 235.36 126.168 235.36 126.168 235.296H126.04L126.104 235.36ZM125.976 236.832C125.976 237.024 125.784 237.024 125.912 237.216C126.04 237.216 126.168 237.216 126.296 237.28C126.36 237.28 126.36 237.216 126.424 237.152C126.616 236.96 126.872 236.832 127.128 236.704C127.192 236.512 127.064 236.448 126.936 236.384C126.808 236.64 126.68 236.576 126.488 236.512C126.36 236.512 126.232 236.576 126.168 236.64C126.104 236.768 126.104 236.768 125.976 236.832ZM137.24 237.664C137.176 237.984 137.048 237.984 137.112 238.24C137.176 238.24 137.304 238.24 137.304 238.176C137.368 238.112 137.24 237.984 137.24 237.92C137.24 237.792 137.304 237.728 137.24 237.664ZM125.912 238.176C125.976 238.24 126.168 238.176 126.232 238.048C126.296 237.984 126.296 237.92 126.296 237.856C126.168 237.664 126.104 237.664 125.976 237.792C125.912 237.856 125.848 238.048 125.912 238.176ZM127.32 238.304C127.32 238.496 127.384 238.496 127.512 238.56C127.512 238.56 127.512 238.624 127.576 238.624C127.512 238.304 127.512 238.176 127.384 238.176L127.32 238.304ZM127.384 239.072C127.384 239.072 127.384 238.944 127.32 238.944C127.32 239.008 127.384 239.136 127.448 239.264C127.448 239.136 127.384 239.136 127.384 239.072ZM125.976 239.2C125.976 239.392 125.784 239.456 125.848 239.648C125.912 239.52 125.976 239.328 125.976 239.2ZM126.808 239.52C126.808 239.52 126.872 239.52 126.872 239.456C126.808 239.392 126.744 239.328 126.744 239.264C126.68 239.328 126.68 239.456 126.68 239.52H126.808ZM138.2 239.968C138.072 240.224 138.2 240.544 138.456 240.928C138.456 240.8 138.392 240.736 138.392 240.608C138.456 240.48 138.456 240.288 138.456 240.096C138.456 240.032 138.456 239.968 138.392 239.968H138.2ZM125.976 240.48C125.976 240.608 125.784 240.608 125.848 240.736C125.848 240.672 125.976 240.672 125.976 240.608C125.976 240.544 126.04 240.544 125.976 240.48ZM127.576 241.056C127.576 241.056 127.704 241.056 127.64 240.992L127.448 240.8C127.384 240.928 127.512 241.056 127.576 241.12V241.056ZM137.496 241.632C137.496 241.568 137.624 241.568 137.624 241.504C137.624 241.248 137.432 241.12 137.176 241.184C137.176 241.504 137.24 241.632 137.432 241.696C137.432 241.696 137.432 241.632 137.496 241.632ZM126.616 241.824C126.68 241.76 126.616 241.76 126.616 241.76C126.616 241.76 126.68 241.696 126.616 241.696L126.552 241.76L126.616 241.824ZM126.936 242.656C126.936 242.656 126.936 242.592 126.872 242.592C126.872 242.592 126.808 242.528 126.808 242.592L126.936 242.656ZM137.944 242.976C137.88 242.976 137.88 242.912 137.88 242.976H137.944ZM139.352 243.424C139.288 243.488 139.352 243.552 139.352 243.488C139.352 243.424 139.352 243.488 139.352 243.424C139.352 243.424 139.416 243.424 139.352 243.36V243.424ZM139.48 243.552L139.544 243.488C139.544 243.488 139.48 243.488 139.48 243.552ZM127 244.064C127.256 244.064 127.384 243.936 127.512 243.68C127.448 243.616 127.448 243.68 127.384 243.616C127.064 243.552 126.808 243.552 126.552 243.744C126.424 243.808 126.296 243.808 126.168 243.808C126.104 243.808 125.912 243.872 125.848 243.936C125.784 244.128 125.912 244.192 125.912 244.384C125.976 244.384 126.04 244.32 126.168 244.256C126.424 244.064 126.744 244.064 127 244.064ZM139.288 243.872H139.352C139.352 243.808 139.288 243.808 139.224 243.744C139.224 243.808 139.288 243.808 139.288 243.872ZM138.968 245.216C138.968 244.96 139.096 244.832 139.096 244.64L138.712 244.384C138.712 244.768 138.776 244.896 138.904 245.152C138.968 245.152 138.904 245.152 138.968 245.216ZM126.104 245.216C126.104 245.216 126.168 245.152 126.104 245.088C126.04 245.024 125.976 244.896 125.912 244.896C125.848 245.216 125.848 245.216 125.848 245.6H125.912C125.976 245.472 126.04 245.344 126.104 245.216ZM138.328 245.856C138.328 245.856 138.264 245.856 138.264 245.92L138.328 245.856ZM127.064 247.008C127.064 247.008 127.192 247.008 127.256 246.88C127.128 246.752 127.128 246.496 126.936 246.368C126.744 246.688 126.808 246.752 127.064 247.008ZM139.288 248.864C139.288 248.864 139.288 248.928 139.352 248.928C139.288 248.864 139.288 248.8 139.288 248.736L139.224 248.864C139.224 248.928 139.288 248.864 139.288 248.864ZM126.936 250.528C126.936 250.592 127 250.528 127 250.528V250.592C127 250.528 127.064 250.528 127.064 250.528H127H126.936ZM137.176 250.976L137.304 251.04C137.304 251.04 137.24 250.976 137.24 250.912V250.976H137.176ZM127.064 252.704C127.128 252.704 127.064 252.64 127.064 252.576C127.064 252.384 127 252.256 126.808 252.256C126.808 252.256 126.808 252.192 126.744 252.192C126.616 252.192 126.552 252.256 126.488 252.384C126.424 252.512 126.488 252.768 126.616 252.832C126.744 252.896 126.936 252.832 127.064 252.704ZM137.304 253.024V252.832C137.304 252.896 137.304 252.896 137.24 252.96C137.304 252.96 137.304 253.024 137.304 253.024ZM138.392 253.088H138.52C138.52 253.024 138.392 252.96 138.392 252.96L138.456 253.024L138.392 253.088ZM126.68 253.28V253.216L126.616 253.28H126.68ZM126.552 254.304C126.488 254.176 126.616 253.984 126.616 253.856L126.552 253.792C126.488 253.92 126.36 254.112 126.36 254.24C126.36 254.304 126.488 254.368 126.552 254.368C126.616 254.432 126.552 254.368 126.552 254.304ZM126.872 256.672V256.544C126.808 256.544 126.872 256.608 126.808 256.608L126.872 256.672ZM138.328 259.232C138.392 259.232 138.328 259.168 138.392 259.104C138.392 259.104 138.264 259.04 138.264 259.104L138.328 259.232ZM127.384 260.704C127.384 260.768 127.448 260.768 127.448 260.768V260.832C127.512 260.832 127.576 260.768 127.576 260.704L127.448 260.576C127.448 260.576 127.448 260.704 127.384 260.704ZM128.984 263.52V263.456L128.92 263.392C128.92 263.456 128.984 263.52 128.984 263.52ZM137.688 263.712L137.752 263.584C137.688 263.584 137.688 263.648 137.624 263.712L137.688 263.648V263.712ZM137.944 264.864L138.136 264.736C138.136 264.736 138.072 264.608 138.008 264.608C138.008 264.672 138.008 264.8 137.944 264.8V264.864ZM127.576 264.864H127.64C127.576 264.864 127.512 264.8 127.448 264.8V264.928C127.512 264.928 127.512 264.864 127.576 264.864ZM169.226 226.72C169.226 227.36 169.546 227.36 169.546 228.064C169.546 228.448 169.098 228.704 168.714 228.704C168.01 228.704 168.01 228.768 167.306 228.768C166.602 228.768 166.602 228.704 165.962 228.704C165.258 228.704 165.258 228.768 164.554 228.768C163.914 228.768 163.914 228.896 163.21 228.896C162.826 228.896 162.506 229.088 162.506 229.472C162.506 230.176 162.378 230.176 162.378 230.88C162.378 231.584 162.634 231.584 162.634 232.288C162.634 232.992 162.442 232.992 162.442 233.696V235.04C162.442 235.744 162.442 235.744 162.442 236.448V237.856C162.442 238.56 162.378 238.56 162.378 239.264C162.378 239.968 162.506 239.968 162.506 240.608C162.506 241.312 162.57 241.312 162.57 242.016V243.424C162.57 244.128 162.634 244.128 162.634 244.832C162.634 245.536 162.57 245.536 162.57 246.24V247.584C162.57 248.288 162.442 248.288 162.442 248.992C162.442 249.696 162.378 249.696 162.378 250.4C162.378 251.104 162.634 251.104 162.634 251.808C162.634 252.512 162.57 252.512 162.57 253.152C162.57 253.856 162.634 253.856 162.634 254.56C162.634 255.264 162.57 255.264 162.57 255.968V257.376C162.57 258.08 162.57 258.08 162.57 258.72V260.128C162.57 260.832 162.57 260.832 162.57 261.536C162.57 262.24 162.442 262.24 162.442 262.944C162.442 263.648 162.57 263.648 162.57 264.288C162.57 264.992 162.506 264.992 162.506 265.696C162.506 266.4 162.378 266.4 162.378 267.104C162.378 267.488 162.186 267.744 161.866 267.744C161.226 267.744 161.226 267.872 160.522 267.872C159.818 267.872 159.818 267.68 159.114 267.68C158.41 267.68 158.41 267.872 157.77 267.872C157.386 267.872 157.002 267.488 157.002 267.104C157.002 266.4 157.066 266.4 157.066 265.696C157.066 264.992 156.938 264.992 156.938 264.288C156.938 263.584 157.002 263.584 157.002 262.88C157.002 262.24 157.066 262.24 157.066 261.536V260.128C157.066 259.424 157.194 259.424 157.194 258.72V257.312C157.194 256.608 156.938 256.608 156.938 255.968C156.938 255.264 157.194 255.264 157.194 254.56C157.194 253.856 157.13 253.856 157.13 253.152C157.13 252.448 157.002 252.448 157.002 251.744C157.002 251.04 157.066 251.04 157.066 250.336C157.066 249.696 157.13 249.696 157.13 248.992C157.13 248.288 157.002 248.288 157.002 247.584C157.002 246.88 157.066 246.88 157.066 246.176C157.066 245.472 157.002 245.472 157.002 244.768C157.002 244.064 157.194 244.064 157.194 243.424V242.016C157.194 241.312 157.13 241.312 157.13 240.608V239.2C157.13 238.496 156.938 238.496 156.938 237.856C156.938 237.152 157.13 237.152 157.13 236.448C157.13 235.744 157.194 235.744 157.194 235.04C157.194 234.336 157.002 234.336 157.002 233.632C157.002 232.928 156.938 232.928 156.938 232.288V230.88C156.938 230.176 157.066 230.176 157.066 229.472C157.066 229.088 156.746 228.896 156.362 228.896C155.658 228.896 155.658 228.768 155.018 228.768H153.674C152.97 228.768 152.97 228.64 152.33 228.64C151.626 228.64 151.626 228.768 150.922 228.768C150.602 228.768 150.346 228.448 150.346 228.064C150.346 227.36 150.09 227.36 150.09 226.72C150.09 226.016 150.154 226.016 150.154 225.312C150.154 224.608 150.282 224.608 150.282 223.968C150.282 223.584 150.602 223.264 150.922 223.264C151.626 223.264 151.626 223.072 152.33 223.072C153.034 223.072 153.034 223.2 153.674 223.2C154.378 223.2 154.378 223.136 155.082 223.136C155.722 223.136 155.722 223.2 156.426 223.2C157.13 223.2 157.13 223.392 157.77 223.392C158.474 223.392 158.474 223.2 159.114 223.2C159.818 223.2 159.818 223.136 160.522 223.136C161.162 223.136 161.162 223.328 161.866 223.328C162.57 223.328 162.57 223.136 163.21 223.136C163.914 223.136 163.914 223.328 164.618 223.328C165.258 223.328 165.258 223.264 165.962 223.264C166.666 223.264 166.666 223.328 167.306 223.328C168.01 223.328 168.01 223.136 168.714 223.136C169.098 223.136 169.418 223.584 169.418 223.968C169.418 224.608 169.354 224.608 169.354 225.312C169.354 226.016 169.226 226.016 169.226 226.72ZM155.146 224.736C155.21 224.736 155.274 224.8 155.338 224.736C155.21 224.672 155.082 224.608 154.954 224.672C154.954 224.736 155.082 224.736 155.146 224.736ZM166.282 224.992C166.346 224.992 166.41 224.928 166.474 224.928C166.346 224.864 166.282 224.864 166.282 224.992ZM155.466 225.12H155.53C155.53 225.056 155.466 225.056 155.466 225.12ZM157.514 226.72C157.514 226.656 157.642 226.656 157.578 226.592C157.514 226.592 157.45 226.592 157.45 226.656V226.976C157.514 226.912 157.45 226.72 157.514 226.72ZM160.714 228.704C160.714 228.768 160.65 228.64 160.65 228.64C160.65 228.704 160.714 228.768 160.714 228.768L160.842 228.64C160.842 228.576 160.714 228.768 160.714 228.704ZM160.074 231.84V231.968C160.138 231.968 160.266 231.84 160.33 231.84C160.266 231.776 160.138 231.904 160.074 231.84ZM159.626 232.736C159.562 232.672 159.498 232.544 159.37 232.544C159.498 232.736 159.562 232.8 159.69 232.928L159.946 232.864C159.946 232.8 159.69 232.8 159.626 232.736ZM158.858 232.736C158.858 232.8 158.666 232.8 158.666 232.864C158.666 232.8 158.858 232.864 158.858 232.8V232.736ZM160.138 234.336L160.074 234.592C160.202 234.592 160.33 234.528 160.394 234.464C160.458 234.336 160.202 234.272 160.266 234.144C160.202 234.208 160.266 234.208 160.202 234.272C160.202 234.336 160.074 234.272 160.138 234.336ZM159.498 238.944C159.434 238.944 159.37 239.008 159.37 239.008C159.37 239.008 159.498 239.136 159.562 239.136L159.37 239.008L159.498 238.944ZM158.922 241.952C158.922 241.888 158.858 241.888 158.858 241.888C158.858 241.952 158.922 241.952 158.922 241.952ZM159.37 243.104C159.562 243.104 159.818 243.296 159.946 243.04L159.754 242.976C159.562 242.336 159.626 242.528 159.37 242.656C159.306 242.656 159.242 242.592 159.242 242.592C159.114 242.656 158.922 242.848 158.858 243.04C158.986 243.232 159.242 243.104 159.37 243.104ZM160.906 243.488C160.97 243.424 161.098 243.424 161.098 243.36C161.098 243.36 160.97 243.424 160.906 243.36C160.906 243.424 160.842 243.36 160.842 243.36C160.842 243.424 160.906 243.488 160.906 243.488ZM158.73 246.816C158.858 246.624 158.986 246.432 159.114 246.176C158.986 246.112 158.858 245.92 158.794 245.92L158.858 245.984C158.858 246.432 158.538 246.432 158.73 246.816ZM159.306 246.816V246.752C159.306 246.752 159.306 246.816 159.242 246.816H159.306ZM159.242 247.008C159.242 246.944 159.306 246.944 159.178 247.008C159.114 247.008 159.05 246.944 158.986 246.944L158.922 247.2C158.986 247.2 159.114 247.008 159.178 247.008C159.242 247.008 159.242 247.136 159.242 247.008ZM160.842 251.616C160.97 251.168 161.162 251.168 161.034 250.784C161.034 250.848 160.97 251.104 160.906 251.232C160.842 251.168 160.65 251.104 160.586 251.104C160.522 251.104 160.33 251.168 160.33 251.232C160.33 251.36 160.394 251.616 160.522 251.68C160.65 251.68 160.714 251.552 160.842 251.616ZM160.906 252.192V252.128C160.842 252.128 160.906 252.128 160.906 252.192ZM160.778 252.832C160.778 252.896 160.842 252.832 160.842 252.832C160.842 252.448 160.906 252.512 160.906 252.192C160.906 252.32 160.778 252.448 160.778 252.576V252.832ZM159.434 253.664V253.536C159.434 253.536 159.434 253.536 159.37 253.536C159.37 253.6 159.434 253.664 159.434 253.664ZM160.33 256.608H160.458C160.394 256.608 160.33 256.608 160.33 256.608ZM158.794 259.232H158.602C158.602 259.296 158.794 259.232 158.794 259.296C158.858 259.232 158.794 259.296 158.794 259.232ZM158.794 260.96C158.858 260.96 158.858 261.024 158.922 260.96H158.858C158.858 260.96 158.858 260.96 158.794 260.96ZM160.33 263.136C160.394 263.008 160.138 262.816 160.202 262.752C160.202 262.688 160.33 262.752 160.266 262.688C160.202 262.688 160.202 262.624 160.138 262.688C160.074 262.816 159.882 262.944 159.946 263.2C160.138 263.2 160.266 263.2 160.33 263.136ZM159.242 263.008H159.306C159.306 262.944 159.306 263.008 159.242 263.008ZM159.05 263.328C159.114 263.328 159.05 263.136 159.114 263.008C159.05 263.072 159.05 263.008 158.986 263.072L158.922 263.136C158.922 263.2 159.05 263.328 159.05 263.328ZM160.906 264.608C160.842 264.544 160.906 264.48 160.906 264.416C160.842 264.48 160.714 264.48 160.65 264.48H160.778C160.842 264.48 160.842 264.608 160.906 264.608ZM158.858 264.608V264.544C158.858 264.672 158.666 264.608 158.666 264.672C158.666 264.672 158.858 264.672 158.858 264.608ZM195.839 267.232C195.903 267.808 195.583 267.872 195.199 267.872H193.791C193.087 267.872 193.087 267.936 192.383 267.936C191.679 267.936 191.679 268 190.975 268C190.591 268 190.463 267.616 190.399 267.232C190.399 266.976 190.207 266.528 190.079 265.632C190.015 265.184 189.823 264.736 189.759 264.096C189.695 263.584 189.759 263.072 189.695 262.432C189.631 262.176 189.503 261.984 189.183 261.984C188.479 261.984 188.479 262.048 187.775 262.048C187.071 262.048 187.071 261.92 186.367 261.92C185.663 261.92 185.663 261.984 184.959 261.984C184.255 261.984 184.255 261.92 183.551 261.92C183.295 261.92 183.167 262.176 183.103 262.432C182.975 263.264 183.103 263.264 182.975 264.032C182.847 264.864 182.783 264.864 182.655 265.632C182.527 266.4 182.463 266.4 182.335 267.232C182.271 267.616 182.079 267.808 181.695 267.808C181.055 267.808 181.055 268 180.351 268C179.647 268 179.647 267.936 178.943 267.936C178.303 267.936 178.303 268.064 177.599 268.064C177.215 268.064 176.831 267.808 176.895 267.232C177.023 266.528 176.959 266.528 177.023 265.824C177.151 265.12 177.279 265.12 177.343 264.416C177.471 263.712 177.343 263.712 177.471 263.008C177.535 262.304 177.663 262.368 177.727 261.664C177.855 260.96 177.727 260.96 177.855 260.256C177.919 259.552 177.919 259.552 178.047 258.848C178.111 258.144 178.047 258.144 178.111 257.44C178.239 256.736 178.303 256.736 178.367 256.032C178.431 255.328 178.367 255.328 178.431 254.624C178.559 253.92 178.687 253.984 178.751 253.28L179.007 251.872C179.071 251.168 179.071 251.168 179.135 250.464C179.263 249.76 179.327 249.824 179.391 249.12C179.519 248.416 179.263 248.352 179.327 247.648L179.583 246.304C179.647 245.6 179.839 245.6 179.903 244.896C180.031 244.192 179.839 244.192 179.967 243.488C180.031 242.784 180.031 242.784 180.159 242.08C180.223 241.44 180.223 241.44 180.351 240.736C180.415 240.032 180.543 240.032 180.607 239.328C180.671 238.624 180.607 238.624 180.671 237.92C180.735 237.216 180.863 237.28 180.991 236.576C181.055 235.872 180.991 235.872 181.119 235.168C181.183 234.464 181.119 234.464 181.247 233.76C181.311 233.056 181.247 233.056 181.375 232.352L181.503 230.944C181.631 230.24 181.823 230.304 181.951 229.6L182.079 228.192C182.207 227.488 181.951 227.488 182.079 226.784C182.143 226.08 182.335 226.08 182.399 225.44C182.527 224.736 182.399 224.672 182.527 224.032C182.655 223.648 182.847 223.328 183.231 223.328C183.871 223.328 183.871 223.136 184.511 223.136C185.151 223.136 185.151 223.264 185.791 223.264C186.367 223.264 186.367 223.392 187.007 223.392C187.647 223.392 187.647 223.264 188.287 223.264C188.927 223.264 188.927 223.392 189.567 223.392C189.951 223.392 190.207 223.584 190.271 223.968C190.271 224.032 190.143 224.544 190.271 225.44C190.335 225.824 190.399 226.272 190.527 226.784C190.527 227.232 190.719 227.68 190.783 228.192C190.847 228.64 190.975 229.088 191.039 229.536C191.103 229.984 190.975 230.496 191.039 231.008C191.103 231.456 191.295 231.904 191.359 232.352C191.423 232.8 191.359 233.312 191.423 233.76L191.615 235.168C191.679 235.616 191.871 236.064 191.935 236.512C191.999 237.024 191.935 237.472 191.999 237.92L192.191 239.328C192.255 239.84 192.319 240.288 192.383 240.736C192.447 241.184 192.383 241.696 192.447 242.144L192.703 243.552C192.767 244 192.831 244.448 192.895 244.96C192.959 245.408 193.151 245.856 193.215 246.304C193.279 246.752 193.087 247.264 193.151 247.712C193.215 248.224 193.343 248.672 193.407 249.12C193.407 249.568 193.471 250.08 193.535 250.528C193.599 250.976 193.727 251.424 193.791 251.936L193.983 253.28C194.047 253.792 194.175 254.24 194.239 254.688C194.303 255.136 194.239 255.648 194.303 256.096C194.303 256.544 194.431 257.056 194.495 257.504L194.687 258.848C194.751 259.36 194.751 259.808 194.815 260.256C194.879 260.768 195.071 261.216 195.135 261.664C195.199 262.112 195.327 262.56 195.391 263.008C195.455 263.52 195.263 264.032 195.327 264.48L195.519 265.824C195.647 266.656 195.839 267.104 195.839 267.232ZM186.303 225.12C186.239 225.184 186.111 225.248 186.175 225.312C186.239 225.376 186.559 225.312 186.559 225.248C186.623 225.12 186.431 224.992 186.495 224.864C186.303 224.8 186.367 224.8 186.239 224.8C186.175 224.928 186.303 225.056 186.303 225.12ZM188.351 256.8C188.607 256.8 188.863 256.736 188.799 256.48C188.671 255.776 188.735 255.776 188.671 255.072L188.543 253.664C188.479 252.896 188.543 252.896 188.479 252.192C188.415 251.488 188.351 251.488 188.287 250.784L188.159 249.376C188.095 248.672 187.967 248.672 187.903 247.968C187.839 247.264 188.095 247.264 188.031 246.56C187.967 245.856 187.903 245.856 187.839 245.088C187.775 244.384 187.839 244.384 187.775 243.68C187.711 242.976 187.647 242.976 187.583 242.272C187.519 241.568 187.455 241.568 187.391 240.864C187.327 240.16 187.263 240.16 187.199 239.456C187.135 238.752 187.327 238.752 187.263 238.048C187.199 237.344 187.135 237.344 187.071 236.64L186.943 235.168C186.879 234.464 186.879 234.464 186.815 233.76C186.751 233.056 186.623 233.056 186.559 232.352C186.495 231.648 186.431 231.648 186.367 230.944C186.303 230.24 187.071 229.408 186.367 229.408C185.663 229.408 186.175 230.24 186.111 230.944C186.047 231.648 186.175 231.648 186.111 232.416L185.983 233.824C185.919 234.528 185.855 234.528 185.791 235.232C185.727 235.936 185.791 235.936 185.727 236.64C185.663 237.344 185.727 237.344 185.663 238.048C185.599 238.752 185.471 238.752 185.407 239.456C185.343 240.16 185.407 240.16 185.343 240.864C185.279 241.632 185.407 241.632 185.343 242.336C185.279 243.04 185.151 243.04 185.087 243.744C185.023 244.448 184.959 244.448 184.895 245.152C184.831 245.856 184.959 245.856 184.895 246.56C184.831 247.264 184.639 247.264 184.575 247.968C184.511 248.672 184.575 248.672 184.511 249.376L184.383 250.784C184.319 251.488 184.319 251.552 184.319 252.256C184.255 252.96 184.319 252.96 184.255 253.664C184.191 254.368 184.127 254.368 184.063 255.072C183.999 255.776 183.935 255.776 183.871 256.48C183.871 256.8 184.191 257.12 184.447 257.12C185.087 257.12 185.087 256.928 185.727 256.928C186.367 256.928 186.367 256.992 187.071 256.992C187.711 256.992 187.711 256.8 188.351 256.8ZM184.511 229.536H184.383H184.511ZM183.039 233.248V233.312C183.103 233.248 183.167 233.248 183.231 233.184C183.231 233.184 183.167 233.12 183.103 233.12C183.103 233.12 183.039 233.184 183.039 233.248ZM189.951 233.568C189.951 233.568 189.887 233.568 189.887 233.632C189.887 233.568 189.951 233.568 189.951 233.568ZM189.823 234.72C189.695 234.72 189.631 234.656 189.631 234.784C189.695 234.912 189.759 235.104 189.887 235.04C189.887 235.04 189.951 235.104 189.951 235.04C190.079 235.04 190.015 234.848 189.951 234.72C189.951 234.592 189.951 234.528 189.887 234.528C189.823 234.528 189.887 234.72 189.823 234.72ZM188.991 235.808C188.991 235.616 188.863 235.616 188.927 235.424C188.735 235.424 188.671 235.232 188.479 235.168C188.415 235.488 188.415 235.616 188.479 235.936C188.543 235.936 188.735 235.872 188.735 235.936C188.863 235.936 188.927 235.936 188.991 235.808ZM189.631 235.552C189.631 235.68 189.695 235.808 189.759 235.808C189.759 235.808 189.887 235.872 189.951 235.872L189.887 235.68C189.887 235.616 189.951 235.488 189.951 235.488C189.887 235.424 189.823 235.616 189.823 235.616C189.695 235.616 189.631 235.488 189.631 235.552ZM183.487 235.68H183.423C183.487 235.68 183.487 235.68 183.487 235.68ZM183.871 238.048C184.063 237.856 184.063 237.984 183.807 237.664C183.807 238.048 183.807 237.856 183.871 238.048ZM190.271 238.752C190.335 238.688 190.399 238.496 190.527 238.496C190.463 238.368 190.527 238.24 190.527 238.112C190.463 238.112 190.399 238.24 190.335 238.24C190.207 238.176 190.079 238.048 189.887 238.112C189.823 238.112 189.695 238.24 189.759 238.304C189.823 238.56 190.079 238.816 190.271 238.752ZM183.551 238.368C183.551 238.304 183.615 238.304 183.615 238.304C183.551 238.24 183.551 238.304 183.487 238.368C183.487 238.368 183.295 238.304 183.295 238.368C183.295 238.432 183.359 238.56 183.423 238.56C183.487 238.56 183.487 238.432 183.551 238.368ZM182.655 238.88C182.655 238.944 182.847 238.88 182.975 239.072C182.975 238.88 183.039 238.816 183.039 238.752C182.975 238.624 182.911 238.816 182.847 238.816C182.783 238.816 182.591 238.816 182.655 238.88ZM189.119 240.416C189.183 240.352 189.183 240.416 189.183 240.352H188.991C188.991 240.288 189.055 240.096 188.991 240.16C188.927 240.16 188.863 240.416 188.927 240.48C188.991 240.544 189.119 240.352 189.119 240.416ZM190.911 242.208C190.975 242.272 191.103 242.336 191.167 242.336C191.103 242.08 191.103 241.824 191.103 241.568C191.039 241.568 190.847 241.696 190.847 241.696C190.783 241.632 190.783 241.568 190.719 241.568L190.655 241.696C190.783 241.824 190.847 242.016 190.911 242.208ZM190.655 241.632H190.591C190.591 241.632 190.655 241.632 190.655 241.696V241.632ZM182.975 242.528C183.039 242.464 183.167 242.4 183.103 242.336C183.039 242.336 183.039 242.464 182.975 242.528ZM182.975 242.656C182.975 242.72 182.975 242.784 182.975 242.784C183.039 242.784 182.975 242.72 182.975 242.656ZM183.295 244.832H183.359C183.295 244.768 183.359 244.832 183.295 244.832ZM183.103 244.96H183.039H183.103ZM183.295 245.472C183.359 245.28 183.487 245.408 183.423 245.28C183.295 245.152 183.103 245.024 182.975 245.024C182.911 245.024 182.719 245.088 182.719 245.152C182.719 245.216 182.911 245.28 182.975 245.344C182.975 245.408 182.975 245.472 183.039 245.472C183.167 245.536 183.167 245.408 183.295 245.472ZM181.503 245.152C181.439 245.28 181.311 245.344 181.247 245.6C181.247 245.6 181.311 245.536 181.311 245.6C181.439 245.472 181.503 245.344 181.503 245.152ZM190.911 246.112V246.176V246.112ZM191.039 246.368C190.975 246.368 190.783 246.496 190.847 246.496C190.847 246.56 191.039 246.624 191.039 246.56C191.103 246.496 191.103 246.432 191.039 246.368ZM181.311 247.008C181.503 247.072 181.695 247.2 181.887 247.2C181.887 247.136 181.823 247.008 181.887 247.008C181.759 246.688 181.631 246.688 181.439 246.688C181.375 246.688 181.503 246.752 181.503 246.816C181.503 246.88 181.311 247.008 181.311 247.008ZM191.807 248.8C191.871 248.864 191.871 248.928 191.871 248.928V248.864C191.807 248.864 191.807 248.864 191.807 248.8ZM191.039 256.096C191.039 256.032 191.167 256.096 191.167 256.032C190.975 256.032 190.847 255.968 190.719 255.968C190.655 255.968 190.719 256.16 190.719 256.224C190.719 256.288 190.655 256.288 190.719 256.288C190.847 256.288 190.911 256.096 191.039 256.096ZM193.151 263.456C193.343 263.328 193.535 263.2 193.663 262.944C193.663 262.88 193.471 262.752 193.343 262.688C193.279 262.624 193.215 262.624 193.215 262.752C193.215 262.944 193.151 263.264 192.959 263.264C192.959 263.264 192.959 263.2 192.895 263.264C192.959 263.328 192.895 263.328 192.959 263.328C193.023 263.392 193.087 263.456 193.151 263.456ZM178.815 265.824H178.751C178.751 265.824 178.751 265.824 178.815 265.824Z" fill="#2D4057"></path>
<path d="M100 132.822C100 134.71 99.8291 134.71 99.8291 136.598C99.8291 138.315 99.6582 138.315 99.6582 140.203C99.6582 142.091 100 142.091 100 143.979C100 145.867 99.8291 145.867 99.8291 147.583V151.36C99.8291 153.248 99.8291 153.248 99.8291 155.136V158.74C99.8291 160.629 100 160.629 100 162.517V166.121C100 168.009 99.6582 168.009 99.6582 169.897C99.6582 171.786 99.4873 171.786 99.4873 173.502C99.4873 175.39 99.6582 175.39 99.6582 177.278C99.6582 179.166 99.8291 179.166 99.8291 180.883C99.8291 182.771 99.6582 182.771 99.6582 184.659C99.6582 186.547 100 186.547 100 188.435C100 190.152 99.4873 190.152 99.4873 192.04C99.4873 193.928 100 193.928 100 195.816C100 197.532 99.8291 197.532 99.8291 199.421C99.8291 201.309 99.6582 201.309 99.6582 203.197C99.6582 201.48 99.6582 205.085 99.6582 203.197C99.6582 201.309 99.6582 205.085 99.6582 203.197C99.6582 204.57 98.4618 205.771 97.0945 205.771H93.8473C92.1382 205.771 92.1382 205.6 90.6 205.6C88.8909 205.6 88.8909 205.257 87.3527 205.257C85.9855 205.257 85.1309 204.57 85.1309 203.197V204.074C85.1309 202.186 85.1309 205.085 85.1309 203.197C85.1309 201.48 84.7891 201.48 84.7891 199.592C84.7891 197.704 84.4473 197.704 84.6182 195.988C84.6182 194.1 85.3018 194.1 85.3018 192.383C85.3018 190.495 84.96 190.495 84.96 188.607C84.96 186.89 85.4727 186.89 85.4727 185.002C85.4727 183.286 85.1309 183.286 85.1309 181.398V177.793C85.1309 175.905 84.6182 175.905 84.6182 174.017C84.6182 172.3 85.1309 172.3 85.1309 170.412C85.1309 168.696 84.96 168.696 84.96 166.808V163.203C84.96 161.315 85.3018 161.315 85.3018 159.427C85.3018 157.711 85.1309 157.711 85.1309 155.822V152.218C85.1309 150.845 84.2764 149.986 82.7382 149.986C80.6873 149.986 80.6873 149.643 78.6364 149.643C76.5855 149.643 76.5855 150.158 74.5345 150.158C72.4836 150.158 72.4836 149.986 70.4327 149.986C68.8945 149.986 68.04 150.845 68.04 152.218C68.04 154.106 67.8691 154.106 67.8691 155.822C67.8691 157.711 68.04 157.711 68.04 159.599V163.203C68.04 165.091 68.04 165.091 68.04 166.808C68.04 168.696 67.8691 168.696 67.8691 170.412C67.8691 172.3 68.04 172.3 68.04 174.189C68.04 175.905 67.8691 175.905 67.8691 177.793V181.398C67.8691 183.286 68.2109 183.286 68.2109 185.002C68.2109 186.89 68.04 186.89 68.04 188.778C68.04 190.495 68.2109 190.495 68.2109 192.383C68.2109 194.1 68.04 194.1 68.04 195.988C68.04 197.876 68.5527 197.876 68.5527 199.592V203.368C68.5527 205.085 68.2109 205.085 68.2109 206.973C68.2109 208.689 68.3818 208.709 68.3818 210.597C68.3818 211.97 67.0145 213 65.6473 213C63.9382 213 63.9382 212.828 62.4 212.828H58.9818C57.4436 212.828 57.4436 213 55.7345 213C54.3673 213 53.5127 211.97 53.5127 210.597C53.5127 208.709 53.3418 208.689 53.3418 206.801C53.3418 204.913 53.5127 204.913 53.5127 203.197V199.421C53.5127 197.532 53.5127 197.532 53.5127 195.644V192.04C53.5127 190.152 53.1709 190.152 53.1709 188.264C53.1709 186.375 53.6836 186.375 53.6836 184.659C53.6836 182.771 53.1709 182.771 53.1709 180.883C53.1709 178.995 53.5127 178.995 53.5127 177.107C53.5127 175.39 53.6836 175.39 53.6836 173.502C53.6836 171.614 53.3418 171.614 53.3418 169.726C53.3418 168.009 53.5127 168.009 53.5127 166.121C53.5127 164.233 53 164.233 53 162.345C53 160.457 53.1709 160.457 53.1709 158.74V154.964C53.1709 153.076 53.3418 153.076 53.3418 151.188V147.583C53.3418 145.695 53.5127 145.695 53.5127 143.807C53.5127 142.091 53.3418 142.091 53.3418 140.203C53.3418 138.315 53.5127 138.315 53.5127 136.426C53.5127 134.538 53.6836 134.538 53.6836 132.822V129.046C53.6836 127.158 53.6836 127.158 53.6836 125.441C53.6836 123.553 53.3418 123.553 53.3418 121.665C53.3418 119.777 53.1709 119.777 53.1709 117.889C53.1709 116.172 53 116.172 53 114.284C53 112.396 53.1709 112.396 53.1709 110.508C53.1709 108.791 53.5127 108.791 53.5127 106.903V103.127C53.5127 101.239 53.1709 101.239 53.1709 99.5225C53.1709 97.6344 53.3418 97.6344 53.3418 95.7463C53.3418 94.3732 54.3673 93.1716 55.7345 93.1716C57.4436 93.1716 57.4436 93.5149 58.9818 93.5149C60.6909 93.5149 60.6909 93.6866 62.4 93.6866C63.9382 93.6866 63.9382 93.1716 65.6473 93.1716C67.0145 93.1716 68.3818 94.3732 68.3818 95.7463V99.5225C68.3818 101.239 68.04 101.239 68.04 103.127C68.04 105.015 67.6982 105.015 67.6982 106.903C67.6982 108.791 68.04 108.791 68.04 110.508V114.284C68.04 116.172 68.2109 116.172 68.2109 117.889V121.665C68.2109 123.553 67.8691 123.553 67.8691 125.269V129.046C67.8691 130.934 67.6982 130.934 67.6982 132.65C67.6982 134.023 69.0655 135.053 70.4327 135.053C72.4836 135.053 72.4836 135.397 74.5345 135.397C76.5855 135.397 76.5855 135.053 78.6364 135.053C80.6873 135.053 80.6873 135.225 82.7382 135.225C84.1055 135.225 85.1309 134.023 85.1309 132.65V129.046C85.1309 127.158 85.3018 127.158 85.3018 125.269C85.3018 123.381 85.1309 123.381 85.1309 121.665C85.1309 119.777 84.7891 119.777 84.7891 117.889C84.7891 116.001 84.96 116.001 84.96 114.284C84.96 112.396 84.7891 112.396 84.7891 110.508V106.903C84.7891 105.015 84.7891 105.015 84.7891 103.127C84.7891 101.239 85.1309 101.239 85.1309 99.5225C85.1309 97.6344 84.7891 97.6344 84.7891 95.7463C84.7891 94.3732 86.1564 93 87.5236 93C89.0618 93 89.0618 93.1716 90.7709 93.1716H94.0182C95.7273 93.1716 95.7273 93.3433 97.2655 93.3433C98.6327 93.3433 99.6582 94.3732 99.6582 95.7463C99.6582 97.6344 99.4873 97.6344 99.4873 99.5225C99.4873 101.411 99.8291 101.411 99.8291 103.127V106.903C99.8291 108.791 100 108.791 100 110.68C100 112.396 99.4873 112.396 99.4873 114.284C99.4873 116.172 99.8291 116.172 99.8291 118.06C99.8291 119.948 99.6582 119.948 99.6582 121.665C99.6582 123.553 99.8291 123.553 99.8291 125.441C99.8291 127.329 99.6582 127.329 99.6582 129.217C99.6582 130.934 100 130.934 100 132.822ZM90.6 98.836C90.4291 98.836 90.0873 99.1793 90.2582 99.1793C90.2582 99.3509 90.7709 99.3509 90.7709 99.1793C90.7709 99.1793 90.6 99.0076 90.6 98.836ZM91.2836 104.329C91.2836 104.5 91.1127 104.5 91.1127 104.5L91.2836 105.015L91.4545 104.844C91.4545 104.672 91.2836 104.329 91.2836 104.329ZM63.2545 107.59V107.762C63.2545 107.933 63.5964 108.277 63.5964 108.277L63.7673 107.59C63.7673 107.59 63.4255 107.59 63.2545 107.59ZM91.9673 108.62C91.7964 108.791 91.7964 109.306 92.1382 109.65C92.3091 109.821 92.6509 110.336 92.9927 110.508C93.1636 109.993 92.9927 109.135 92.8218 108.963C92.6509 108.62 92.1382 108.62 91.9673 108.62ZM89.4036 113.254C89.4036 113.254 89.5745 113.254 89.5745 113.426V113.598C89.7455 113.426 90.0873 113.254 90.0873 113.254C90.0873 113.254 89.5745 112.911 89.4036 113.083V113.254ZM57.7855 114.627C57.7855 114.971 57.6145 115.142 57.7855 115.486C57.7855 115.314 58.2982 115.314 58.2982 115.142L58.1273 114.456L57.7855 114.627ZM61.8873 116.001C61.7164 116.001 61.5455 116.172 61.5455 116.172C61.5455 116.344 61.7164 116.687 61.8873 116.859L62.2291 116.344C62.2291 116.172 61.8873 116.001 61.8873 116.001ZM61.0327 118.575C60.8618 118.232 60.1782 118.06 59.6655 118.232C60.0073 118.747 60.3491 118.919 60.6909 119.433C60.6909 119.433 61.2036 119.09 61.3745 119.09C61.3745 118.919 61.2036 118.575 61.0327 118.575ZM57.7855 118.404C57.6145 118.747 57.6145 118.919 57.7855 119.09C57.7855 119.262 57.6145 119.433 57.7855 119.605C57.7855 119.605 58.4691 119.09 58.4691 118.919C58.4691 118.747 58.1273 118.404 57.7855 118.404ZM94.36 120.12C94.1891 120.292 93.8473 120.635 93.8473 120.807C93.8473 120.978 94.0182 121.15 94.1891 121.322C94.36 121.322 94.8727 121.15 94.8727 120.978C94.8727 120.635 94.5309 120.463 94.36 120.12ZM62.5709 122.523H61.8873C61.7164 122.695 61.3745 123.038 61.3745 123.038C61.5455 123.21 61.7164 123.725 61.8873 123.725C62.0582 123.896 62.4 123.553 62.4 123.21C62.5709 123.038 62.4 122.695 62.5709 122.523ZM95.5564 129.389C95.5564 128.702 95.7273 128.702 95.7273 128.016C95.5564 128.187 95.3855 127.844 95.2145 127.844C95.0436 127.844 95.2145 128.187 95.0436 128.016C94.7018 127.673 94.1891 128.016 93.8473 128.187C93.5055 128.531 93.5055 128.874 93.5055 129.561C93.5055 129.561 93.3345 129.904 93.3345 130.076C93.3345 130.419 93.5055 130.419 93.8473 130.419C94.1891 130.59 94.0182 130.419 94.0182 130.247C94.1891 129.904 94.7018 129.561 95.0436 129.732C95.2145 129.732 95.3855 129.561 95.5564 129.389ZM91.2836 129.217C91.2836 128.874 90.7709 128.359 90.4291 128.359C90.2582 128.359 90.0873 128.702 90.0873 128.702C90.0873 129.046 90.4291 129.561 90.6 129.561C90.7709 129.561 91.1127 129.389 91.2836 129.217ZM60.1782 135.397L59.6655 135.74C59.8364 135.74 60.3491 135.912 60.3491 135.912V135.568L60.1782 135.397ZM91.6255 135.74C91.6255 135.74 91.4545 135.568 91.4545 135.397C91.4545 135.568 90.9418 135.568 90.9418 135.74L91.2836 136.083C91.4545 136.083 91.6255 135.74 91.6255 135.74ZM92.9927 140.374C93.3345 140.546 93.6764 140.203 94.0182 140.031C94.1891 140.031 94.36 139.859 94.36 139.688C94.36 139.516 94.5309 139.001 94.36 138.829C93.8473 138.315 92.8218 138.658 92.3091 139.344C92.48 139.688 92.6509 140.203 92.9927 140.374ZM67.0145 139.344V138.829H66.6727V139.001C66.6727 139.001 66.8436 139.344 67.0145 139.344ZM82.2255 140.031C82.3964 140.031 82.5673 139.688 82.7382 139.516C82.5673 139.516 82.2255 139.344 82.2255 139.344L82.0545 139.516L82.2255 140.031ZM80.3455 140.546C80.5164 140.546 80.6873 140.203 80.8582 140.203C80.8582 140.031 80.5164 139.688 80.5164 139.688C80.3455 139.688 80.1745 139.859 80.0036 140.031C80.1745 140.031 80.3455 140.546 80.3455 140.546ZM78.8073 141.919C78.9782 141.919 79.32 141.576 79.4909 141.576C79.32 141.404 79.1491 141.061 78.9782 141.233C78.9782 141.233 78.8073 141.233 78.8073 141.404V141.919ZM91.6255 143.807C91.9673 143.979 92.8218 143.807 92.9927 143.292L92.6509 142.777C92.6509 142.606 92.3091 142.606 92.1382 142.606C91.9673 142.606 91.7964 142.949 91.6255 142.949C91.4545 143.121 91.2836 143.636 91.6255 143.807ZM58.64 142.949L58.1273 143.121C58.1273 143.121 58.64 143.464 58.64 143.292V142.949ZM73.1673 145.352C73.5091 145.524 73.8509 145.695 74.1927 145.695L74.0218 144.837C73.8509 144.665 73.5091 144.837 73.3382 144.837C73.1673 144.837 73.1673 145.18 73.1673 145.352ZM60.0073 146.897C60.52 146.897 61.0327 147.069 61.3745 146.382C61.3745 146.382 61.5455 146.21 61.5455 146.039C61.2036 144.494 60.52 144.837 59.6655 145.009V145.352C59.1527 145.524 58.9818 145.867 58.8109 146.382C59.1527 146.897 59.4945 146.897 60.0073 146.897ZM64.1091 147.755C64.28 147.755 64.4509 147.412 64.4509 147.412C64.4509 147.24 64.1091 147.069 63.9382 146.897C63.9382 147.069 63.7673 147.24 63.7673 147.412L64.1091 147.755ZM65.1345 148.785V148.442C65.1345 148.442 64.7927 148.27 64.6218 148.27L64.7927 148.442C64.7927 148.613 64.7927 148.785 64.7927 148.785H65.1345ZM90.2582 153.934V153.419C90.0873 153.419 89.9164 153.591 89.7455 153.591L89.9164 153.763L90.2582 153.934ZM57.7855 154.449C57.6145 155.822 56.9309 156.166 57.7855 157.196C58.2982 156.681 59.1527 155.822 59.3236 154.964C58.9818 154.793 58.4691 154.278 58.2982 154.278C58.1273 154.106 57.7855 154.449 57.7855 154.449ZM94.7018 157.539C94.8727 157.539 95.3855 156.852 95.3855 156.681C95.3855 156.509 95.0436 156.337 94.8727 156.337C94.7018 156.166 94.36 156.681 94.36 156.852C94.36 157.024 94.5309 157.367 94.7018 157.539ZM59.6655 156.337C59.6655 156.337 59.4945 156.509 59.3236 156.509C59.4945 156.509 59.4945 156.681 59.4945 156.681H60.0073C60.0073 156.509 59.6655 156.337 59.6655 156.337ZM59.6655 157.196C59.8364 157.024 59.6655 156.852 59.3236 156.852C59.1527 157.024 58.8109 156.852 58.8109 156.852V157.539C58.9818 157.711 59.3236 157.711 59.4945 157.539C59.6655 157.539 59.6655 157.539 59.6655 157.196ZM91.7964 162.345C91.7964 162.517 91.9673 162.86 92.1382 162.86H92.6509C92.6509 162.517 92.1382 162.002 91.9673 162.002L91.7964 162.345ZM61.0327 163.547V163.032C60.8618 163.032 60.6909 163.375 60.52 163.375C60.6909 163.375 60.8618 163.547 60.8618 163.718L61.0327 163.547ZM92.6509 167.666C92.8218 167.494 92.48 166.808 92.3091 166.808C91.7964 166.636 91.1127 166.808 90.4291 167.151C90.6 167.838 91.1127 167.838 91.2836 167.838C91.6255 168.009 92.3091 168.181 92.6509 167.666ZM62.7418 166.808C62.7418 166.808 62.5709 167.323 62.7418 167.323L63.0836 166.979L62.7418 166.808ZM59.3236 167.494H59.6655L59.4945 166.979C59.3236 166.979 59.3236 167.323 59.1527 167.323C59.3236 167.323 59.3236 167.494 59.3236 167.494ZM64.1091 169.726C64.28 168.868 64.28 168.696 64.28 168.009C64.28 168.009 63.9382 167.838 63.9382 168.009C63.5964 167.838 63.4255 168.009 63.2545 168.009C62.9127 168.009 62.7418 168.353 62.7418 168.524C62.5709 168.868 62.7418 169.211 63.0836 169.211L64.1091 169.726ZM92.48 169.382V168.868C92.48 168.868 92.3091 168.524 92.3091 168.353C91.7964 168.353 91.2836 169.211 91.1127 169.554C91.4545 169.726 92.1382 169.897 92.48 169.382ZM94.5309 170.756C95.0436 170.756 95.2145 170.584 95.3855 169.726C94.7018 169.554 94.0182 169.554 93.5055 169.897L93.6764 170.584C94.0182 170.756 94.36 170.584 94.5309 170.756ZM64.1091 172.644C64.1091 171.786 64.28 171.786 64.28 171.099H63.7673C63.5964 171.442 63.7673 171.786 63.7673 172.129C63.7673 172.3 64.1091 172.472 64.1091 172.644ZM60.1782 175.218C60.1782 175.218 60.1782 175.047 60.3491 175.047C60.1782 175.047 60.0073 174.532 60.0073 174.532C60.0073 174.532 59.8364 174.875 59.8364 175.047L60.1782 175.218ZM62.9127 183.286C62.9127 183.286 63.0836 182.943 63.0836 182.771L62.5709 183.114L62.7418 183.286H62.9127ZM58.9818 188.778C58.9818 188.778 59.4945 188.607 59.4945 188.435L59.3236 188.264H59.1527C59.1527 188.264 58.9818 188.607 58.9818 188.778ZM57.7855 190.152H57.9564C57.9564 190.323 57.9564 190.495 57.9564 190.495C58.1273 190.667 58.64 190.152 58.4691 189.98C58.4691 189.98 57.9564 189.808 57.9564 189.637C57.7855 189.808 57.7855 190.152 57.7855 190.152ZM58.2982 194.614V194.958H58.64L58.8109 194.786L58.2982 194.614ZM62.7418 199.764C62.9127 199.592 62.5709 198.906 62.4 198.906C62.2291 198.906 61.8873 199.077 61.8873 199.249C61.7164 199.592 61.5455 199.935 61.5455 200.45C62.0582 200.622 62.0582 200.622 62.2291 200.45C62.4 200.279 62.7418 199.935 62.7418 199.764ZM59.4945 200.622C59.6655 200.622 59.4945 200.279 59.4945 200.279C59.4945 200.107 59.4945 200.107 59.3236 199.935L58.8109 200.279C58.8109 200.279 58.4691 200.622 58.4691 200.794L59.1527 200.965C59.3236 200.965 59.4945 200.794 59.4945 200.622ZM63.7673 204.742C63.9382 204.742 63.9382 204.57 64.1091 204.57C64.1091 204.398 64.1091 204.055 63.9382 203.883C63.9382 203.883 63.5964 204.227 63.4255 204.227L63.7673 204.742ZM58.2982 206.63C58.2982 206.286 58.4691 205.943 58.2982 205.6C58.2982 205.257 58.4691 204.913 58.4691 204.57C58.4691 204.398 57.9564 204.055 57.7855 204.055C57.6145 205.771 57.6145 205.771 57.7855 207.488L58.2982 206.63ZM61.5455 206.63L62.0582 206.801C62.0582 206.63 61.8873 206.286 61.7164 206.286L61.5455 206.63Z" fill="#2D4057"></path>
<path d="M159.98 200.981C160.135 202.379 159.359 202.534 158.427 202.534H155.011C153.303 202.534 153.303 202.689 151.595 202.689C149.887 202.689 149.887 202.845 148.179 202.845C147.247 202.845 146.937 201.913 146.781 200.981C146.781 200.36 146.315 199.274 146.005 197.1C145.85 196.013 145.384 194.926 145.228 193.373C145.073 192.131 145.228 190.889 145.073 189.336C144.918 188.715 144.607 188.249 143.831 188.249C142.123 188.249 142.123 188.405 140.415 188.405C138.707 188.405 138.707 188.094 136.999 188.094C135.29 188.094 135.29 188.249 133.582 188.249C131.874 188.249 131.874 188.094 130.166 188.094C129.545 188.094 129.235 188.715 129.079 189.336C128.769 191.355 129.079 191.355 128.769 193.218C128.458 195.236 128.303 195.236 127.992 197.1C127.682 198.963 127.526 198.963 127.216 200.981C127.061 201.913 126.595 202.379 125.663 202.379C124.11 202.379 124.11 202.845 122.402 202.845C120.694 202.845 120.694 202.689 118.986 202.689C117.433 202.689 117.433 203 115.725 203C114.793 203 113.862 202.379 114.017 200.981C114.328 199.274 114.172 199.274 114.328 197.566C114.638 195.858 114.949 195.858 115.104 194.15C115.415 192.442 115.104 192.442 115.415 190.734C115.57 189.026 115.88 189.181 116.036 187.473C116.346 185.765 116.036 185.765 116.346 184.057C116.502 182.349 116.502 182.349 116.812 180.641C116.967 178.933 116.812 178.933 116.967 177.225C117.278 175.517 117.433 175.517 117.589 173.809C117.744 172.101 117.589 172.101 117.744 170.393C118.054 168.685 118.365 168.84 118.52 167.132L119.141 163.717C119.297 162.009 119.297 162.009 119.452 160.301C119.762 158.593 119.918 158.748 120.073 157.04C120.384 155.332 119.762 155.177 119.918 153.469L120.539 150.208C120.694 148.5 121.16 148.5 121.315 146.792C121.626 145.084 121.16 145.084 121.471 143.376C121.626 141.668 121.626 141.668 121.936 139.96C122.092 138.407 122.092 138.407 122.402 136.699C122.557 134.991 122.868 134.991 123.023 133.283C123.179 131.575 123.023 131.575 123.179 129.868C123.334 128.16 123.644 128.315 123.955 126.607C124.11 124.899 123.955 124.899 124.266 123.191C124.421 121.483 124.266 121.483 124.576 119.775C124.731 118.067 124.576 118.067 124.887 116.359L125.197 112.943C125.508 111.235 125.974 111.39 126.284 109.682L126.595 106.266C126.905 104.558 126.284 104.558 126.595 102.85C126.75 101.142 127.216 101.142 127.371 99.5897C127.682 97.8818 127.371 97.7265 127.682 96.1738C127.992 95.2422 128.458 94.4658 129.39 94.4658C130.943 94.4658 130.943 94 132.495 94C134.048 94 134.048 94.3105 135.601 94.3105C136.999 94.3105 136.999 94.6211 138.551 94.6211C140.104 94.6211 140.104 94.3105 141.657 94.3105C143.21 94.3105 143.21 94.6211 144.763 94.6211C145.694 94.6211 146.315 95.0869 146.471 96.0185C146.471 96.1738 146.16 97.416 146.471 99.5897C146.626 100.521 146.781 101.608 147.092 102.85C147.092 103.937 147.558 105.024 147.713 106.266C147.868 107.353 148.179 108.44 148.334 109.527C148.489 110.614 148.179 111.856 148.334 113.098C148.489 114.185 148.955 115.272 149.11 116.359C149.266 117.446 149.11 118.688 149.266 119.775L149.732 123.191C149.887 124.278 150.353 125.365 150.508 126.452C150.663 127.694 150.508 128.781 150.663 129.868L151.129 133.283C151.284 134.526 151.44 135.613 151.595 136.699C151.75 137.786 151.595 139.028 151.75 140.115L152.371 143.531C152.527 144.618 152.682 145.705 152.837 146.947C152.992 148.034 153.458 149.121 153.614 150.208C153.769 151.295 153.303 152.537 153.458 153.624C153.614 154.866 153.924 155.953 154.079 157.04C154.079 158.127 154.235 159.369 154.39 160.456C154.545 161.543 154.856 162.63 155.011 163.872L155.477 167.132C155.632 168.375 155.943 169.462 156.098 170.548C156.253 171.635 156.098 172.877 156.253 173.964C156.253 175.051 156.564 176.293 156.719 177.38L157.185 180.641C157.34 181.883 157.34 182.97 157.496 184.057C157.651 185.299 158.117 186.386 158.272 187.473C158.427 188.56 158.738 189.647 158.893 190.734C159.048 191.976 158.583 193.218 158.738 194.305L159.204 197.566C159.514 199.584 159.98 200.671 159.98 200.981ZM136.843 98.8134C136.688 98.9687 136.377 99.1239 136.533 99.2792C136.688 99.4345 137.464 99.2792 137.464 99.1239C137.62 98.8134 137.154 98.5028 137.309 98.1923C136.843 98.037 136.999 98.037 136.688 98.037C136.533 98.3476 136.843 98.6581 136.843 98.8134ZM141.812 175.672C142.433 175.672 143.055 175.517 142.899 174.896C142.589 173.188 142.744 173.188 142.589 171.48L142.278 168.064C142.123 166.201 142.278 166.201 142.123 164.493C141.968 162.785 141.812 162.785 141.657 161.077L141.346 157.661C141.191 155.953 140.881 155.953 140.725 154.245C140.57 152.537 141.191 152.537 141.036 150.829C140.881 149.121 140.725 149.121 140.57 147.258C140.415 145.55 140.57 145.55 140.415 143.842C140.259 142.134 140.104 142.134 139.949 140.426C139.794 138.718 139.638 138.718 139.483 137.01C139.328 135.302 139.173 135.302 139.017 133.594C138.862 131.886 139.328 131.886 139.173 130.178C139.017 128.47 138.862 128.47 138.707 126.762L138.396 123.191C138.241 121.483 138.241 121.483 138.086 119.775C137.93 118.067 137.62 118.067 137.464 116.359C137.309 114.651 137.154 114.651 136.999 112.943C136.843 111.235 138.707 109.217 136.999 109.217C135.29 109.217 136.533 111.235 136.377 112.943C136.222 114.651 136.533 114.651 136.377 116.514L136.067 119.93C135.912 121.638 135.756 121.638 135.601 123.346C135.446 125.054 135.601 125.054 135.446 126.762C135.29 128.47 135.446 128.47 135.29 130.178C135.135 131.886 134.825 131.886 134.669 133.594C134.514 135.302 134.669 135.302 134.514 137.01C134.359 138.873 134.669 138.873 134.514 140.581C134.359 142.289 134.048 142.289 133.893 143.997C133.738 145.705 133.582 145.705 133.427 147.413C133.272 149.121 133.582 149.121 133.427 150.829C133.272 152.537 132.806 152.537 132.651 154.245C132.495 155.953 132.651 155.953 132.495 157.661L132.185 161.077C132.03 162.785 132.03 162.94 132.03 164.648C131.874 166.356 132.03 166.356 131.874 168.064C131.719 169.772 131.564 169.772 131.408 171.48C131.253 173.188 131.098 173.188 130.943 174.896C130.943 175.672 131.719 176.449 132.34 176.449C133.893 176.449 133.893 175.983 135.446 175.983C136.999 175.983 136.999 176.138 138.707 176.138C140.259 176.138 140.259 175.672 141.812 175.672ZM128.924 118.533V118.688C129.079 118.533 129.235 118.533 129.39 118.377C129.39 118.377 129.235 118.222 129.079 118.222C129.079 118.222 128.924 118.377 128.924 118.533ZM145.384 122.104C145.073 122.104 144.918 121.949 144.918 122.259C145.073 122.57 145.228 123.036 145.539 122.88C145.539 122.88 145.694 123.036 145.694 122.88C146.005 122.88 145.85 122.415 145.694 122.104C145.694 121.793 145.694 121.638 145.539 121.638C145.384 121.638 145.539 122.104 145.384 122.104ZM143.365 124.744C143.365 124.278 143.055 124.278 143.21 123.812C142.744 123.812 142.589 123.346 142.123 123.191C141.968 123.967 141.968 124.278 142.123 125.054C142.278 125.054 142.744 124.899 142.744 125.054C143.055 125.054 143.21 125.054 143.365 124.744ZM144.918 124.123C144.918 124.433 145.073 124.744 145.228 124.744C145.228 124.744 145.539 124.899 145.694 124.899L145.539 124.433C145.539 124.278 145.694 123.967 145.694 123.967C145.539 123.812 145.384 124.278 145.384 124.278C145.073 124.278 144.918 123.967 144.918 124.123ZM130.011 124.433H129.856C130.011 124.433 130.011 124.433 130.011 124.433ZM130.943 130.178C131.408 129.712 131.408 130.023 130.787 129.246C130.787 130.178 130.787 129.712 130.943 130.178ZM146.471 131.886C146.626 131.731 146.781 131.265 147.092 131.265C146.937 130.954 147.092 130.644 147.092 130.333C146.937 130.333 146.781 130.644 146.626 130.644C146.315 130.489 146.005 130.178 145.539 130.333C145.384 130.333 145.073 130.644 145.228 130.799C145.384 131.42 146.005 132.041 146.471 131.886ZM130.166 130.954C130.166 130.799 130.322 130.799 130.322 130.799C130.166 130.644 130.166 130.799 130.011 130.954C130.011 130.954 129.545 130.799 129.545 130.954C129.545 131.11 129.7 131.42 129.856 131.42C130.011 131.42 130.011 131.11 130.166 130.954ZM127.992 132.197C127.992 132.352 128.458 132.197 128.769 132.662C128.769 132.197 128.924 132.041 128.924 131.886C128.769 131.575 128.613 132.041 128.458 132.041C128.303 132.041 127.837 132.041 127.992 132.197ZM143.676 135.923C143.831 135.768 143.831 135.923 143.831 135.768H143.365C143.365 135.613 143.52 135.147 143.365 135.302C143.21 135.302 143.055 135.923 143.21 136.078C143.365 136.234 143.676 135.768 143.676 135.923ZM148.024 140.271C148.179 140.426 148.489 140.581 148.645 140.581C148.489 139.96 148.489 139.339 148.489 138.718C148.334 138.718 147.868 139.028 147.868 139.028C147.713 138.873 147.713 138.718 147.558 138.718L147.402 139.028C147.713 139.339 147.868 139.805 148.024 140.271ZM147.402 138.873H147.247C147.247 138.873 147.402 138.873 147.402 139.028V138.873ZM128.769 141.047C128.924 140.892 129.235 140.736 129.079 140.581C128.924 140.581 128.924 140.892 128.769 141.047ZM128.769 141.358C128.769 141.513 128.769 141.668 128.769 141.668C128.924 141.668 128.769 141.513 128.769 141.358ZM129.545 146.637H129.7C129.545 146.481 129.7 146.637 129.545 146.637ZM129.545 148.189C129.7 147.724 130.011 148.034 129.856 147.724C129.545 147.413 129.079 147.103 128.769 147.103C128.613 147.103 128.148 147.258 128.148 147.413C128.148 147.568 128.613 147.724 128.769 147.879C128.769 148.034 128.769 148.189 128.924 148.189C129.235 148.345 129.235 148.034 129.545 148.189ZM125.197 147.413C125.042 147.724 124.731 147.879 124.576 148.5C124.576 148.5 124.731 148.345 124.731 148.5C125.042 148.189 125.197 147.879 125.197 147.413ZM148.334 150.363C148.179 150.363 147.713 150.674 147.868 150.674C147.868 150.829 148.334 150.984 148.334 150.829C148.489 150.674 148.489 150.519 148.334 150.363ZM124.731 151.916C125.197 152.071 125.663 152.382 126.129 152.382C126.129 152.226 125.974 151.916 126.129 151.916C125.818 151.14 125.508 151.14 125.042 151.14C124.887 151.14 125.197 151.295 125.197 151.45C125.197 151.605 124.731 151.916 124.731 151.916ZM150.197 156.264C150.353 156.419 150.353 156.574 150.353 156.574V156.419C150.197 156.419 150.197 156.419 150.197 156.264ZM148.334 173.964C148.334 173.809 148.645 173.964 148.645 173.809C148.179 173.809 147.868 173.654 147.558 173.654C147.402 173.654 147.558 174.12 147.558 174.275C147.558 174.43 147.402 174.43 147.558 174.43C147.868 174.43 148.024 173.964 148.334 173.964ZM153.458 191.821C153.924 191.51 154.39 191.199 154.701 190.578C154.701 190.423 154.235 190.113 153.924 189.957C153.769 189.802 153.614 189.802 153.614 190.113C153.614 190.578 153.458 191.355 152.992 191.355C152.992 191.355 152.992 191.199 152.837 191.355C152.992 191.51 152.837 191.51 152.992 191.51C153.148 191.665 153.303 191.821 153.458 191.821ZM118.675 197.566H118.52C118.52 197.566 118.52 197.566 118.675 197.566Z" fill="#2D4057"></path>
<path d="M277.759 211.064C278.444 213.137 277.588 214 276.218 214H272.795C271.083 214 271.083 213.827 269.372 213.827C267.66 213.827 267.66 214 265.948 214C264.237 214 263.381 212.446 263.038 211.41C262.354 209.683 261.207 207.392 260.522 205.665C260.009 203.938 260.009 203.938 259.324 202.212C258.811 200.485 258.811 200.485 258.126 198.758C257.613 197.031 257.27 197.204 256.586 195.477C256.072 193.75 256.414 193.577 255.73 191.85C255.045 190.123 255.216 190.123 254.531 188.396C254.018 186.67 253.847 186.67 253.162 184.943C252.649 183.216 252.649 183.216 251.964 181.662C251.45 179.935 251.279 179.935 250.595 178.208C250.081 176.481 249.91 176.481 249.225 174.754C248.712 173.027 249.225 172.854 248.712 171.128C248.027 169.401 247.856 169.573 247.342 167.846C246.658 166.12 246.315 166.12 245.802 164.393C245.117 162.666 245.631 162.493 244.946 160.766C244.432 159.212 243.748 159.385 243.063 157.658C242.55 155.931 243.063 155.931 242.207 154.377C242.207 155.586 242.036 156.622 242.036 157.831V161.457C242.036 162.666 242.036 163.875 242.036 165.083V168.883C242.036 170.091 242.378 171.3 242.378 172.509V176.136C242.378 177.517 242.378 178.726 242.378 179.935V183.561C242.378 184.77 242.55 185.979 242.55 187.188C242.55 188.569 242.036 189.778 242.036 190.987C242.036 192.196 242.378 193.404 242.378 194.613V198.24C242.378 199.621 242.55 200.83 242.55 202.039C242.55 203.42 242.378 203.984 242.378 205.02C242.378 203.121 242.378 207.265 242.378 205.02C242.378 206.229 241.009 207.093 239.64 207.093C237.414 207.093 237.414 207.438 235.189 207.438C232.964 207.438 232.964 207.265 230.739 207.265C229.369 207.265 228.342 206.229 228.342 205.02H228.514C228.514 203.121 228.342 203.766 228.342 201.866C228.342 199.967 228.171 199.967 228.171 198.067C228.171 196.34 228.514 196.34 228.514 194.441C228.514 192.541 228 192.541 228 190.641C228 188.742 228.171 188.742 228.171 187.015C228.171 185.115 228.514 185.115 228.514 183.216C228.514 181.316 228.685 181.316 228.685 179.589C228.685 177.69 228.514 177.69 228.514 175.79V172.164C228.514 170.264 228.342 170.264 228.342 168.365V164.738C228.342 162.839 228.514 162.839 228.514 160.939C228.514 159.039 228.171 159.039 228.171 157.14C228.171 155.413 228.685 155.413 228.685 153.513C228.685 151.614 228.342 151.614 228.342 149.714C228.342 147.987 228 147.987 228 146.088C228 144.188 228.342 144.188 228.342 142.289C228.342 140.562 228.514 140.562 228.514 138.662V134.863C228.514 133.136 228.171 133.136 228.171 131.236C228.171 129.337 228 129.337 228 127.437C228 125.71 228.514 125.71 228.514 123.811C228.514 121.911 228.171 121.911 228.171 120.012C228.171 118.285 228 118.285 228 116.385C228 114.486 228.342 114.486 228.342 112.586V108.96C228.342 107.06 228 107.06 228 105.16C228 103.434 228.514 103.434 228.514 101.534C228.514 99.6344 228 99.6344 228 97.7349C228 96.008 228.514 96.008 228.514 94.1084C228.514 92.7269 229.541 91.6908 230.91 91.6908C233.135 91.6908 233.135 91.3454 235.36 91.3454C237.586 91.3454 237.586 91 239.811 91C241.18 91 241.865 92.7269 241.865 94.1084C241.865 96.008 242.036 96.008 242.036 97.7349C242.036 99.6344 242.378 99.6344 242.378 101.534C242.378 103.261 242.207 103.261 242.207 105.16V108.787C242.207 110.687 242.036 110.687 242.036 112.586C242.036 114.486 241.865 114.486 241.865 116.213V120.012C241.865 121.739 242.378 121.739 242.378 123.638C242.378 125.538 242.55 125.538 242.55 127.265V131.064C242.55 132.791 242.207 132.791 242.207 134.69V138.317C242.207 140.216 242.036 140.216 242.207 142.116C242.721 141.08 243.234 139.871 243.577 138.662C243.919 137.626 244.09 136.417 244.604 135.208C244.946 133.999 245.802 133.136 246.144 131.927C246.658 130.718 246.829 129.51 247.171 128.301C247.513 127.265 248.027 126.056 248.54 125.02C248.883 123.811 249.396 122.775 249.91 121.566C250.252 120.357 250.766 119.321 251.279 118.112C251.622 117.076 251.622 115.694 252.135 114.658C252.477 113.45 253.333 112.413 253.676 111.377C254.018 110.168 254.189 108.96 254.703 107.751L255.73 104.297C256.243 103.088 256.928 102.052 257.27 101.016C257.784 99.6344 257.955 98.4256 258.297 97.3895C258.811 95.8353 259.153 94.6265 259.495 94.1084C260.18 92.3815 260.694 91.1727 261.892 91.1727C263.775 91.1727 263.775 91.8634 265.658 91.8634C267.54 91.8634 267.54 91.3454 269.423 91.3454C271.306 91.3454 271.306 91.5181 273.189 91.5181C274.901 91.5181 275.414 91.5181 274.558 94.1084C274.045 96.008 273.531 95.8353 272.847 97.5622C272.333 99.2891 272.676 99.4617 271.991 101.189C271.306 102.916 270.964 102.743 270.279 104.47C269.594 106.369 269.766 106.369 269.081 108.096C268.396 109.823 268.054 109.65 267.369 111.55C266.856 113.277 267.027 113.277 266.342 115.004C265.658 116.731 266.171 116.903 265.486 118.803C264.802 120.53 264.631 120.357 263.946 122.084L262.576 125.71C261.892 127.437 262.063 127.437 261.378 129.164C260.694 130.891 260.694 130.891 260.18 132.618C259.495 134.518 259.324 134.345 258.64 136.072L257.27 139.698C256.586 141.425 256.243 141.252 255.73 142.979C255.045 144.706 254.874 144.706 254.874 146.606C254.874 148.333 255.216 148.333 255.73 150.06C256.414 151.786 256.586 151.614 257.099 153.341C257.784 155.068 257.27 155.24 257.955 156.967C258.64 158.694 258.982 158.694 259.495 160.421C260.18 162.148 260.009 162.148 260.522 163.875L261.892 167.328C262.405 169.055 262.234 169.055 262.748 170.782C263.432 172.509 263.261 172.682 263.946 174.409C264.459 176.136 264.631 175.963 265.315 177.69C265.829 179.417 265.658 179.589 266.342 181.316C266.856 183.043 267.027 183.043 267.54 184.77L268.91 188.224C269.594 189.951 269.594 189.951 270.108 191.678C270.793 193.404 271.306 193.059 271.991 194.786C272.504 196.513 271.991 196.686 272.676 198.412C273.36 200.139 273.189 200.312 273.874 202.039C274.387 203.766 274.901 203.593 275.414 205.32C276.099 207.047 277.246 209.337 277.759 211.064ZM235.532 96.1807C235.703 96.3533 235.874 96.008 235.874 95.6626C235.532 95.4899 235.703 95.4899 235.532 95.4899C235.703 95.6626 235.36 96.1807 235.532 96.1807ZM235.703 103.261H235.874C235.703 103.261 235.703 103.261 235.703 103.261ZM263.261 105.333C263.09 105.333 262.748 105.16 262.748 105.506C262.748 105.679 263.09 106.024 263.09 106.197L263.432 107.578C263.432 107.751 263.604 107.923 263.775 108.096C264.117 108.614 264.117 108.614 264.288 108.096C264.631 106.887 264.802 105.851 263.946 104.47C263.775 104.642 263.604 104.47 263.432 104.47C263.432 104.642 263.432 105.333 263.261 105.333ZM256.072 121.221C255.901 121.393 256.072 121.739 256.072 121.911C256.072 122.084 256.243 121.911 256.243 122.084C256.414 122.084 256.586 122.257 256.586 122.084C256.757 121.739 256.586 121.566 256.414 121.048C256.243 121.221 256.243 121.048 256.072 121.221ZM236.901 127.955C237.072 127.783 237.414 127.783 237.243 127.437C236.73 127.437 236.559 127.437 236.216 127.955C236.387 127.955 236.73 128.128 236.901 127.955ZM252.991 130.2C252.82 130.028 252.649 129.855 252.477 130.373C252.477 130.546 252.649 130.373 252.82 130.546C252.82 130.546 252.477 131.064 252.649 131.064C252.82 131.236 252.991 130.891 252.991 130.718C253.162 130.373 253.162 130.2 252.991 130.2ZM252.306 135.726C252.649 135.899 252.991 135.899 253.333 135.899C253.676 135.554 254.018 135.208 253.847 134.518C253.676 134.345 253.504 134.345 253.333 134.518C253.162 134.518 253.162 134.69 253.162 134.863C252.991 135.036 252.477 135.381 252.306 135.726ZM232.622 138.317C232.622 138.489 232.964 138.317 232.964 138.317H232.622ZM234.504 147.987C234.676 147.987 234.676 148.505 234.847 148.505C234.847 148.333 234.676 148.16 234.676 148.16C234.504 147.987 234.676 147.815 234.504 147.642C234.504 147.642 234.504 147.815 234.333 147.987H234.504ZM238.784 149.196C238.784 149.196 238.955 149.023 239.126 149.023C239.126 149.023 238.784 149.023 238.784 149.196ZM254.874 174.409C255.045 173.373 254.703 173.373 253.847 173.373C253.847 173.545 253.676 173.545 253.676 173.718C253.676 174.063 254.189 173.891 254.189 174.236C254.36 174.236 254.531 174.409 254.874 174.409ZM233.477 174.063V174.236C233.477 174.236 233.477 174.236 233.477 174.063ZM257.784 176.826H258.297C258.297 176.308 257.784 176.136 257.441 176.136C257.441 176.136 257.099 175.963 257.099 176.136C256.928 176.308 257.099 176.481 257.27 176.654C257.27 176.999 257.441 176.999 257.784 176.826ZM259.495 176.308L259.667 176.136C259.495 175.963 259.495 176.136 259.495 176.308ZM259.495 176.999C259.667 176.826 259.495 176.481 259.495 176.308V176.481C259.495 176.654 259.495 176.999 259.495 176.999ZM237.928 179.417C237.928 179.071 238.27 179.071 238.27 178.726C238.099 178.899 237.928 179.071 237.928 179.417ZM235.703 187.015C235.874 185.979 235.703 184.77 236.045 183.561C236.045 183.043 236.559 182.352 236.559 181.834C236.559 181.489 236.216 181.489 236.045 181.489C235.532 181.489 234.847 182.007 234.847 182.698C234.847 182.698 235.018 182.698 235.189 182.87C235.36 182.87 235.703 183.216 235.703 183.561C235.703 183.907 235.36 184.252 235.189 184.425L235.018 184.597C235.018 184.77 235.36 184.77 235.36 184.77C235.532 185.633 235.189 186.497 234.676 187.188C234.504 187.533 234.847 188.051 235.018 188.396C235.189 188.742 235.018 188.742 235.36 188.569C235.532 188.569 235.36 188.569 235.532 188.224C235.532 187.878 235.703 187.533 235.703 187.015ZM262.748 190.641C262.919 190.641 263.261 190.641 263.261 190.469C263.261 190.296 262.748 190.469 262.576 190.296C262.576 190.469 262.405 190.296 262.405 190.469C262.405 190.641 262.576 190.641 262.748 190.641ZM264.117 191.85H264.288C264.288 191.85 264.288 191.85 264.117 191.85ZM236.73 205.02C236.901 205.193 236.73 205.193 236.901 205.193C236.901 205.193 236.901 205.02 236.73 205.02Z" fill="#2D4057"></path>
<path d="M213.846 178.973C213.846 181.003 214 181.003 214 182.877C214 184.75 213.385 184.75 213.385 186.468C213.385 187.717 213.846 188.81 213.692 189.747C213.231 190.84 212.923 191.933 212.462 193.026C212.154 193.963 211.385 194.9 210.769 195.837C210.154 196.774 209.692 197.71 208.923 198.491C208.154 199.116 207.385 200.053 206.462 200.677C205.538 201.302 204.462 201.458 203.385 201.926L200.462 202.863C199.385 203.019 198.462 203.8 197.231 203.956C196.154 204.112 195.077 203.8 194.154 203.8C193.077 203.8 192 203.488 191.077 203.488C190 203.332 188.769 203.644 187.846 203.488C186.769 203.176 185.846 202.551 184.769 202.083L181.692 200.677C180.769 200.053 180.308 199.116 179.538 198.335C178.769 197.554 178 196.93 177.385 195.837L176 192.87C175.692 191.777 175.385 190.684 175.077 189.591C174.923 188.654 174.308 187.717 174.308 186.624C174.154 185.531 174.308 184.438 174.308 183.345C174.308 181.627 174.462 181.627 174.462 179.91C174.462 178.192 174 178.192 174 176.631C174 174.913 174.462 174.913 174.462 173.196C174.462 171.478 174.615 171.478 174.615 169.604V166.325C174.615 164.764 174.462 164.764 174.462 162.89C174.462 161.329 174.308 161.329 174.308 159.611V156.332C174.308 154.614 174.462 154.614 174.462 152.897C174.462 151.179 174.615 151.179 174.615 149.618C174.615 147.744 174.462 147.744 174.462 145.87C174.462 144.309 174.308 144.309 174.308 142.591C174.308 141.03 174 141.03 174 139.312C174 137.751 174.154 137.751 174.154 136.033C174.154 134.472 174 134.472 174 132.598C174 130.724 174.462 130.724 174.462 129.163C174.462 127.445 174.154 127.445 174.154 125.884C174.154 124.01 174.308 124.01 174.308 122.448C174.308 120.731 174 120.731 174 119.169C174 117.452 174.615 117.452 174.615 115.734V112.299C174.615 111.05 174.615 110.113 174.615 109.02L175.077 105.897C175.385 104.96 175.692 103.867 176 102.93C176.462 101.993 176.923 100.9 177.538 99.9634C178.154 99.0265 178.462 97.9335 179.231 97.1528C180 96.3721 180.769 95.7475 181.692 95.1229C182.615 94.4983 183.692 94.0299 184.769 93.7176C185.846 93.093 186.923 93.093 188 92.7807L191.077 92.3123C192 92.1561 193.077 92.1561 194.154 92.1561C195.231 92.1561 196.308 92 197.538 92C198.769 92.1561 199.846 92.3123 200.923 92.6246C202.154 92.9369 203.231 93.2492 204.462 93.8737C205.385 94.3422 206.462 94.9668 207.385 95.5913C208.462 96.2159 209.385 96.8405 210.154 97.7774C210.923 98.5581 211.692 99.495 212.154 100.588C212.769 101.681 213.077 102.93 213.385 104.023C213.692 105.116 213.385 106.365 213.385 107.458C213.385 109.02 213.077 109.02 213.077 110.425C213.077 111.83 213.692 111.83 213.692 113.236C213.692 114.797 214 114.797 214 116.359C214 117.139 213.077 117.764 212 117.92C210.462 118.076 210.615 118.389 209.077 118.545C207.385 118.857 207.385 118.701 205.846 118.857L202.615 119.169C201.692 119.325 200.923 118.389 200.923 117.452C200.923 115.11 201.077 115.11 201.077 112.611C201.077 111.362 201.077 109.957 200.615 108.864C200.154 107.771 199.231 106.834 197.846 106.209C196.769 105.897 195.538 105.897 194.154 105.897C192.615 105.897 191.538 106.053 190.615 106.522C189.385 107.146 188.923 108.083 188.462 109.176C188 110.269 187.846 111.518 187.846 112.611C187.846 114.485 187.385 114.485 187.385 116.203C187.385 117.92 187.538 117.92 187.538 119.482C187.538 121.199 187.231 121.199 187.231 122.761C187.231 124.634 187.385 124.634 187.385 126.196V129.475C187.385 131.036 187.231 131.036 187.231 132.91C187.231 134.628 187.538 134.628 187.538 136.345C187.538 137.907 187.231 137.907 187.231 139.468C187.231 141.186 187.692 141.186 187.692 142.747C187.692 144.465 187.231 144.465 187.231 146.026V149.618C187.231 151.179 187.231 151.179 187.231 152.897C187.231 154.614 187.538 154.614 187.538 156.332V159.455C187.538 161.172 187.692 161.172 187.692 162.734V166.169C187.692 167.731 187.231 167.731 187.231 169.448C187.231 171.166 187.692 171.166 187.692 172.883C187.692 174.601 187.231 174.601 187.231 176.319C187.231 177.88 187.692 177.88 187.692 179.441V182.877C187.692 184.126 187.692 185.531 188 186.624C188.462 187.717 189.231 188.654 190.462 189.279C191.385 189.747 192.615 189.747 194.154 189.747C195.692 189.747 196.615 189.435 197.538 188.966C198.923 188.342 200.154 187.873 200.615 186.624C201.077 185.531 201.231 184.126 201.231 182.877C201.231 180.691 201.077 180.691 201.077 178.348C201.077 177.412 201.692 176.943 202.615 176.943C204.308 177.099 204.308 176.631 205.846 176.787C207.385 176.787 207.385 177.099 208.923 177.255C210.462 177.255 210.615 176.787 212 176.943C212.923 177.099 213.846 178.036 213.846 178.973ZM185.231 101.837C185.231 102.306 185.692 102.774 186.154 102.93C186.462 102.93 186.462 102.306 186.615 101.993C186.769 101.056 186.769 100.9 186.308 100.588C186 100.9 185.231 100.9 185.231 101.837ZM205.538 102.774C205.538 102.93 205.385 102.93 205.385 102.93L205.538 103.399C205.692 103.399 205.538 103.086 205.538 102.774ZM179.692 103.867C179.692 104.023 179.538 104.023 179.538 104.179C179.692 104.023 179.692 104.023 179.692 103.867ZM178.923 106.834V106.99C179.385 106.678 179.846 106.053 179.846 105.429C179.846 105.116 179.538 104.804 179.385 104.492C179.231 105.272 179.231 106.053 178.923 106.834ZM207.385 111.987C207.231 111.83 207.231 111.674 207.077 111.83C207.077 111.83 207.231 111.987 207.231 112.143C207.231 112.299 207.077 112.611 207.231 112.611C207.385 112.767 208 112.455 208.154 112.143L207.385 111.987ZM204.769 112.455V113.08C204.769 113.08 205.077 112.923 205.231 112.923C205.231 112.923 205.385 113.236 205.538 113.236C205.692 113.236 206 112.923 206 112.611C206 112.455 205.538 112.611 205.538 112.455C205.385 112.455 205.231 111.987 204.923 112.143H205.077C205.077 112.299 204.769 112.455 204.769 112.455ZM178.923 116.671C179.077 116.983 179.538 116.983 179.692 116.671C179.538 116.671 179.538 116.203 179.385 116.203C179.385 116.046 179.385 116.515 179.231 116.515C179.231 116.671 178.923 116.671 178.923 116.671ZM181.231 118.232C181.077 118.701 181.077 118.389 181.231 118.857C181.538 118.389 181.538 118.701 181.231 118.232ZM179.692 126.977C179.692 127.133 179.846 127.445 179.846 127.445L179.692 127.601C179.692 127.601 179.846 127.445 180 127.445L179.692 126.977ZM183.231 159.455C183.231 159.299 183.538 159.455 183.538 159.299C183.538 159.455 183.077 159.299 183.077 159.299L183.231 159.455ZM183.077 159.455V159.611H183.231C183.231 159.455 183.077 159.455 183.077 159.455ZM181.538 168.355C181.538 168.199 182 168.199 182 168.043C182 167.731 181.385 167.418 181.231 167.731C181.077 167.731 181.231 168.043 181.231 168.199C181.231 168.511 181.077 168.98 181.231 169.136C181.231 169.292 181.692 169.292 181.692 169.292C182.154 169.136 181.538 168.667 181.538 168.355ZM178.769 174.132C178.923 173.82 179.077 173.664 179.077 173.508L178.615 173.039C178.615 173.196 178.923 173.664 178.923 173.82C178.923 173.82 178.769 173.82 178.769 174.132ZM179.846 174.132C179.846 174.445 180.308 175.069 180.615 174.913C180.769 174.913 180.615 174.445 180.615 174.132C180.615 173.664 180.769 173.508 180.462 173.508C180.154 173.508 179.846 173.664 179.846 174.132ZM181.077 181.471V181.159L180.923 181.315C181.077 181.159 181.077 181.471 181.077 181.471ZM180.769 181.315C180.769 181.471 180.769 181.315 180.923 181.315H180.769ZM182.615 181.784L182.923 181.94C182.923 181.94 182.769 181.784 182.615 181.784ZM209.077 185.843C209.231 185.843 209.538 185.219 209.538 185.063C209.385 184.907 208.923 185.063 208.769 185.063C208.615 184.907 208.615 184.75 208.462 184.75C208.462 184.907 208.615 185.063 208.615 185.375C208.923 185.375 208.923 185.687 209.077 185.843ZM206 187.873C205.692 187.873 205.231 188.342 205.385 188.654C205.385 188.966 205.692 189.279 205.692 189.591C205.846 189.747 206.154 189.591 206.154 189.591C206.308 189.591 206.462 189.591 206.615 189.435C206.615 189.279 206.769 189.122 206.769 188.966C206.769 188.81 206.154 188.654 206.154 188.498C206 188.186 206.154 187.873 206 187.873ZM204.615 188.342L204.923 188.654C204.923 188.654 204.769 188.498 204.615 188.342ZM182.769 190.059C183.077 189.747 182.923 189.435 182.769 188.654C182.462 188.966 182.308 188.81 182.154 189.122C182 189.122 182 189.747 182.154 189.903L182.769 190.059ZM203.846 189.591H204.154C204.154 189.435 203.846 189.591 203.846 189.591ZM186.308 190.372C186.154 190.215 186.154 190.372 186.154 190.528V190.684L186.308 190.372ZM208.923 192.089C208.923 192.089 209.077 191.933 208.923 191.777C208.923 191.465 208.615 191.777 208.308 191.777C208.154 191.933 207.692 191.777 207.538 191.933C207.231 192.245 207.077 192.87 206.615 192.87C206.154 193.026 205.692 193.182 205.538 193.651C205.385 194.275 205.538 194.9 205.231 195.212C205.231 195.368 205.077 195.056 205.077 195.212C205.077 195.368 205.077 195.212 205.231 195.368C205.538 195.368 205.538 195.993 205.846 195.993C206 195.993 206 195.524 206.154 195.524C206.462 195.368 206.769 195.056 207.077 194.744H207.385C207.538 193.651 207.692 193.182 208.462 193.026L208.308 192.714C208.462 192.402 208.923 192.245 208.923 192.089ZM187.077 192.402C187.077 192.714 187.538 192.87 187.538 192.87L187.231 192.402C187.231 192.245 187.385 192.089 187.385 192.089L187.077 192.402ZM188.769 192.402C188.923 192.714 189.231 192.714 189.385 192.714C189.077 192.558 188.923 192.402 188.769 192.402ZM186.615 193.338L186.923 192.714C186.615 192.87 186.154 192.714 186.154 192.87C186 192.87 186.462 193.182 186.462 193.182C186.462 193.338 186.462 193.495 186.615 193.338ZM191.077 195.837C191.538 195.212 191.846 195.212 191.231 193.963C191.385 193.807 191.385 193.495 191.385 193.338C191.077 193.182 190.615 193.495 190.308 193.338C190.308 193.651 190.154 193.651 190 193.963C190 194.275 190.308 194.431 190.308 194.588C190.308 195.056 190.308 195.368 190.615 195.368C190.769 195.212 190.769 195.368 190.923 195.368C191.077 195.368 190.923 195.368 190.923 195.681C190.923 195.681 191.077 195.681 191.077 195.837ZM187.692 195.524C188 194.9 188 194.9 187.538 194.275C187.385 195.212 187.231 195.056 187.692 195.524ZM198.615 195.993L199.077 196.305C199.077 195.993 198.769 195.993 198.615 195.837V195.993Z" fill="#2D4057"></path>
</svg><style>@media (prefers-color-scheme: light) { :root { filter: none; } }
</style></svg>