<?xml version="1.0" standalone="no"?>
<!DOCTYPE svg PUBLIC "-//W3C//DTD SVG 20010904//EN"
 "http://www.w3.org/TR/2001/REC-SVG-20010904/DTD/svg10.dtd">
<svg version="1.0" xmlns="http://www.w3.org/2000/svg"
 width="700.000000pt" height="700.000000pt" viewBox="0 0 700.000000 700.000000"
 preserveAspectRatio="xMidYMid meet">
<metadata>
Created by potrace 1.14, written by Peter Selinger 2001-2017
</metadata>
<g transform="translate(0.000000,700.000000) scale(0.100000,-0.100000)"
fill="#000000" stroke="none">
<path d="M3278 6996 c-1 -2 -42 -6 -89 -10 -47 -4 -95 -8 -106 -10 -11 -3 -44
-7 -73 -11 -29 -4 -60 -8 -69 -10 -9 -1 -36 -6 -61 -10 -266 -43 -624 -159
-895 -290 -177 -86 -453 -251 -554 -331 -241 -190 -261 -208 -410 -355 -271
-269 -524 -628 -685 -972 -25 -55 -46 -101 -46 -103 0 -2 -11 -27 -24 -56 -60
-133 -155 -432 -181 -569 -3 -13 -11 -58 -20 -99 -21 -107 -25 -129 -31 -185
-3 -27 -7 -57 -9 -65 -26 -95 -26 -673 0 -831 2 -13 6 -46 10 -74 9 -78 26
-174 50 -285 30 -142 109 -391 174 -555 41 -101 159 -342 213 -432 113 -190
311 -463 413 -569 161 -170 267 -273 355 -344 30 -25 61 -51 70 -59 54 -51
282 -208 425 -293 370 -219 846 -385 1274 -444 25 -3 57 -8 71 -10 163 -25
682 -25 842 1 13 2 46 7 73 10 71 10 87 13 115 18 14 3 43 8 65 12 173 31 441
111 648 194 468 187 945 524 1287 910 36 41 70 79 76 85 6 6 48 61 94 121 149
196 275 403 383 628 26 54 47 100 47 102 0 2 11 28 24 57 57 127 151 421 182
573 17 81 54 301 59 350 4 33 9 71 11 85 9 47 11 525 3 605 -15 165 -21 220
-24 225 -2 3 -6 30 -10 60 -7 55 -58 297 -75 355 -127 428 -282 761 -508 1085
-163 234 -389 484 -592 654 -47 39 -94 79 -105 89 -43 39 -270 195 -377 260
-136 81 -354 190 -498 247 -230 92 -545 179 -740 205 -19 3 -46 7 -60 10 -13
2 -52 7 -86 11 -33 3 -74 8 -90 10 -32 5 -540 14 -546 10z m447 -90 c55 -4
118 -8 140 -11 93 -11 182 -23 219 -31 11 -2 37 -7 56 -10 19 -3 71 -14 115
-25 44 -11 89 -21 100 -24 251 -56 648 -222 905 -379 729 -444 1263 -1129
1505 -1931 103 -340 147 -638 147 -995 0 -227 -8 -329 -47 -565 -68 -417 -214
-814 -438 -1190 -63 -107 -201 -307 -256 -371 -14 -17 -42 -51 -61 -75 -57
-72 -338 -350 -430 -426 -381 -314 -826 -545 -1285 -668 -311 -82 -584 -118
-905 -117 -188 0 -335 10 -470 32 -30 5 -73 12 -95 15 -36 5 -209 41 -245 50
-8 2 -42 11 -75 20 -438 117 -868 336 -1240 632 -140 111 -415 386 -529 528
-321 402 -564 905 -662 1365 -2 14 -7 33 -10 42 -6 21 -8 32 -28 153 -26 152
-30 183 -42 325 -7 77 -6 422 0 500 14 153 47 380 72 487 9 37 17 75 19 83 38
184 167 527 283 750 155 301 357 576 612 831 151 152 181 179 325 294 233 186
592 388 888 499 86 32 136 49 307 101 47 14 319 71 380 79 19 3 58 8 85 11 28
4 61 8 75 11 14 2 81 7 150 10 69 4 126 7 127 8 4 3 212 -3 308 -8z"/>
<path d="M3328 6695 c-2 -1 -46 -5 -98 -9 -52 -3 -106 -8 -120 -10 -14 -3 -43
-7 -65 -10 -236 -31 -548 -118 -785 -219 -104 -44 -329 -158 -372 -188 -14
-11 -29 -19 -33 -19 -8 0 -168 -108 -250 -169 -213 -158 -450 -390 -608 -594
-339 -438 -560 -948 -637 -1472 -6 -44 -13 -91 -15 -105 -24 -144 -24 -650 0
-765 3 -11 7 -38 10 -60 103 -745 481 -1443 1052 -1942 51 -45 121 -102 155
-128 35 -25 70 -52 79 -59 70 -57 291 -192 428 -261 310 -155 712 -280 1001
-310 30 -4 66 -8 80 -11 123 -22 542 -22 710 0 14 2 48 7 75 10 77 10 214 36
280 53 33 8 68 16 77 18 84 17 310 93 456 154 108 45 323 158 440 231 87 55
316 219 332 239 3 4 29 26 58 50 118 97 286 273 412 431 78 98 250 350 250
366 0 4 6 15 14 23 20 22 137 259 179 361 106 258 186 554 213 785 3 28 7 56
10 64 8 25 18 227 18 376 0 175 -12 356 -29 445 -3 14 -7 43 -11 65 -3 22 -7
47 -9 55 -2 8 -7 29 -10 47 -3 18 -12 63 -20 100 -9 37 -18 78 -20 90 -13 55
-79 254 -119 356 -94 241 -215 464 -366 677 -120 169 -186 246 -350 411 -335
335 -718 578 -1173 743 -166 60 -459 134 -602 151 -27 3 -68 9 -90 12 -22 3
-56 7 -75 9 -43 5 -468 13 -472 9z"/>
</g>
</svg>
