<?xml version="1.0" standalone="no"?>
<!DOCTYPE svg PUBLIC "-//W3C//DTD SVG 20010904//EN"
 "http://www.w3.org/TR/2001/REC-SVG-20010904/DTD/svg10.dtd">
<svg version="1.0" xmlns="http://www.w3.org/2000/svg"
 width="512.000000pt" height="512.000000pt" viewBox="0 0 512.000000 512.000000"
 preserveAspectRatio="xMidYMid meet">
<metadata>
Created by potrace 1.14, written by Peter Selinger 2001-2017
</metadata>
<g transform="translate(0.000000,512.000000) scale(0.100000,-0.100000)"
fill="#000000" stroke="none">
<path d="M2345 4933 c-43 -5 -215 -32 -245 -38 -14 -3 -41 -8 -60 -12 -46 -9
-50 -10 -52 -13 -2 -1 -12 -3 -23 -5 -38 -7 -203 -61 -300 -98 -122 -47 -453
-234 -502 -283 -8 -8 -18 -14 -22 -14 -4 0 -16 -8 -27 -18 -10 -9 -41 -35 -69
-57 -50 -39 -269 -255 -315 -310 -54 -65 -190 -251 -190 -261 0 -3 -8 -18 -19
-32 -104 -148 -276 -577 -296 -739 -2 -11 -5 -29 -9 -40 -3 -10 -8 -38 -11
-63 -4 -24 -8 -47 -10 -50 -26 -45 -26 -565 0 -701 3 -13 7 -37 10 -54 5 -31
10 -57 21 -110 3 -16 15 -61 26 -99 11 -38 21 -76 23 -85 17 -82 126 -336 204
-471 79 -138 212 -328 281 -401 8 -8 36 -38 61 -65 79 -84 211 -204 279 -254
18 -14 45 -34 59 -46 29 -23 136 -93 166 -110 38 -20 70 -39 75 -44 8 -8 190
-96 255 -123 125 -52 299 -105 426 -131 105 -21 131 -25 137 -24 4 1 25 -1 47
-5 22 -4 71 -10 109 -13 39 -3 73 -7 78 -10 4 -3 8 0 8 6 0 7 6 8 19 1 10 -6
62 -8 117 -6 145 6 206 11 347 31 72 10 80 12 172 34 625 150 1156 537 1494
1089 116 188 245 499 277 666 2 11 7 31 10 45 36 153 58 342 59 510 0 111 -12
307 -20 320 -2 4 -6 29 -9 56 -26 238 -156 610 -295 839 -17 28 -39 66 -50 86
-11 19 -27 41 -35 48 -9 8 -16 19 -16 26 0 8 -4 15 -8 17 -5 2 -22 23 -39 48
-18 25 -42 57 -55 72 -13 14 -37 43 -55 65 -79 96 -298 300 -389 363 -12 8
-56 39 -97 68 -42 28 -79 52 -83 52 -4 0 -15 6 -23 14 -25 21 -167 93 -276
141 -141 61 -339 126 -435 141 -14 2 -36 7 -50 10 -39 9 -119 22 -190 31 -53
6 -442 11 -485 6z"/>
</g>
</svg>
