<?xml version="1.0" encoding="UTF-8"?>
<!-- Created with Inkscape (http://www.inkscape.org/) -->
<svg width="1997.4" height="770.78" version="1.1" viewBox="0 0 1997.4 770.78" xmlns="http://www.w3.org/2000/svg">
 <defs>
  <clipPath id="clip8">
   <path d="m362 618h54v33h-54z"/>
  </clipPath>
  <clipPath id="clip9">
   <path d="m366.98 618.07c-2.7226 0-4.9297 2.5508-4.9297 5.6875v24.34c4.9258 1.5078 10.277 2.3438 15.879 2.3438 15.766 0 29.582-6.543 37.285-16.355v-10.328c0-3.1367-2.207-5.6875-4.9258-5.6875z"/>
  </clipPath>
  <radialGradient id="radial2" cx="0" cy="0" r="48.683" gradientTransform="matrix(1.1351 .25817 -.17353 .81774 366.02 621.84)" gradientUnits="userSpaceOnUse">
   <stop stop-color="#dae0ec" offset="0"/>
   <stop stop-color="#dadfec" offset=".0625"/>
   <stop stop-color="#d9dfec" offset=".089844"/>
   <stop stop-color="#d8deec" offset=".11719"/>
   <stop stop-color="#d7ddec" offset=".14453"/>
   <stop stop-color="#d7ddeb" offset=".15625"/>
   <stop stop-color="#d6ddeb" offset=".16797"/>
   <stop stop-color="#d6dceb" offset=".17969"/>
   <stop stop-color="#d5dceb" offset=".19141"/>
   <stop stop-color="#d5dbeb" offset=".20312"/>
   <stop stop-color="#d4dbeb" offset=".21484"/>
   <stop stop-color="#d3daea" offset=".22656"/>
   <stop stop-color="#d3daea" offset=".23828"/>
   <stop stop-color="#d2d9ea" offset=".25"/>
   <stop stop-color="#d1d9ea" offset=".26172"/>
   <stop stop-color="#d1d8ea" offset=".26953"/>
   <stop stop-color="#d0d8ea" offset=".27734"/>
   <stop stop-color="#d0d8e9" offset=".28516"/>
   <stop stop-color="#cfd7e9" offset=".29297"/>
   <stop stop-color="#ced7e9" offset=".30078"/>
   <stop stop-color="#ced6e9" offset=".30859"/>
   <stop stop-color="#cdd6e9" offset=".31641"/>
   <stop stop-color="#cdd5e9" offset=".32422"/>
   <stop stop-color="#ccd5e8" offset=".33203"/>
   <stop stop-color="#cbd4e8" offset=".33984"/>
   <stop stop-color="#cbd4e8" offset=".34766"/>
   <stop stop-color="#cad4e8" offset=".35547"/>
   <stop stop-color="#c9d3e8" offset=".36328"/>
   <stop stop-color="#c9d2e7" offset=".37109"/>
   <stop stop-color="#c8d2e7" offset=".37891"/>
   <stop stop-color="#c7d1e7" offset=".38672"/>
   <stop stop-color="#c7d1e7" offset=".39453"/>
   <stop stop-color="#c6d0e7" offset=".40234"/>
   <stop stop-color="#c5d0e6" offset=".41016"/>
   <stop stop-color="#c4cfe6" offset=".41797"/>
   <stop stop-color="#c3cfe6" offset=".42578"/>
   <stop stop-color="#c3cee6" offset=".43359"/>
   <stop stop-color="#c2cde6" offset=".44141"/>
   <stop stop-color="#c1cde5" offset=".44922"/>
   <stop stop-color="#c0cce5" offset=".45703"/>
   <stop stop-color="#bfcce5" offset=".46484"/>
   <stop stop-color="#becbe5" offset=".47266"/>
   <stop stop-color="#becae4" offset=".48047"/>
   <stop stop-color="#bdcae4" offset=".48828"/>
   <stop stop-color="#bcc9e4" offset=".49609"/>
   <stop stop-color="#bbc9e4" offset=".50391"/>
   <stop stop-color="#bbc8e4" offset=".50781"/>
   <stop stop-color="#bac8e3" offset=".51172"/>
   <stop stop-color="#bac8e3" offset=".51562"/>
   <stop stop-color="#b9c7e3" offset=".51953"/>
   <stop stop-color="#b9c7e3" offset=".52344"/>
   <stop stop-color="#b8c7e3" offset=".52734"/>
   <stop stop-color="#b8c6e3" offset=".53125"/>
   <stop stop-color="#b7c6e3" offset=".53516"/>
   <stop stop-color="#b7c6e3" offset=".53906"/>
   <stop stop-color="#b6c5e2" offset=".54297"/>
   <stop stop-color="#b6c5e2" offset=".54688"/>
   <stop stop-color="#b5c5e2" offset=".55078"/>
   <stop stop-color="#b5c4e2" offset=".55469"/>
   <stop stop-color="#b4c4e2" offset=".55859"/>
   <stop stop-color="#b4c3e2" offset=".5625"/>
   <stop stop-color="#b3c3e2" offset=".56641"/>
   <stop stop-color="#b3c3e1" offset=".57031"/>
   <stop stop-color="#b2c2e1" offset=".57422"/>
   <stop stop-color="#b2c2e1" offset=".57812"/>
   <stop stop-color="#b1c2e1" offset=".58203"/>
   <stop stop-color="#b1c1e1" offset=".58594"/>
   <stop stop-color="#b0c1e1" offset=".58984"/>
   <stop stop-color="#b0c1e1" offset=".59375"/>
   <stop stop-color="#afc0e1" offset=".59766"/>
   <stop stop-color="#afc0e0" offset=".60156"/>
   <stop stop-color="#aebfe0" offset=".60547"/>
   <stop stop-color="#aebfe0" offset=".60938"/>
   <stop stop-color="#adbfe0" offset=".61328"/>
   <stop stop-color="#adbee0" offset=".61719"/>
   <stop stop-color="#acbee0" offset=".62109"/>
   <stop stop-color="#acbedf" offset=".625"/>
   <stop stop-color="#abbddf" offset=".62891"/>
   <stop stop-color="#aabddf" offset=".63281"/>
   <stop stop-color="#aabcdf" offset=".63672"/>
   <stop stop-color="#a9bcdf" offset=".64062"/>
   <stop stop-color="#a9bcdf" offset=".64453"/>
   <stop stop-color="#a8bbdf" offset=".64844"/>
   <stop stop-color="#a8bbde" offset=".65234"/>
   <stop stop-color="#a7bade" offset=".65625"/>
   <stop stop-color="#a6bade" offset=".66016"/>
   <stop stop-color="#a6bade" offset=".66406"/>
   <stop stop-color="#a5b9de" offset=".66797"/>
   <stop stop-color="#a5b9de" offset=".67188"/>
   <stop stop-color="#a4b8dd" offset=".67578"/>
   <stop stop-color="#a4b8dd" offset=".67969"/>
   <stop stop-color="#a3b8dd" offset=".68359"/>
   <stop stop-color="#a2b7dd" offset=".6875"/>
   <stop stop-color="#a2b7dd" offset=".69141"/>
   <stop stop-color="#a1b6dd" offset=".69531"/>
   <stop stop-color="#a1b6dc" offset=".69922"/>
   <stop stop-color="#a0b6dc" offset=".70312"/>
   <stop stop-color="#9fb5dc" offset=".70703"/>
   <stop stop-color="#9fb5dc" offset=".71094"/>
   <stop stop-color="#9eb4dc" offset=".71484"/>
   <stop stop-color="#9eb4dc" offset=".71875"/>
   <stop stop-color="#9db4dc" offset=".72266"/>
   <stop stop-color="#9cb3db" offset=".72656"/>
   <stop stop-color="#9cb3db" offset=".73047"/>
   <stop stop-color="#9bb2db" offset=".73438"/>
   <stop stop-color="#9ab2db" offset=".73828"/>
   <stop stop-color="#9ab1db" offset=".74219"/>
   <stop stop-color="#99b1da" offset=".74609"/>
   <stop stop-color="#99b1da" offset=".75"/>
   <stop stop-color="#98b0da" offset=".75391"/>
   <stop stop-color="#97b0da" offset=".75781"/>
   <stop stop-color="#97afda" offset=".76172"/>
   <stop stop-color="#96afda" offset=".76562"/>
   <stop stop-color="#95afd9" offset=".76953"/>
   <stop stop-color="#95aed9" offset=".77344"/>
   <stop stop-color="#94aed9" offset=".77734"/>
   <stop stop-color="#93add9" offset=".78125"/>
   <stop stop-color="#93add9" offset=".78516"/>
   <stop stop-color="#92acd9" offset=".78906"/>
   <stop stop-color="#91acd8" offset=".79297"/>
   <stop stop-color="#91acd8" offset=".79688"/>
   <stop stop-color="#90abd8" offset=".80078"/>
   <stop stop-color="#90abd8" offset=".80469"/>
   <stop stop-color="#8faad8" offset=".80859"/>
   <stop stop-color="#8eaad7" offset=".8125"/>
   <stop stop-color="#8da9d7" offset=".81641"/>
   <stop stop-color="#8da9d7" offset=".82031"/>
   <stop stop-color="#8ca8d7" offset=".82422"/>
   <stop stop-color="#8ba8d7" offset=".82812"/>
   <stop stop-color="#8ba8d7" offset=".83203"/>
   <stop stop-color="#8aa7d6" offset=".83594"/>
   <stop stop-color="#89a7d6" offset=".83984"/>
   <stop stop-color="#89a6d6" offset=".84375"/>
   <stop stop-color="#88a6d6" offset=".84766"/>
   <stop stop-color="#87a5d6" offset=".85156"/>
   <stop stop-color="#87a5d5" offset=".85547"/>
   <stop stop-color="#86a4d5" offset=".85938"/>
   <stop stop-color="#85a4d5" offset=".86328"/>
   <stop stop-color="#85a4d5" offset=".86719"/>
   <stop stop-color="#84a3d5" offset=".87109"/>
   <stop stop-color="#83a3d4" offset=".875"/>
   <stop stop-color="#82a2d4" offset=".87891"/>
   <stop stop-color="#82a2d4" offset=".88281"/>
   <stop stop-color="#81a1d4" offset=".88672"/>
   <stop stop-color="#80a1d4" offset=".89062"/>
   <stop stop-color="#80a0d4" offset=".89453"/>
   <stop stop-color="#7fa0d3" offset=".89844"/>
   <stop stop-color="#7ea0d3" offset=".90234"/>
   <stop stop-color="#7d9fd3" offset=".90625"/>
   <stop stop-color="#7d9fd3" offset=".91016"/>
   <stop stop-color="#7fa1d4" offset=".91406"/>
   <stop stop-color="#80a3d5" offset=".91797"/>
   <stop stop-color="#82a4d6" offset=".92188"/>
   <stop stop-color="#84a6d8" offset=".92578"/>
   <stop stop-color="#85a8d9" offset=".92969"/>
   <stop stop-color="#87aada" offset=".93359"/>
   <stop stop-color="#89acdb" offset=".9375"/>
   <stop stop-color="#8baedc" offset=".94141"/>
   <stop stop-color="#8cb0de" offset=".94531"/>
   <stop stop-color="#8eb2df" offset=".94922"/>
   <stop stop-color="#90b4e0" offset=".95312"/>
   <stop stop-color="#92b6e1" offset=".95703"/>
   <stop stop-color="#94b8e2" offset=".96094"/>
   <stop stop-color="#96bae4" offset=".96484"/>
   <stop stop-color="#97bde5" offset=".96875"/>
   <stop stop-color="#99bfe6" offset=".97266"/>
   <stop stop-color="#9bc1e7" offset=".97656"/>
   <stop stop-color="#9dc3e9" offset=".98047"/>
   <stop stop-color="#9fc5ea" offset=".98438"/>
   <stop stop-color="#a1c7eb" offset=".98828"/>
   <stop stop-color="#a3caec" offset=".99219"/>
   <stop stop-color="#a5ccee" offset=".99609"/>
   <stop stop-color="#a6cdee" offset="1"/>
  </radialGradient>
  <clipPath id="clip10">
   <path d="m362 634h54v42h-54z"/>
  </clipPath>
  <clipPath id="clip11">
   <path d="m377.93 650.44c-5.6016 0-10.953-0.83594-15.879-2.3438v22.09c0 3.1406 2.207 5.6914 4.9297 5.6914h43.309c2.7188 0 4.9258-2.5508 4.9258-5.6914v-36.102c-7.7031 9.8125-21.52 16.355-37.285 16.355"/>
  </clipPath>
  <radialGradient id="radial3" cx="0" cy="0" r="33.3" gradientTransform="matrix(1.1464 -.0050719 .0035233 .85358 373.79 649.12)" gradientUnits="userSpaceOnUse">
   <stop stop-color="#00acee" offset="0"/>
   <stop stop-color="#00abed" offset=".0039062"/>
   <stop stop-color="#00aaec" offset=".0078125"/>
   <stop stop-color="#00aaec" offset=".011719"/>
   <stop stop-color="#00a9eb" offset=".015625"/>
   <stop stop-color="#00a8ea" offset=".019531"/>
   <stop stop-color="#01a7e9" offset=".023438"/>
   <stop stop-color="#01a6e8" offset=".027344"/>
   <stop stop-color="#01a5e8" offset=".03125"/>
   <stop stop-color="#01a5e7" offset=".035156"/>
   <stop stop-color="#01a4e6" offset=".039062"/>
   <stop stop-color="#01a3e5" offset=".042969"/>
   <stop stop-color="#02a2e5" offset=".046875"/>
   <stop stop-color="#02a2e4" offset=".050781"/>
   <stop stop-color="#02a1e3" offset=".054688"/>
   <stop stop-color="#02a0e2" offset=".058594"/>
   <stop stop-color="#02a0e2" offset=".0625"/>
   <stop stop-color="#029fe1" offset=".066406"/>
   <stop stop-color="#029ee0" offset=".070312"/>
   <stop stop-color="#039de0" offset=".074219"/>
   <stop stop-color="#039ddf" offset=".078125"/>
   <stop stop-color="#039cde" offset=".082031"/>
   <stop stop-color="#039bdd" offset=".085938"/>
   <stop stop-color="#039bdd" offset=".089844"/>
   <stop stop-color="#039adc" offset=".09375"/>
   <stop stop-color="#0399db" offset=".097656"/>
   <stop stop-color="#0498db" offset=".10156"/>
   <stop stop-color="#0498da" offset=".10547"/>
   <stop stop-color="#0497d9" offset=".10938"/>
   <stop stop-color="#0496d8" offset=".11328"/>
   <stop stop-color="#0496d8" offset=".11719"/>
   <stop stop-color="#0495d7" offset=".12109"/>
   <stop stop-color="#0494d6" offset=".125"/>
   <stop stop-color="#0594d6" offset=".12891"/>
   <stop stop-color="#0593d5" offset=".13281"/>
   <stop stop-color="#0592d4" offset=".13672"/>
   <stop stop-color="#0592d4" offset=".14062"/>
   <stop stop-color="#0591d3" offset=".14453"/>
   <stop stop-color="#0590d2" offset=".14844"/>
   <stop stop-color="#058fd1" offset=".15234"/>
   <stop stop-color="#058fd1" offset=".15625"/>
   <stop stop-color="#068ed0" offset=".16016"/>
   <stop stop-color="#068dcf" offset=".16406"/>
   <stop stop-color="#068dcf" offset=".16797"/>
   <stop stop-color="#068cce" offset=".17188"/>
   <stop stop-color="#068bcd" offset=".17578"/>
   <stop stop-color="#068bcd" offset=".17969"/>
   <stop stop-color="#068acc" offset=".18359"/>
   <stop stop-color="#0689cb" offset=".1875"/>
   <stop stop-color="#0789ca" offset=".19141"/>
   <stop stop-color="#0788ca" offset=".19531"/>
   <stop stop-color="#0787c9" offset=".19922"/>
   <stop stop-color="#0787c8" offset=".20312"/>
   <stop stop-color="#0786c8" offset=".20703"/>
   <stop stop-color="#0785c7" offset=".21094"/>
   <stop stop-color="#0785c6" offset=".21484"/>
   <stop stop-color="#0784c6" offset=".21875"/>
   <stop stop-color="#0883c5" offset=".22266"/>
   <stop stop-color="#0883c4" offset=".22656"/>
   <stop stop-color="#0882c4" offset=".23047"/>
   <stop stop-color="#0881c3" offset=".23438"/>
   <stop stop-color="#0881c2" offset=".23828"/>
   <stop stop-color="#0880c2" offset=".24219"/>
   <stop stop-color="#0880c1" offset=".24609"/>
   <stop stop-color="#087fc0" offset=".25"/>
   <stop stop-color="#087ec0" offset=".25391"/>
   <stop stop-color="#097ebf" offset=".25781"/>
   <stop stop-color="#097dbe" offset=".26172"/>
   <stop stop-color="#097cbd" offset=".26562"/>
   <stop stop-color="#097cbd" offset=".26953"/>
   <stop stop-color="#097bbc" offset=".27344"/>
   <stop stop-color="#097abb" offset=".27734"/>
   <stop stop-color="#097abb" offset=".28125"/>
   <stop stop-color="#0979ba" offset=".28516"/>
   <stop stop-color="#0978b9" offset=".28906"/>
   <stop stop-color="#0a78b9" offset=".29297"/>
   <stop stop-color="#0a77b8" offset=".29688"/>
   <stop stop-color="#0a77b7" offset=".30078"/>
   <stop stop-color="#0a76b7" offset=".30469"/>
   <stop stop-color="#0a75b6" offset=".30859"/>
   <stop stop-color="#0a75b5" offset=".3125"/>
   <stop stop-color="#0a74b5" offset=".31641"/>
   <stop stop-color="#0a73b4" offset=".32031"/>
   <stop stop-color="#0a73b3" offset=".32422"/>
   <stop stop-color="#0a72b3" offset=".32812"/>
   <stop stop-color="#0b72b2" offset=".33203"/>
   <stop stop-color="#0b71b1" offset=".33594"/>
   <stop stop-color="#0b70b1" offset=".33984"/>
   <stop stop-color="#0b70b0" offset=".34375"/>
   <stop stop-color="#0b6faf" offset=".34766"/>
   <stop stop-color="#0b6faf" offset=".35156"/>
   <stop stop-color="#0b6eae" offset=".35547"/>
   <stop stop-color="#0b6dad" offset=".35938"/>
   <stop stop-color="#0b6dad" offset=".36328"/>
   <stop stop-color="#0b6cac" offset=".36719"/>
   <stop stop-color="#0c6cac" offset=".37109"/>
   <stop stop-color="#0c6bab" offset=".375"/>
   <stop stop-color="#0c6aaa" offset=".37891"/>
   <stop stop-color="#0c6aaa" offset=".38281"/>
   <stop stop-color="#0c69a9" offset=".38672"/>
   <stop stop-color="#0c69a8" offset=".39062"/>
   <stop stop-color="#0c68a8" offset=".39453"/>
   <stop stop-color="#0c67a7" offset=".39844"/>
   <stop stop-color="#0c67a6" offset=".40234"/>
   <stop stop-color="#0c66a6" offset=".40625"/>
   <stop stop-color="#0c66a5" offset=".41016"/>
   <stop stop-color="#0d65a4" offset=".41406"/>
   <stop stop-color="#0d65a4" offset=".41797"/>
   <stop stop-color="#0d64a3" offset=".42188"/>
   <stop stop-color="#0d63a2" offset=".42578"/>
   <stop stop-color="#0d63a2" offset=".42969"/>
   <stop stop-color="#0d62a1" offset=".43359"/>
   <stop stop-color="#0d62a1" offset=".4375"/>
   <stop stop-color="#0d61a0" offset=".44141"/>
   <stop stop-color="#0d619f" offset=".44531"/>
   <stop stop-color="#0d609f" offset=".44922"/>
   <stop stop-color="#0d5f9e" offset=".45312"/>
   <stop stop-color="#0d5f9d" offset=".45703"/>
   <stop stop-color="#0e5e9d" offset=".46094"/>
   <stop stop-color="#0e5e9c" offset=".46484"/>
   <stop stop-color="#0e5d9b" offset=".46875"/>
   <stop stop-color="#0e5d9b" offset=".47266"/>
   <stop stop-color="#0e5c9a" offset=".47656"/>
   <stop stop-color="#0e5b9a" offset=".48047"/>
   <stop stop-color="#0e5b99" offset=".48438"/>
   <stop stop-color="#0e5a98" offset=".48828"/>
   <stop stop-color="#0e5a98" offset=".49219"/>
   <stop stop-color="#0e5997" offset=".49609"/>
   <stop stop-color="#0e5996" offset=".5"/>
   <stop stop-color="#0e5896" offset=".50391"/>
   <stop stop-color="#0e5895" offset=".50781"/>
   <stop stop-color="#0f5795" offset=".51172"/>
   <stop stop-color="#0f5794" offset=".51562"/>
   <stop stop-color="#0f5693" offset=".51953"/>
   <stop stop-color="#0f5593" offset=".52344"/>
   <stop stop-color="#0f5592" offset=".52734"/>
   <stop stop-color="#0f5491" offset=".53125"/>
   <stop stop-color="#0f5491" offset=".53516"/>
   <stop stop-color="#0f5390" offset=".53906"/>
   <stop stop-color="#0f5390" offset=".54297"/>
   <stop stop-color="#0f528f" offset=".54688"/>
   <stop stop-color="#0f528e" offset=".55078"/>
   <stop stop-color="#0f518e" offset=".55469"/>
   <stop stop-color="#0f518d" offset=".55859"/>
   <stop stop-color="#0f508d" offset=".5625"/>
   <stop stop-color="#0f508c" offset=".56641"/>
   <stop stop-color="#0f4f8b" offset=".57031"/>
   <stop stop-color="#104f8b" offset=".57422"/>
   <stop stop-color="#104e8a" offset=".57812"/>
   <stop stop-color="#104e89" offset=".58203"/>
   <stop stop-color="#104d89" offset=".58594"/>
   <stop stop-color="#104c88" offset=".58984"/>
   <stop stop-color="#104c88" offset=".59375"/>
   <stop stop-color="#104b87" offset=".59766"/>
   <stop stop-color="#104b86" offset=".60156"/>
   <stop stop-color="#104a86" offset=".60547"/>
   <stop stop-color="#104a85" offset=".60938"/>
   <stop stop-color="#104985" offset=".61328"/>
   <stop stop-color="#104984" offset=".61719"/>
   <stop stop-color="#104883" offset=".62109"/>
   <stop stop-color="#104883" offset=".625"/>
   <stop stop-color="#104782" offset=".62891"/>
   <stop stop-color="#104782" offset=".63281"/>
   <stop stop-color="#104681" offset=".63672"/>
   <stop stop-color="#104680" offset=".64062"/>
   <stop stop-color="#104580" offset=".64844"/>
   <stop stop-color="#10457f" offset=".65625"/>
   <stop stop-color="#10457e" offset=".66406"/>
   <stop stop-color="#10447e" offset=".67188"/>
   <stop stop-color="#10447d" offset=".67969"/>
   <stop stop-color="#10437c" offset=".6875"/>
   <stop stop-color="#10437c" offset=".69531"/>
   <stop stop-color="#10437b" offset=".70312"/>
   <stop stop-color="#10427a" offset=".71094"/>
   <stop stop-color="#10427a" offset=".71875"/>
   <stop stop-color="#104179" offset=".72656"/>
   <stop stop-color="#104178" offset=".73438"/>
   <stop stop-color="#104178" offset=".74219"/>
   <stop stop-color="#104077" offset=".75"/>
   <stop stop-color="#104077" offset=".75781"/>
   <stop stop-color="#0f4076" offset=".76172"/>
   <stop stop-color="#0f3f76" offset=".76562"/>
   <stop stop-color="#0f3f76" offset=".76953"/>
   <stop stop-color="#0f3f75" offset=".77344"/>
   <stop stop-color="#0f3f75" offset=".77734"/>
   <stop stop-color="#0f3f75" offset=".78125"/>
   <stop stop-color="#0f3e74" offset=".78516"/>
   <stop stop-color="#0f3e74" offset=".78906"/>
   <stop stop-color="#0f3e74" offset=".79297"/>
   <stop stop-color="#0f3e73" offset=".79688"/>
   <stop stop-color="#0f3e73" offset=".80078"/>
   <stop stop-color="#0f3d73" offset=".80469"/>
   <stop stop-color="#0f3d72" offset=".80859"/>
   <stop stop-color="#0f3d72" offset=".8125"/>
   <stop stop-color="#0f3d72" offset=".81641"/>
   <stop stop-color="#0f3c71" offset=".82422"/>
   <stop stop-color="#0f3c70" offset=".83203"/>
   <stop stop-color="#0f3c70" offset=".83984"/>
   <stop stop-color="#0f3b6f" offset=".84766"/>
   <stop stop-color="#0f3b6e" offset=".85547"/>
   <stop stop-color="#0f3a6e" offset=".86328"/>
   <stop stop-color="#0e3a6d" offset=".87109"/>
   <stop stop-color="#0e3a6d" offset=".87891"/>
   <stop stop-color="#0e396c" offset=".88281"/>
   <stop stop-color="#0e396c" offset=".88672"/>
   <stop stop-color="#0e396c" offset=".89062"/>
   <stop stop-color="#0e396b" offset=".89453"/>
   <stop stop-color="#0e396b" offset=".89844"/>
   <stop stop-color="#0e396b" offset=".90234"/>
   <stop stop-color="#0e386a" offset=".90625"/>
   <stop stop-color="#0e386a" offset=".91016"/>
   <stop stop-color="#0e3869" offset=".91797"/>
   <stop stop-color="#0e3769" offset=".92578"/>
   <stop stop-color="#0e3768" offset=".93359"/>
   <stop stop-color="#0e3768" offset=".94141"/>
   <stop stop-color="#0e3667" offset=".94531"/>
   <stop stop-color="#0e3667" offset=".94922"/>
   <stop stop-color="#0e3667" offset=".95312"/>
   <stop stop-color="#0e3666" offset=".95703"/>
   <stop stop-color="#0e3565" offset=".96484"/>
   <stop stop-color="#0e3565" offset=".97266"/>
   <stop stop-color="#0e3565" offset=".97656"/>
   <stop stop-color="#0d3564" offset=".98047"/>
   <stop stop-color="#0d3464" offset=".98828"/>
   <stop stop-color="#0d3463" offset=".99219"/>
   <stop stop-color="#0d3463" offset="1"/>
  </radialGradient>
  <clipPath id="clip12">
   <path d="m369 628h39v39h-39z"/>
  </clipPath>
  <clipPath id="clip13">
   <path d="m400.07 666.14v-31.09h-0.10938l-7.3711 31.09h-8.0859l-7.2188-31.09h-0.10547v31.09h-7.707v-37.199h12.055l7.1562 29.316h0.10937l7.0469-29.316h11.938v37.199z"/>
  </clipPath>
  <linearGradient id="linear0" x1=".001752" x2=".99142" gradientTransform="matrix(38.58 37.723 -36.437 39.942 369.47 628.8)" gradientUnits="userSpaceOnUse">
   <stop stop-color="#fff" offset="0"/>
   <stop stop-color="#fefefe" offset=".25"/>
   <stop stop-color="#fefefe" offset=".375"/>
   <stop stop-color="#fdfdfe" offset=".40625"/>
   <stop stop-color="#fcfdfe" offset=".4375"/>
   <stop stop-color="#fbfcfe" offset=".46875"/>
   <stop stop-color="#fbfbfd" offset=".48438"/>
   <stop stop-color="#fafbfd" offset=".5"/>
   <stop stop-color="#f9fafd" offset=".51562"/>
   <stop stop-color="#f8fafd" offset=".53125"/>
   <stop stop-color="#f7f9fd" offset=".54688"/>
   <stop stop-color="#f7f8fc" offset=".55469"/>
   <stop stop-color="#f6f8fc" offset=".5625"/>
   <stop stop-color="#f5f7fc" offset=".57031"/>
   <stop stop-color="#f5f7fc" offset=".57812"/>
   <stop stop-color="#f4f6fc" offset=".58594"/>
   <stop stop-color="#f4f6fb" offset=".59375"/>
   <stop stop-color="#f3f5fb" offset=".60156"/>
   <stop stop-color="#f2f5fb" offset=".60938"/>
   <stop stop-color="#f1f4fb" offset=".61719"/>
   <stop stop-color="#f0f3fb" offset=".625"/>
   <stop stop-color="#eff3fa" offset=".63281"/>
   <stop stop-color="#eef2fa" offset=".64062"/>
   <stop stop-color="#edf1fa" offset=".64844"/>
   <stop stop-color="#ecf0f9" offset=".65234"/>
   <stop stop-color="#ecf0f9" offset=".65625"/>
   <stop stop-color="#ebf0f9" offset=".66016"/>
   <stop stop-color="#ebeff9" offset=".66406"/>
   <stop stop-color="#eaeff9" offset=".66797"/>
   <stop stop-color="#eaeef9" offset=".67188"/>
   <stop stop-color="#e9eef9" offset=".67578"/>
   <stop stop-color="#e8edf8" offset=".67969"/>
   <stop stop-color="#e8edf8" offset=".68359"/>
   <stop stop-color="#e7ecf8" offset=".6875"/>
   <stop stop-color="#e6ecf8" offset=".69141"/>
   <stop stop-color="#e6ebf8" offset=".69531"/>
   <stop stop-color="#e5ebf7" offset=".69922"/>
   <stop stop-color="#e4eaf7" offset=".70312"/>
   <stop stop-color="#e4eaf7" offset=".70703"/>
   <stop stop-color="#e3e9f7" offset=".71094"/>
   <stop stop-color="#e2e9f7" offset=".71484"/>
   <stop stop-color="#e1e8f6" offset=".71875"/>
   <stop stop-color="#e1e7f6" offset=".72266"/>
   <stop stop-color="#e0e7f6" offset=".72656"/>
   <stop stop-color="#dfe6f6" offset=".73047"/>
   <stop stop-color="#dee6f6" offset=".73438"/>
   <stop stop-color="#dde5f5" offset=".73828"/>
   <stop stop-color="#dce4f5" offset=".74219"/>
   <stop stop-color="#dce4f5" offset=".74609"/>
   <stop stop-color="#dbe3f5" offset=".75"/>
   <stop stop-color="#dae2f4" offset=".75391"/>
   <stop stop-color="#d9e2f4" offset=".75781"/>
   <stop stop-color="#d8e1f4" offset=".76172"/>
   <stop stop-color="#d7e0f4" offset=".76562"/>
   <stop stop-color="#d6dff3" offset=".76953"/>
   <stop stop-color="#d5dff3" offset=".77344"/>
   <stop stop-color="#d4def3" offset=".77734"/>
   <stop stop-color="#d3ddf2" offset=".78125"/>
   <stop stop-color="#d2dcf2" offset=".78516"/>
   <stop stop-color="#d1dbf2" offset=".78906"/>
   <stop stop-color="#d0dbf2" offset=".79297"/>
   <stop stop-color="#cedaf1" offset=".79688"/>
   <stop stop-color="#cdd9f1" offset=".80078"/>
   <stop stop-color="#ccd8f1" offset=".80469"/>
   <stop stop-color="#cbd7f0" offset=".80859"/>
   <stop stop-color="#cad6f0" offset=".8125"/>
   <stop stop-color="#c8d5f0" offset=".81641"/>
   <stop stop-color="#c7d5ef" offset=".82031"/>
   <stop stop-color="#c6d4ef" offset=".82422"/>
   <stop stop-color="#c5d3ef" offset=".82812"/>
   <stop stop-color="#c3d2ee" offset=".83203"/>
   <stop stop-color="#c2d1ee" offset=".83594"/>
   <stop stop-color="#c1d0ed" offset=".83984"/>
   <stop stop-color="#bfcfed" offset=".84375"/>
   <stop stop-color="#beceed" offset=".84766"/>
   <stop stop-color="#bccdec" offset=".85156"/>
   <stop stop-color="#bbccec" offset=".85547"/>
   <stop stop-color="#b9cbeb" offset=".85938"/>
   <stop stop-color="#b8caeb" offset=".86328"/>
   <stop stop-color="#b6c8eb" offset=".86719"/>
   <stop stop-color="#b5c7ea" offset=".87109"/>
   <stop stop-color="#b3c6ea" offset=".875"/>
   <stop stop-color="#b1c5e9" offset=".87891"/>
   <stop stop-color="#b0c4e9" offset=".88281"/>
   <stop stop-color="#aec3e8" offset=".88672"/>
   <stop stop-color="#acc2e8" offset=".89062"/>
   <stop stop-color="#abc0e7" offset=".89453"/>
   <stop stop-color="#a9bfe7" offset=".89844"/>
   <stop stop-color="#a7bee6" offset=".90234"/>
   <stop stop-color="#a5bde6" offset=".90625"/>
   <stop stop-color="#a3bce5" offset=".91016"/>
   <stop stop-color="#a2bae5" offset=".91406"/>
   <stop stop-color="#a0b9e4" offset=".91797"/>
   <stop stop-color="#9eb8e4" offset=".92188"/>
   <stop stop-color="#9cb6e3" offset=".92578"/>
   <stop stop-color="#9ab5e3" offset=".92969"/>
   <stop stop-color="#98b4e2" offset=".93359"/>
   <stop stop-color="#96b3e2" offset=".9375"/>
   <stop stop-color="#94b1e1" offset=".94141"/>
   <stop stop-color="#92b0e1" offset=".94531"/>
   <stop stop-color="#90aee0" offset=".94922"/>
   <stop stop-color="#8daddf" offset=".95312"/>
   <stop stop-color="#8bacdf" offset=".95703"/>
   <stop stop-color="#89aade" offset=".96094"/>
   <stop stop-color="#87a9de" offset=".96484"/>
   <stop stop-color="#84a7dd" offset=".96875"/>
   <stop stop-color="#82a6dc" offset=".97266"/>
   <stop stop-color="#80a5dc" offset=".97656"/>
   <stop stop-color="#7da3db" offset=".98047"/>
   <stop stop-color="#7ba2db" offset=".98438"/>
   <stop stop-color="#79a0da" offset=".98828"/>
   <stop stop-color="#769fd9" offset=".99219"/>
   <stop stop-color="#749dd9" offset=".99609"/>
   <stop stop-color="#719cd8" offset="1"/>
  </linearGradient>
 </defs>
 <g transform="translate(-7.9318e-5 -6.0643e-5)">
  <path d="m2015.8 551.04h-1.8751v-3.8543h2.3959c0.26 0 0.573 0.05 0.885 0.107 0.312 0 0.625 0.107 0.833 0.26 0.26 0.107 0.416 0.312 0.625 0.521 0.107 0.26 0.208 0.573 0.208 0.989 0 0.469-0.107 0.833-0.26 1.0934-0.156 0.26-0.416 0.469-0.677 0.625-0.312 0.107-0.625 0.208-0.989 0.208-0.365 0.05-0.729 0.05-1.1454 0.05m4.0104 0.468c0.573-0.521 0.885-1.3013 0.885-2.3957 0-1.1453-0.365-2.0313-1.0413-2.6043-0.625-0.521-1.6667-0.833-3.0729-0.833h-4.4792v12.031h1.8229v-5.1562h1.9271l3.125 5.1562h1.9792l-3.3333-5.2604c0.833-0.107 1.6145-0.416 2.1875-0.937" display="none" fill="#004b85"/>
  <path d="m2023.5 555.21c-0.416 1.0414-1.0413 1.9791-1.7708 2.8124-0.729 0.781-1.5625 1.4063-2.5521 1.823-1.0414 0.469-2.0834 0.677-3.2812 0.677-1.1454 0-2.2396-0.208-3.2292-0.677-0.989-0.416-1.8751-1.0414-2.6563-1.823-0.729-0.833-1.3027-1.7708-1.7188-2.8124-0.416-1.0933-0.625-2.2917-0.625-3.5417 0-1.2493 0.208-2.3959 0.625-3.4375 0.416-1.0933 0.989-2.0312 1.7188-2.8125 0.781-0.781 1.6667-1.3541 2.6563-1.8229 0.989-0.468 2.0833-0.677 3.2292-0.677 1.1973 0 2.2396 0.208 3.2812 0.677 0.989 0.469 1.8229 1.0413 2.5521 1.8229 0.729 0.781 1.3541 1.7188 1.7708 2.8125 0.416 1.0414 0.625 2.1875 0.625 3.4375 0 1.2493-0.208 2.448-0.625 3.5417m1.6145-7.6042c-0.521-1.2494-1.2493-2.3438-2.1353-3.2291-0.937-0.937-1.9792-1.6667-3.1771-2.1876-1.2493-0.521-2.5-0.781-3.9062-0.781-1.3543 0-2.6563 0.26-3.8543 0.781-1.1973 0.521-2.2916 1.2493-3.1771 2.1876-0.937 0.885-1.6666 1.9791-2.1874 3.2291-0.521 1.2493-0.833 2.6042-0.833 4.0625 0 1.4584 0.312 2.8647 0.833 4.1147 0.521 1.3013 1.2493 2.3437 2.1874 3.3333 0.885 0.885 1.9792 1.6145 3.1771 2.1353 1.1973 0.521 2.5 0.781 3.8543 0.781 1.4062 0 2.6562-0.26 3.9062-0.781 1.1974-0.521 2.2395-1.2493 3.1771-2.1353 0.885-0.989 1.6145-2.0313 2.1353-3.3333 0.573-1.2494 0.781-2.6563 0.781-4.1147 0-1.4583-0.208-2.8125-0.781-4.0625" display="none" fill="#004b85"/>
  <path d="m1002.7 269.9h0.521v142.81h40.104v-201.56h-60.26l-43.125 138.65h-0.521l-45.521-138.65h-60.312v201.56h40.104v-141.41h0.573l47.708 141.41h32.969z" fill="#004b85"/>
  <path d="m1214.4 337.5c-1.8751 7.9688-4.9479 15.208-9.1145 21.615-4.1667 6.3542-9.6355 11.51-16.354 15.365-6.7708 3.8541-14.896 5.7812-24.583 5.7812-9.5833 0-17.76-1.9271-24.531-5.7812-6.7188-3.8542-12.136-9.0104-16.354-15.365-4.1667-6.4062-7.1876-13.646-9.1147-21.615-1.9271-8.0208-2.8645-16.25-2.8645-24.74 0-8.802 0.937-17.396 2.8645-25.677 1.9271-8.2812 4.948-15.625 9.1147-22.135 4.2186-6.5106 9.6353-11.667 16.354-15.521 6.7708-3.8541 14.948-5.8333 24.531-5.8333 9.6876 0 17.812 1.9792 24.583 5.8333 6.7188 3.8543 12.188 9.0104 16.354 15.521 4.1666 6.5104 7.2394 13.854 9.1145 22.135 1.9271 8.2813 2.8645 16.875 2.8645 25.677 0 8.4896-0.937 16.719-2.8645 24.74m39.114-66.615c-4.3229-12.917-10.625-24.167-18.802-33.75-8.177-9.5833-18.177-17.135-30-22.604-11.771-5.4167-25.26-8.1772-40.365-8.1772-14.844 0-28.281 2.7605-40.208 8.1772-11.875 5.4687-21.979 13.021-30.104 22.604-8.2292 9.5834-14.479 20.833-18.854 33.75-4.3749 12.865-6.5104 26.875-6.5104 41.875 0 14.74 2.1355 28.385 6.5104 41.094 4.3751 12.708 10.625 23.802 18.854 33.177 8.1249 9.4271 18.229 16.823 30.104 22.188 11.927 5.3645 25.365 8.0208 40.208 8.0208 15.104 0 28.594-2.6563 40.365-8.0208 11.823-5.3647 21.823-12.76 30-22.188 8.1771-9.3751 14.479-20.469 18.802-33.177 4.3751-12.708 6.5626-26.354 6.5626-41.094 0-15-2.1875-29.01-6.5626-41.875" fill="#004b85"/>
  <path d="m1450.7 336.51v-125.36h-42.812v125.36c0 15.052-2.8647 26.094-8.698 33.177-5.8333 7.0314-16.354 10.573-31.667 10.573-8.6978 0-15.677-1.2494-20.833-3.802-5.2083-2.5522-9.2187-5.8334-12.135-9.8959-2.9167-4.0104-4.8438-8.6979-5.7292-13.958-0.937-5.2604-1.3542-10.625-1.3542-16.094v-125.36h-42.812v125.36c0 27.448 7.1875 47.812 21.667 60.99 14.427 13.177 34.844 19.74 61.198 19.74 25.99 0 46.354-6.6146 61.094-19.896 14.74-13.281 22.083-33.542 22.083-60.833" fill="#004b85"/>
  <path d="m1635.3 352.86c0-11.25-2.2916-20.521-6.9271-27.812-4.6875-7.1875-10.156-13.021-16.51-17.344-6.3541-4.323-12.812-7.5-19.219-9.4792-6.4583-1.9271-11.51-3.3334-15.156-4.0626-12.187-3.2292-22.031-5.8333-29.583-7.9166-7.552-2.0834-13.49-4.1667-17.708-6.1979-4.3229-2.0833-7.1354-4.3229-8.5937-6.7708-1.4584-2.448-2.1875-5.6772-2.1875-9.6355 0-4.3229 0.885-7.8645 2.7083-10.729 1.8229-2.8125 4.1667-5.1562 6.9792-7.0312s5.9375-3.2292 9.4271-3.9584c3.4374-0.729 6.8749-1.1453 10.312-1.1453 5.2604 0 10.156 0.468 14.635 1.4061 4.4271 0.989 8.3855 2.5522 11.823 4.7918 3.4374 2.2916 6.25 5.4166 8.3333 9.3749 2.0833 3.9063 3.2813 8.9063 3.698 14.948h41.406c0-11.667-2.1353-21.615-6.4061-29.792-4.2709-8.1771-10.052-14.948-17.292-20.208-7.2916-5.2604-15.573-9.0625-24.948-11.406-9.3751-2.3437-19.167-3.5417-29.323-3.5417-8.75 0-17.448 1.1973-26.198 3.698-8.6979 2.3959-16.562 6.1979-23.438 11.25-6.9271 5.1041-12.5 11.458-16.771 19.062-4.2708 7.6562-6.4063 16.615-6.4063 26.979 0 9.2188 1.6667 17.083 5.0522 23.594 3.3333 6.4584 7.7604 11.875 13.229 16.198 5.4688 4.323 11.615 7.8646 18.542 10.573 6.8749 2.7604 14.01 5.052 21.25 6.927 7.0833 2.0834 14.114 3.9583 20.99 5.6771 6.927 1.6667 13.125 3.6459 18.542 5.9375 5.4688 2.2396 9.8958 5.0521 13.281 8.4374 3.3333 3.3855 5 7.8126 5 13.281 0 5.052-1.2493 9.2708-3.8021 12.552-2.5522 3.2813-5.7292 5.8854-9.5312 7.7605-3.8543 1.8749-7.9167 3.1771-12.292 3.802-4.3229 0.677-8.4374 0.989-12.24 0.989-5.677 0-11.146-0.677-16.406-2.0833-5.2604-1.4063-9.8438-3.5937-13.75-6.5104s-7.0312-6.7188-9.4271-11.458c-2.3437-4.6875-3.5416-10.417-3.5416-17.188h-41.458c-0.156 12.396 2.0313 23.177 6.5625 32.188 4.5312 9.0105 10.677 16.458 18.386 22.292 7.7604 5.8334 16.667 10.104 26.771 12.865 10.052 2.7084 20.469 4.0625 31.198 4.0625 13.281 0 24.948-1.5625 35.052-4.7916 10.104-3.1772 18.542-7.6563 25.364-13.386 6.823-5.7292 11.927-12.552 15.417-20.469 3.4376-7.9166 5.1563-16.51 5.1563-25.729" fill="#004b85"/>
  <path d="m1804.6 375.47h-104.95v-49.427h94.375v-34.427h-94.375v-43.177h102.81v-37.292h-145.62v201.56h147.76z" fill="#004b85"/>
  <path d="m1941.6 295.57c-4.8959 4.5312-12.292 6.7708-22.083 6.7708h-46.927v-56.719h46.927c9.7918 0 17.188 2.1875 22.083 6.6146 4.8959 4.427 7.3437 11.51 7.3437 21.302 0 10.156-2.4478 17.5-7.3437 22.031m49.219 94.01c-0.469-4.5312-0.781-8.9583-0.937-13.229-0.208-4.3749-0.365-8.1249-0.573-11.302-0.365-5.1041-1.0414-10.208-2.0314-15.26-0.989-5.1043-2.6041-9.7396-4.7916-14.01-2.1354-4.2188-5-7.8647-8.4374-10.99-3.4376-3.1251-7.8126-5.4167-13.073-6.9271v-0.573c10.885-4.4792 18.75-11.094 23.594-19.74 4.7916-8.6459 7.2396-18.906 7.2396-30.781 0-7.7083-1.3543-14.896-3.9584-21.562-2.6563-6.7188-6.4583-12.604-11.458-17.656-5.0521-5.1041-11.042-9.1147-18.021-12.031-7.0312-2.9167-14.844-4.375-23.594-4.375h-105v201.56h42.812v-78.75h42.812c10.729 0 18.438 2.4478 23.177 7.3437s7.8125 12.604 9.2708 23.177c1.0933 8.0729 1.927 16.562 2.5 25.417 0.521 8.8022 1.9792 16.458 4.3229 22.813h42.812c-1.9792-2.8126-3.4896-6.198-4.4792-10.26-0.989-4.0626-1.7188-8.3334-2.1874-12.865" fill="#004b85"/>
  <path d="m853.39 514.38h53.542v-14.948h-53.542v-27.396h57.917v-15.781h-76.51v104.48h77.5v-15.781h-58.906z" fill="#004b85"/>
  <path d="m960.68 456.25h-18.594v104.53h72.604v-15.833h-54.01z" fill="#004b85"/>
  <path d="m1059.6 514.38h53.594v-14.948h-53.594v-27.396h57.917v-15.781h-76.51v104.48h77.552v-15.781h-58.958z" fill="#004b85"/>
  <path d="m1218.1 531.61c-1.3027 3.3333-3.0729 6.25-5.3645 8.75-2.2918 2.4479-5 4.4271-8.1772 5.8333-3.1771 1.4062-6.875 2.1354-11.042 2.1354-5.6251 0-10.521-1.1454-14.636-3.3854-4.1145-2.2396-7.5-5.2605-10.052-9.0105-2.5521-3.75-4.4792-8.0208-5.7292-12.812-1.2493-4.7396-1.8229-9.6355-1.8229-14.636 0-4.9478 0.573-9.8437 1.8229-14.635 1.2494-4.7916 3.1771-9.0624 5.7292-12.812 2.552-3.75 5.9375-6.771 10.052-9.0104 4.1147-2.2396 9.0104-3.3855 14.636-3.3855 3.9062 0 7.2916 0.521 10.208 1.5625 2.9167 1.0414 5.4688 2.4479 7.6563 4.323 2.1876 1.8749 4.0104 4.0624 5.4167 6.5624 1.3542 2.5521 2.448 5.3646 3.2292 8.3854h18.594c-0.573-5.677-2.1353-10.677-4.5833-15.104-2.5-4.3751-5.7292-8.1251-9.7396-11.198s-8.6979-5.4167-13.906-7.0312c-5.3124-1.6145-10.885-2.3959-16.875-2.3959-7.9167 0-15.052 1.4584-21.302 4.3751-6.3542 2.9167-11.667 6.8749-16.042 11.875-4.3751 5-7.7084 10.781-10.052 17.396-2.2916 6.6667-3.4896 13.698-3.4896 21.094 0 7.5 1.1987 14.583 3.4896 21.25 2.3438 6.6146 5.6771 12.448 10.052 17.396 4.3749 5 9.6874 8.9063 16.042 11.823 6.2499 2.8646 13.385 4.323 21.302 4.323 6.4582 0 12.396-1.0414 17.708-3.073 5.3647-2.0833 10.052-4.948 14.011-8.75 3.9582-3.75 7.1353-8.2292 9.479-13.385 2.2918-5.1563 3.698-10.886 4.0626-17.136h-18.177c-0.364 3.8021-1.1973 7.3959-2.5 10.677" fill="#004b85"/>
  <path d="m1259.2 472.03h33.594v88.75h18.646v-88.75h33.75v-15.781h-85.99z" fill="#004b85"/>
  <path d="m1433.7 499.64c-3.0728 2.8125-7.6041 4.2187-13.542 4.2187h-30.521v-32.708h30.208c2.3959 0 4.6875 0.208 6.9271 0.625 2.2396 0.364 4.2188 1.1454 5.9376 2.2918 1.7708 1.1973 3.1249 2.8125 4.1145 4.9478 0.989 2.0834 1.5104 4.7918 1.5104 8.1251 0 5.5729-1.5104 9.7396-4.6355 12.5m21.458 33.594c0-4.0625-0.521-7.5-1.5625-10.26-1.0933-2.7084-2.3959-4.948-3.9583-6.6666-1.6146-1.6667-3.2813-2.9167-5.1562-3.698-1.823-0.781-3.5418-1.2494-5.1042-1.4583v-0.312c0.885-0.26 2.2916-0.885 4.2187-1.7708 1.9271-0.885 3.9063-2.2917 5.8855-4.2708 1.9792-2.0313 3.6978-4.6876 5.2082-7.9167 1.5104-3.2813 2.2396-7.3958 2.2396-12.396 0-8.8542-2.9166-15.833-8.802-20.781-5.8333-5-14.635-7.448-26.302-7.448h-50.781v104.53h18.594v-43.073h27.396c4.2709 0 7.7605 0.521 10.521 1.6145 2.7083 1.0933 4.8957 2.7604 6.4583 5.0521 1.5625 2.2916 2.6562 5.2083 3.2813 8.6458 0.573 3.4896 0.885 7.6042 0.885 12.396 0 2.5 0.156 5.1563 0.365 7.8647 0.26 2.7604 1.0413 5.2604 2.4478 7.5h19.948c-1.9791-2.1355-3.4375-5.7292-4.3749-10.781-0.937-5-1.4063-10.625-1.4063-16.771" fill="#004b85"/>
  <path d="m1565.1 523.13c-1.2493 4.7916-3.1251 9.0624-5.7292 12.812s-5.9375 6.7709-10.052 9.0105c-4.1146 2.2395-9.0104 3.3854-14.635 3.3854-5.677 0-10.573-1.1454-14.688-3.3854-4.1145-2.2396-7.4478-5.2605-10.052-9.0105-2.5521-3.75-4.4792-8.0208-5.7292-12.812-1.2493-4.7396-1.8229-9.6355-1.8229-14.636 0-4.9478 0.573-9.8437 1.8229-14.635 1.2494-4.7916 3.1771-9.0624 5.7292-12.812 2.6042-3.75 5.9375-6.771 10.052-9.0104 4.1147-2.2396 9.0106-3.3855 14.688-3.3855 5.625 0 10.521 1.1453 14.635 3.3855 4.1146 2.2394 7.448 5.2604 10.052 9.0104s4.4792 8.0208 5.7292 12.812c1.1973 4.7917 1.8749 9.6876 1.8749 14.635 0 5-0.677 9.8959-1.8749 14.636m6.9271-53.125c-4.3751-5-9.7396-8.9582-15.99-11.875-6.3022-2.9167-13.438-4.3751-21.354-4.3751-7.9688 0-15.052 1.4584-21.354 4.3751-6.3542 2.9167-11.667 6.8749-16.042 11.875-4.3751 5-7.7084 10.781-10 17.396-2.3438 6.6667-3.5418 13.698-3.5418 21.094 0 7.5 1.1987 14.583 3.5418 21.25 2.2916 6.6146 5.6249 12.448 10 17.396 4.3749 5 9.6874 8.9063 16.042 11.823 6.3021 2.8646 13.385 4.323 21.354 4.323 7.9167 0 15.052-1.4584 21.354-4.323 6.25-2.9166 11.614-6.8229 15.99-11.823 4.3749-4.948 7.7082-10.781 10.052-17.396 2.3438-6.6666 3.4896-13.75 3.4896-21.25 0-7.3958-1.1454-14.427-3.4896-21.094-2.3438-6.6145-5.6771-12.396-10.052-17.396" fill="#004b85"/>
  <path d="m1683.7 533.23h-0.26l-48.542-76.979h-19.635v104.48h17.708v-76.823h0.468l48.333 76.823h19.688v-104.48h-17.76z" fill="#004b85"/>
  <path d="m1737 560.73h18.594v-104.48h-18.594z" fill="#004b85"/>
  <path d="m1861.7 531.61c-1.2493 3.3333-3.0208 6.25-5.3125 8.75-2.2916 2.4479-5 4.4271-8.1771 5.8333-3.177 1.4062-6.8749 2.1354-11.042 2.1354-5.625 0-10.521-1.1454-14.635-3.3854-4.1146-2.2396-7.5-5.2605-10.052-9.0105-2.6041-3.75-4.479-8.0208-5.729-12.812-1.2494-4.7396-1.823-9.6355-1.823-14.636 0-4.9478 0.573-9.8437 1.823-14.635 1.2493-4.7916 3.1249-9.0624 5.729-12.812 2.5522-3.75 5.9376-6.771 10.052-9.0104 4.1145-2.2396 9.0104-3.3855 14.635-3.3855 3.9063 0 7.2916 0.521 10.208 1.5625 2.9167 1.0414 5.4688 2.4479 7.6563 4.323 2.1874 1.8749 3.9584 4.0624 5.3645 6.5624 1.4063 2.5521 2.5 5.3646 3.2813 8.3854h18.594c-0.573-5.677-2.1355-10.677-4.5834-15.104-2.5-4.3751-5.7292-8.1251-9.7917-11.198-4.0104-3.0729-8.6457-5.4167-13.906-7.0312-5.2606-1.6145-10.833-2.3959-16.823-2.3959-7.9166 0-15.052 1.4584-21.302 4.3751-6.3541 2.9167-11.667 6.8749-16.042 11.875-4.3751 5-7.7084 10.781-10.052 17.396-2.2918 6.6667-3.4896 13.698-3.4896 21.094 0 7.5 1.1973 14.583 3.4896 21.25 2.3437 6.6146 5.677 12.448 10.052 17.396 4.3749 5 9.6875 8.9063 16.042 11.823 6.25 2.8646 13.386 4.323 21.302 4.323 6.4583 0 12.344-1.0414 17.708-3.073 5.3647-2.0833 10.052-4.948 14.01-8.75 3.9584-3.75 7.0833-8.2292 9.4271-13.385 2.3438-5.1563 3.698-10.886 4.1146-17.136h-18.177c-0.365 3.8021-1.1987 7.3959-2.5522 10.677" fill="#004b85"/>
  <path d="m1988 514.58c-1.7188-2.3959-3.9063-4.5312-6.4584-6.4063-2.6041-1.8229-5.6249-3.2812-9.0625-4.3229-1.4062-0.469-3.6979-1.0414-6.9271-1.875-3.2291-0.833-6.5624-1.6666-9.8957-2.5521-3.3855-0.885-6.4584-1.6667-9.1667-2.4479-2.7605-0.729-4.3229-1.0933-4.6876-1.1973-3.75-1.0933-6.8229-2.6563-9.1667-4.7917-2.3437-2.0834-3.4896-5-3.4896-8.6979 0-2.6563 0.625-4.8437 1.8751-6.6147 1.2493-1.7186 2.7604-3.1249 4.6875-4.1666 1.875-1.0414 3.9584-1.7187 6.25-2.1875 2.2917-0.416 4.5313-0.625 6.7188-0.625 6.4062 0 11.719 1.3541 15.885 4.1145 4.1667 2.8125 6.5105 7.6041 6.9792 14.323h18.646c0-5.4688-1.0934-10.26-3.2812-14.427-2.1876-4.1667-5.1563-7.6563-8.8543-10.469-3.75-2.8646-8.0729-4.9479-12.969-6.4063-4.8958-1.4063-10.156-2.0833-15.677-2.0833-4.7918 0-9.4792 0.573-14.167 1.8229-4.6355 1.1973-8.8022 3.1251-12.5 5.6251-3.6459 2.552-6.6147 5.729-8.8543 9.5833-2.2396 3.8541-3.3333 8.4375-3.3333 13.698 0 2.7604 0.365 5.4166 1.0933 8.0729 0.781 2.6563 2.0313 5.1041 3.8021 7.4479 1.7708 2.3437 4.2188 4.4792 7.2396 6.4062 3.0208 1.8751 6.823 3.3855 11.406 4.5834 7.2916 1.927 13.49 3.5417 18.49 4.7396 5 1.2493 9.375 2.5 13.177 3.9062 2.1875 0.781 4.2187 2.1354 6.0416 4.0104s2.7084 4.8959 2.7084 8.8542c0 1.9792-0.365 3.9062-1.1453 5.7813-0.833 1.9271-2.0834 3.5937-3.9063 5.052-1.7708 1.4584-4.1145 2.6563-6.9792 3.5937-2.8645 0.937-6.3541 1.4063-10.417 1.4063-3.75 0-7.2394-0.416-10.469-1.2493-3.2814-0.833-6.0938-2.1354-8.5938-3.9583-2.448-1.7709-4.3751-4.1147-5.7813-6.9271-1.4063-2.8646-2.0834-6.25-2.0834-10.26h-18.594c0.107 6.4584 1.3027 12.031 3.698 16.719 2.3957 4.7917 5.5728 8.6459 9.5312 11.667 3.9583 3.0208 8.6459 5.2604 14.01 6.7188 5.3646 1.4582 11.042 2.2396 17.083 2.2396 5.2604 0 10.417-0.625 15.469-1.823 5.1041-1.2493 9.5833-3.177 13.542-5.8333 4.0104-2.6043 7.1874-6.0417 9.6354-10.156 2.4479-4.1146 3.6459-9.1666 3.6459-15 0-2.7604-0.416-5.4688-1.2493-8.2292-0.885-2.7082-2.1355-5.2604-3.9063-7.6562" fill="#004b85"/>
  <path d="m708.91 3.9585v-1.9271h13.438v1.9271h-5.625v15.469h-2.2396v-15.469z" display="none" fill="#004b85"/>
  <path d="m726.88 2.0314 5.3126 14.583 5.3124-14.583h3.0729v17.396h-2.1353v-14.479h-0.05l-5.2604 14.479h-1.875l-5.2604-14.479h-0.05v14.479h-2.1354v-17.396z" display="none" fill="#004b85"/>
  <g transform="matrix(13.333 0 0 13.333 -4827.3 -8240.9)" clip-path="url(#clip8)">
   <g clip-path="url(#clip9)">
    <path d="m364.5 606.54-9 42.414 57.266 13.027 9-42.414z" fill="url(#radial2)"/>
   </g>
  </g>
  <g transform="matrix(13.333 0 0 13.333 -4827.3 -8240.9)" clip-path="url(#clip10)">
   <g clip-path="url(#clip11)">
    <path d="m361.88 634.09 0.17578 42.027 53.332-0.23828-0.17187-42.023z" fill="url(#radial3)"/>
   </g>
  </g>
  <g transform="matrix(13.333 0 0 13.333 -4827.3 -8240.9)" clip-path="url(#clip12)">
   <g clip-path="url(#clip13)">
    <path d="m387.54 609.14-35.992 39.453 38.18 37.336 35.996-39.457z" fill="url(#linear0)"/>
   </g>
  </g>
 </g>
</svg>
